solid Enderman Head
facet normal 7.04991620636975e-16 -1.0 0.0
outer loop
vertex 8.99999999999998 -16.0 8.00000000000002
vertex 6.99999999999999 -16.0 8.0
vertex 14.8 -16.0 8.0
endloop
endfacet
facet normal 7.04991620636975e-16 -1.0 0.0
outer loop
vertex 6.99999999999999 -16.0 8.0
vertex 8.99999999999998 -16.0 8.00000000000002
vertex 6.99999999999998 -16.0 10.0
endloop
endfacet
facet normal 7.04991620636975e-16 -1.0 0.0
outer loop
vertex 6.99999999999998 -16.0 10.0
vertex 8.99999999999998 -16.0 8.00000000000002
vertex 9.00000000000001 -16.0 10.0
endloop
endfacet
facet normal 7.04991620636975e-16 -1.0 0.0
outer loop
vertex 6.99999999999998 -16.0 10.0
vertex 9.00000000000001 -16.0 10.0
vertex 14.8 -16.0 10.0
endloop
endfacet
facet normal 7.04991620636975e-16 -1.0 0.0
outer loop
vertex 6.99999999999998 -16.0 10.0
vertex 14.8 -16.0 10.0
vertex 1.19999999999999 -16.0 10.0
endloop
endfacet
facet normal 7.04991620636975e-16 -1.0 0.0
outer loop
vertex 16.0 -16.0 0.0
vertex 14.8 -16.0 8.0
vertex 4.22994972382185e-15 -16.0 0.0
endloop
endfacet
facet normal 7.04991620636975e-16 -1.0 0.0
outer loop
vertex 14.8 -16.0 8.0
vertex 16.0 -16.0 0.0
vertex 16.0 -16.0 14.0
endloop
endfacet
facet normal 7.04991620636975e-16 -1.0 0.0
outer loop
vertex 14.8 -16.0 8.0
vertex 16.0 -16.0 14.0
vertex 14.8 -16.0 10.0
endloop
endfacet
facet normal 7.04991620636975e-16 -1.0 0.0
outer loop
vertex 4.22994972382185e-15 -16.0 0.0
vertex 1.19999999999999 -16.0 8.0
vertex 4.22994972382185e-15 -16.0 14.0
endloop
endfacet
facet normal 7.04991620636975e-16 -1.0 0.0
outer loop
vertex 1.19999999999999 -16.0 8.0
vertex 4.22994972382185e-15 -16.0 0.0
vertex 14.8 -16.0 8.0
endloop
endfacet
facet normal 7.04991620636975e-16 -1.0 0.0
outer loop
vertex 1.19999999999999 -16.0 8.0
vertex 14.8 -16.0 8.0
vertex 6.99999999999999 -16.0 8.0
endloop
endfacet
facet normal 7.04991620636975e-16 -1.0 0.0
outer loop
vertex 4.22994972382185e-15 -16.0 14.0
vertex 1.19999999999999 -16.0 8.0
vertex 1.19999999999999 -16.0 10.0
endloop
endfacet
facet normal 7.04991620636975e-16 -1.0 0.0
outer loop
vertex 4.22994972382185e-15 -16.0 14.0
vertex 1.19999999999999 -16.0 10.0
vertex 14.8 -16.0 10.0
endloop
endfacet
facet normal 7.04991620636975e-16 -1.0 0.0
outer loop
vertex 4.22994972382185e-15 -16.0 14.0
vertex 14.8 -16.0 10.0
vertex 16.0 -16.0 14.0
endloop
endfacet
facet normal 3.52495810318487e-16 1.0 -3.02139265987275e-16
outer loop
vertex -7.04991620636974e-16 8.45989944764369e-15 14.0
vertex 16.0 -1.40998324127395e-15 0.0
vertex 0.0 0.0 0.0
endloop
endfacet
facet normal 3.52495810318487e-16 1.0 -3.02139265987275e-16
outer loop
vertex 16.0 -1.40998324127395e-15 0.0
vertex -7.04991620636974e-16 8.45989944764369e-15 14.0
vertex 16.0 -1.40998324127395e-15 14.0
endloop
endfacet
facet normal -4.45257865665457e-15 -1.0 4.22994972382185e-15
outer loop
vertex 14.8 -14.0 10.0
vertex 12.9 -14.0 8.00000000000002
vertex 14.8 -14.0 8.0
endloop
endfacet
facet normal -4.45257865665457e-15 -1.0 4.22994972382185e-15
outer loop
vertex 12.9 -14.0 8.00000000000002
vertex 14.8 -14.0 10.0
vertex 12.9 -14.0 10.0
endloop
endfacet
facet normal -2.96838577110302e-15 -1.0 2.81996648254797e-15
outer loop
vertex 10.9 -14.0 10.0
vertex 8.99999999999998 -14.0 8.00000000000002
vertex 10.9 -14.0 8.0
endloop
endfacet
facet normal -2.96838577110302e-15 -1.0 2.81996648254797e-15
outer loop
vertex 8.99999999999998 -14.0 8.00000000000002
vertex 10.9 -14.0 10.0
vertex 9.00000000000001 -14.0 10.0
endloop
endfacet
facet normal 4.22994972382183e-15 -1.0 1.40998324127393e-15
outer loop
vertex 12.9 -14.6 8.00000000000002
vertex 10.9 -14.6 10.0
vertex 10.9 -14.6 8.0
endloop
endfacet
facet normal 4.22994972382183e-15 -1.0 1.40998324127393e-15
outer loop
vertex 10.9 -14.6 10.0
vertex 12.9 -14.6 8.00000000000002
vertex 12.9 -14.6 10.0
endloop
endfacet
facet normal -1.0 -1.81202723760738e-31 8.45989944764372e-15
outer loop
vertex 10.9 -14.6 10.0
vertex 10.9 -14.0 8.0
vertex 10.9 -14.6 8.0
endloop
endfacet
facet normal -1.0 -1.81202723760738e-31 8.45989944764372e-15
outer loop
vertex 10.9 -14.0 8.0
vertex 10.9 -14.6 10.0
vertex 10.9 -14.0 10.0
endloop
endfacet
facet normal 1.0 -9.39988827515959e-15 -0.0
outer loop
vertex 12.9 -14.0 8.00000000000002
vertex 12.9 -14.6 10.0
vertex 12.9 -14.6 8.00000000000002
endloop
endfacet
facet normal 1.0 -9.39988827515959e-15 -0.0
outer loop
vertex 12.9 -14.6 10.0
vertex 12.9 -14.0 8.00000000000002
vertex 12.9 -14.0 10.0
endloop
endfacet
facet normal 2.96838577110304e-15 -1.0 2.05590158009598e-30
outer loop
vertex 6.99999999999999 -14.0 10.0
vertex 5.09999999999998 -14.0 8.0
vertex 6.99999999999999 -14.0 8.0
endloop
endfacet
facet normal 2.96838577110304e-15 -1.0 2.05590158009598e-30
outer loop
vertex 5.09999999999998 -14.0 8.0
vertex 6.99999999999999 -14.0 10.0
vertex 5.09999999999998 -14.0 10.0
endloop
endfacet
facet normal 0.0 -1.0 0.0
outer loop
vertex 3.09999999999998 -14.0 10.0
vertex 1.19999999999999 -14.0 8.0
vertex 3.09999999999999 -14.0 8.0
endloop
endfacet
facet normal 0.0 -1.0 0.0
outer loop
vertex 1.19999999999999 -14.0 8.0
vertex 3.09999999999998 -14.0 10.0
vertex 1.19999999999999 -14.0 10.0
endloop
endfacet
facet normal 9.86988268891767e-15 -1.0 -1.4099832412739e-15
outer loop
vertex 5.09999999999998 -14.6 10.0
vertex 3.09999999999999 -14.6 8.0
vertex 5.09999999999998 -14.6 8.0
endloop
endfacet
facet normal 9.86988268891767e-15 -1.0 -1.4099832412739e-15
outer loop
vertex 3.09999999999999 -14.6 8.0
vertex 5.09999999999998 -14.6 10.0
vertex 3.09999999999997 -14.6 10.0
endloop
endfacet
facet normal -1.0 1.17498603439497e-15 -8.10740363732523e-15
outer loop
vertex 3.09999999999998 -14.0 10.0
vertex 3.09999999999999 -14.6 8.0
vertex 3.09999999999997 -14.6 10.0
endloop
endfacet
facet normal -1.0 1.17498603439497e-15 -8.10740363732523e-15
outer loop
vertex 3.09999999999999 -14.6 8.0
vertex 3.09999999999998 -14.0 10.0
vertex 3.09999999999999 -14.0 8.0
endloop
endfacet
facet normal 1.0 -4.69994413757997e-15 -0.0
outer loop
vertex 5.09999999999998 -14.0 8.0
vertex 5.09999999999998 -14.6 10.0
vertex 5.09999999999998 -14.6 8.0
endloop
endfacet
facet normal 1.0 -4.69994413757997e-15 -0.0
outer loop
vertex 5.09999999999998 -14.6 10.0
vertex 5.09999999999998 -14.0 8.0
vertex 5.09999999999998 -14.0 10.0
endloop
endfacet
facet normal -0.0 -0.0 1.0
outer loop
vertex 4.22994972382185e-15 -16.0 14.0
vertex 5.06093906175398 -8.6015985382932 14.0
vertex 5.00537997549467 -7.8204146196602 14.0
endloop
endfacet
facet normal -0.0 -0.0 1.0
outer loop
vertex 5.06093906175398 -8.6015985382932 14.0
vertex 4.22994972382185e-15 -16.0 14.0
vertex 5.31679029392692 -9.3417845107301 14.0
endloop
endfacet
facet normal -0.0 -0.0 1.0
outer loop
vertex 5.31679029392692 -9.3417845107301 14.0
vertex 4.22994972382185e-15 -16.0 14.0
vertex 5.75549783335503 -9.99053008616451 14.0
endloop
endfacet
facet normal -0.0 -0.0 1.0
outer loop
vertex 5.75549783335503 -9.99053008616451 14.0
vertex 4.22994972382185e-15 -16.0 14.0
vertex 16.0 -16.0 14.0
endloop
endfacet
facet normal -0.0 -0.0 1.0
outer loop
vertex 5.75549783335503 -9.99053008616451 14.0
vertex 16.0 -16.0 14.0
vertex 10.2025627445189 -10.0 14.0
endloop
endfacet
facet normal -0.0 -0.0 1.0
outer loop
vertex 10.2025627445189 -10.0 14.0
vertex 16.0 -16.0 14.0
vertex 10.5036243257333 -9.65283551377519 14.0
endloop
endfacet
facet normal -0.0 -0.0 1.0
outer loop
vertex 10.5036243257333 -9.65283551377519 14.0
vertex 16.0 -16.0 14.0
vertex 10.8461007049382 -8.9485308520815 14.0
endloop
endfacet
facet normal -0.0 -0.0 1.0
outer loop
vertex 10.8461007049382 -8.9485308520815 14.0
vertex 16.0 -16.0 14.0
vertex 10.9946200245053 -8.17958538033978 14.0
endloop
endfacet
facet normal -0.0 -0.0 1.0
outer loop
vertex -7.04991620636974e-16 8.45989944764369e-15 14.0
vertex 6.65821548926988 -5.31679029392692 14.0
vertex 16.0 -1.40998324127395e-15 14.0
endloop
endfacet
facet normal -0.0 -0.0 1.0
outer loop
vertex 6.65821548926988 -5.31679029392692 14.0
vertex -7.04991620636974e-16 8.45989944764369e-15 14.0
vertex 6.00946991383548 -5.75549783335502 14.0
endloop
endfacet
facet normal -0.0 -0.0 1.0
outer loop
vertex 6.00946991383548 -5.75549783335502 14.0
vertex -7.04991620636974e-16 8.45989944764369e-15 14.0
vertex 5.49637567426671 -6.34716448622478 14.0
endloop
endfacet
facet normal -0.0 -0.0 1.0
outer loop
vertex 5.49637567426671 -6.34716448622478 14.0
vertex -7.04991620636974e-16 8.45989944764369e-15 14.0
vertex 4.22994972382185e-15 -16.0 14.0
endloop
endfacet
facet normal -0.0 -0.0 1.0
outer loop
vertex 5.49637567426671 -6.34716448622478 14.0
vertex 4.22994972382185e-15 -16.0 14.0
vertex 5.15389929506182 -7.05146914791849 14.0
endloop
endfacet
facet normal -0.0 -0.0 1.0
outer loop
vertex 5.15389929506182 -7.05146914791849 14.0
vertex 4.22994972382185e-15 -16.0 14.0
vertex 5.00537997549467 -7.8204146196602 14.0
endloop
endfacet
facet normal -0.0 -0.0 1.0
outer loop
vertex 16.0 -1.40998324127395e-15 14.0
vertex 6.65821548926988 -5.31679029392692 14.0
vertex 7.39840146170678 -5.06093906175398 14.0
endloop
endfacet
facet normal -0.0 -0.0 1.0
outer loop
vertex 16.0 -1.40998324127395e-15 14.0
vertex 7.39840146170678 -5.06093906175398 14.0
vertex 8.17958538033978 -5.00537997549468 14.0
endloop
endfacet
facet normal -0.0 -0.0 1.0
outer loop
vertex 16.0 -1.40998324127395e-15 14.0
vertex 8.17958538033978 -5.00537997549468 14.0
vertex 8.94853085208149 -5.15389929506182 14.0
endloop
endfacet
facet normal -0.0 -0.0 1.0
outer loop
vertex 16.0 -1.40998324127395e-15 14.0
vertex 8.94853085208149 -5.15389929506182 14.0
vertex 9.6528355137752 -5.49637567426671 14.0
endloop
endfacet
facet normal -0.0 -0.0 1.0
outer loop
vertex 16.0 -1.40998324127395e-15 14.0
vertex 9.6528355137752 -5.49637567426671 14.0
vertex 10.244502166645 -6.0094699138355 14.0
endloop
endfacet
facet normal -0.0 -0.0 1.0
outer loop
vertex 16.0 -1.40998324127395e-15 14.0
vertex 10.244502166645 -6.0094699138355 14.0
vertex 10.6832097060731 -6.65821548926988 14.0
endloop
endfacet
facet normal -0.0 -0.0 1.0
outer loop
vertex 16.0 -1.40998324127395e-15 14.0
vertex 10.6832097060731 -6.65821548926988 14.0
vertex 10.939060938246 -7.39840146170679 14.0
endloop
endfacet
facet normal -0.0 -0.0 1.0
outer loop
vertex 16.0 -1.40998324127395e-15 14.0
vertex 10.939060938246 -7.39840146170679 14.0
vertex 10.9946200245053 -8.17958538033978 14.0
endloop
endfacet
facet normal -0.0 -0.0 1.0
outer loop
vertex 16.0 -1.40998324127395e-15 14.0
vertex 10.9946200245053 -8.17958538033978 14.0
vertex 16.0 -16.0 14.0
endloop
endfacet
facet normal 1.0 -0.0 -0.0
outer loop
vertex 16.0 -1.40998324127395e-15 0.0
vertex 16.0 -16.0 14.0
vertex 16.0 -16.0 0.0
endloop
endfacet
facet normal 1.0 -0.0 -0.0
outer loop
vertex 16.0 -16.0 14.0
vertex 16.0 -1.40998324127395e-15 0.0
vertex 16.0 -1.40998324127395e-15 14.0
endloop
endfacet
facet normal -1.0 -2.86402845883771e-16 -2.51782721656061e-17
outer loop
vertex -7.04991620636974e-16 8.45989944764369e-15 14.0
vertex 4.22994972382185e-15 -16.0 0.0
vertex 4.22994972382185e-15 -16.0 14.0
endloop
endfacet
facet normal -1.0 -2.86402845883771e-16 -2.51782721656061e-17
outer loop
vertex 4.22994972382185e-15 -16.0 0.0
vertex -7.04991620636974e-16 8.45989944764369e-15 14.0
vertex 0.0 0.0 0.0
endloop
endfacet
facet normal -1.0 -1.40998324127396e-15 1.40998324127394e-15
outer loop
vertex 14.8 -14.0 10.0
vertex 14.8 -16.0 8.0
vertex 14.8 -16.0 10.0
endloop
endfacet
facet normal -1.0 -1.40998324127396e-15 1.40998324127394e-15
outer loop
vertex 14.8 -16.0 8.0
vertex 14.8 -14.0 10.0
vertex 14.8 -14.0 8.0
endloop
endfacet
facet normal 4.67497100188599e-15 7.4820912100931e-30 -1.0
outer loop
vertex 10.9 -14.0 10.0
vertex 9.00000000000001 -16.0 10.0
vertex 9.00000000000001 -14.0 10.0
endloop
endfacet
facet normal 4.67497100188599e-15 7.4820912100931e-30 -1.0
outer loop
vertex 9.00000000000001 -16.0 10.0
vertex 10.9 -14.0 10.0
vertex 10.9 -14.6 10.0
endloop
endfacet
facet normal 4.67497100188599e-15 7.4820912100931e-30 -1.0
outer loop
vertex 9.00000000000001 -16.0 10.0
vertex 10.9 -14.6 10.0
vertex 14.8 -16.0 10.0
endloop
endfacet
facet normal 4.67497100188599e-15 7.4820912100931e-30 -1.0
outer loop
vertex 14.8 -16.0 10.0
vertex 10.9 -14.6 10.0
vertex 12.9 -14.6 10.0
endloop
endfacet
facet normal 4.67497100188599e-15 7.4820912100931e-30 -1.0
outer loop
vertex 14.8 -16.0 10.0
vertex 12.9 -14.6 10.0
vertex 12.9 -14.0 10.0
endloop
endfacet
facet normal 4.67497100188599e-15 7.4820912100931e-30 -1.0
outer loop
vertex 14.8 -16.0 10.0
vertex 12.9 -14.0 10.0
vertex 14.8 -14.0 10.0
endloop
endfacet
facet normal -1.0 2.8199664825479e-15 -2.81996648254791e-15
outer loop
vertex 6.99999999999998 -16.0 10.0
vertex 6.99999999999999 -14.0 8.0
vertex 6.99999999999999 -16.0 8.0
endloop
endfacet
facet normal -1.0 2.8199664825479e-15 -2.81996648254791e-15
outer loop
vertex 6.99999999999999 -14.0 8.0
vertex 6.99999999999998 -16.0 10.0
vertex 6.99999999999999 -14.0 10.0
endloop
endfacet
facet normal -0.0 -0.0 1.0
outer loop
vertex 6.99999999999999 -16.0 8.0
vertex 3.09999999999999 -14.6 8.0
vertex 1.19999999999999 -16.0 8.0
endloop
endfacet
facet normal -0.0 -0.0 1.0
outer loop
vertex 3.09999999999999 -14.6 8.0
vertex 6.99999999999999 -16.0 8.0
vertex 5.09999999999998 -14.6 8.0
endloop
endfacet
facet normal -0.0 -0.0 1.0
outer loop
vertex 5.09999999999998 -14.6 8.0
vertex 6.99999999999999 -16.0 8.0
vertex 5.09999999999998 -14.0 8.0
endloop
endfacet
facet normal -0.0 -0.0 1.0
outer loop
vertex 5.09999999999998 -14.0 8.0
vertex 6.99999999999999 -16.0 8.0
vertex 6.99999999999999 -14.0 8.0
endloop
endfacet
facet normal -0.0 -0.0 1.0
outer loop
vertex 1.19999999999999 -16.0 8.0
vertex 3.09999999999999 -14.0 8.0
vertex 1.19999999999999 -14.0 8.0
endloop
endfacet
facet normal -0.0 -0.0 1.0
outer loop
vertex 3.09999999999999 -14.0 8.0
vertex 1.19999999999999 -16.0 8.0
vertex 3.09999999999999 -14.6 8.0
endloop
endfacet
facet normal 1.1987105133041e-15 2.95726822139862e-15 -1.0
outer loop
vertex 3.09999999999998 -14.0 10.0
vertex 1.19999999999999 -16.0 10.0
vertex 1.19999999999999 -14.0 10.0
endloop
endfacet
facet normal 1.1987105133041e-15 2.95726822139862e-15 -1.0
outer loop
vertex 1.19999999999999 -16.0 10.0
vertex 3.09999999999998 -14.0 10.0
vertex 3.09999999999997 -14.6 10.0
endloop
endfacet
facet normal 1.1987105133041e-15 2.95726822139862e-15 -1.0
outer loop
vertex 3.09999999999997 -14.6 10.0
vertex 6.99999999999998 -16.0 10.0
vertex 1.19999999999999 -16.0 10.0
endloop
endfacet
facet normal 1.1987105133041e-15 2.95726822139862e-15 -1.0
outer loop
vertex 6.99999999999998 -16.0 10.0
vertex 3.09999999999997 -14.6 10.0
vertex 5.09999999999998 -14.6 10.0
endloop
endfacet
facet normal 1.1987105133041e-15 2.95726822139862e-15 -1.0
outer loop
vertex 6.99999999999998 -16.0 10.0
vertex 5.09999999999998 -14.6 10.0
vertex 5.09999999999998 -14.0 10.0
endloop
endfacet
facet normal 1.1987105133041e-15 2.95726822139862e-15 -1.0
outer loop
vertex 6.99999999999998 -16.0 10.0
vertex 5.09999999999998 -14.0 10.0
vertex 6.99999999999999 -14.0 10.0
endloop
endfacet
facet normal 0.0 0.0 -1.0
outer loop
vertex 16.0 -1.40998324127395e-15 0.0
vertex 4.22994972382185e-15 -16.0 0.0
vertex 0.0 0.0 0.0
endloop
endfacet
facet normal 0.0 0.0 -1.0
outer loop
vertex 4.22994972382185e-15 -16.0 0.0
vertex 16.0 -1.40998324127395e-15 0.0
vertex 16.0 -16.0 0.0
endloop
endfacet
facet normal 1.0 7.04991620636982e-16 -0.0
outer loop
vertex 1.19999999999999 -14.0 8.0
vertex 1.19999999999999 -16.0 10.0
vertex 1.19999999999999 -16.0 8.0
endloop
endfacet
facet normal 1.0 7.04991620636982e-16 -0.0
outer loop
vertex 1.19999999999999 -16.0 10.0
vertex 1.19999999999999 -14.0 8.0
vertex 1.19999999999999 -14.0 10.0
endloop
endfacet
facet normal 1.99285622836805e-15 -8.05921880826067e-29 1.0
outer loop
vertex 14.8 -16.0 8.0
vertex 8.99999999999998 -14.0 8.00000000000002
vertex 8.99999999999998 -16.0 8.00000000000002
endloop
endfacet
facet normal 1.99285622836805e-15 -8.05921880826067e-29 1.0
outer loop
vertex 8.99999999999998 -14.0 8.00000000000002
vertex 14.8 -16.0 8.0
vertex 10.9 -14.6 8.0
endloop
endfacet
facet normal 1.99285622836805e-15 -8.05921880826067e-29 1.0
outer loop
vertex 10.9 -14.6 8.0
vertex 14.8 -16.0 8.0
vertex 12.9 -14.6 8.00000000000002
endloop
endfacet
facet normal 1.99285622836805e-15 -8.05921880826067e-29 1.0
outer loop
vertex 12.9 -14.6 8.00000000000002
vertex 14.8 -16.0 8.0
vertex 12.9 -14.0 8.00000000000002
endloop
endfacet
facet normal 1.99285622836805e-15 -8.05921880826067e-29 1.0
outer loop
vertex 12.9 -14.0 8.00000000000002
vertex 14.8 -16.0 8.0
vertex 14.8 -14.0 8.0
endloop
endfacet
facet normal 1.99285622836805e-15 -8.05921880826067e-29 1.0
outer loop
vertex 10.9 -14.0 8.0
vertex 8.99999999999998 -14.0 8.00000000000002
vertex 10.9 -14.6 8.0
endloop
endfacet
facet normal 1.0 2.15890102307474e-30 -1.55098156540136e-14
outer loop
vertex 8.99999999999998 -16.0 8.00000000000002
vertex 9.00000000000001 -14.0 10.0
vertex 9.00000000000001 -16.0 10.0
endloop
endfacet
facet normal 1.0 2.15890102307474e-30 -1.55098156540136e-14
outer loop
vertex 9.00000000000001 -14.0 10.0
vertex 8.99999999999998 -16.0 8.00000000000002
vertex 8.99999999999998 -14.0 8.00000000000002
endloop
endfacet
facet normal 1.65793999644711e-16 -3.98797097424276e-16 1.0
outer loop
vertex 5.06093906175398 -8.6015985382932 19.0
vertex 5.15389929506182 -7.05146914791849 19.0
vertex 5.00537997549467 -7.8204146196602 19.0
endloop
endfacet
facet normal 1.65793999644711e-16 -3.98797097424276e-16 1.0
outer loop
vertex 5.15389929506182 -7.05146914791849 19.0
vertex 5.06093906175398 -8.6015985382932 19.0
vertex 5.31679029392692 -9.3417845107301 19.0
endloop
endfacet
facet normal 1.65793999644711e-16 -3.98797097424276e-16 1.0
outer loop
vertex 5.15389929506182 -7.05146914791849 19.0
vertex 5.31679029392692 -9.3417845107301 19.0
vertex 5.49637567426671 -6.34716448622478 19.0
endloop
endfacet
facet normal 1.65793999644711e-16 -3.98797097424276e-16 1.0
outer loop
vertex 5.49637567426671 -6.34716448622478 19.0
vertex 5.31679029392692 -9.3417845107301 19.0
vertex 5.75549783335503 -9.99053008616451 19.0
endloop
endfacet
facet normal 1.65793999644711e-16 -3.98797097424276e-16 1.0
outer loop
vertex 5.49637567426671 -6.34716448622478 19.0
vertex 5.75549783335503 -9.99053008616451 19.0
vertex 6.00946991383548 -5.75549783335502 19.0
endloop
endfacet
facet normal 1.65793999644711e-16 -3.98797097424276e-16 1.0
outer loop
vertex 6.00946991383548 -5.75549783335502 19.0
vertex 5.75549783335503 -9.99053008616451 19.0
vertex 10.2025627445189 -10.0 19.0
endloop
endfacet
facet normal 1.65793999644711e-16 -3.98797097424276e-16 1.0
outer loop
vertex 6.00946991383548 -5.75549783335502 19.0
vertex 10.2025627445189 -10.0 19.0
vertex 6.65821548926988 -5.31679029392692 19.0
endloop
endfacet
facet normal 1.65793999644711e-16 -3.98797097424276e-16 1.0
outer loop
vertex 6.65821548926988 -5.31679029392692 19.0
vertex 10.2025627445189 -10.0 19.0
vertex 7.39840146170678 -5.06093906175398 19.0
endloop
endfacet
facet normal 1.65793999644711e-16 -3.98797097424276e-16 1.0
outer loop
vertex 7.39840146170678 -5.06093906175398 19.0
vertex 10.2025627445189 -10.0 19.0
vertex 8.17958538033978 -5.00537997549468 19.0
endloop
endfacet
facet normal 1.65793999644711e-16 -3.98797097424276e-16 1.0
outer loop
vertex 8.17958538033978 -5.00537997549468 19.0
vertex 10.2025627445189 -10.0 19.0
vertex 8.94853085208149 -5.15389929506182 19.0
endloop
endfacet
facet normal 1.65793999644711e-16 -3.98797097424276e-16 1.0
outer loop
vertex 8.94853085208149 -5.15389929506182 19.0
vertex 10.2025627445189 -10.0 19.0
vertex 9.6528355137752 -5.49637567426671 19.0
endloop
endfacet
facet normal 1.65793999644711e-16 -3.98797097424276e-16 1.0
outer loop
vertex 9.6528355137752 -5.49637567426671 19.0
vertex 10.2025627445189 -10.0 19.0
vertex 10.244502166645 -6.0094699138355 19.0
endloop
endfacet
facet normal 1.65793999644711e-16 -3.98797097424276e-16 1.0
outer loop
vertex 10.244502166645 -6.0094699138355 19.0
vertex 10.2025627445189 -10.0 19.0
vertex 10.5036243257333 -9.65283551377519 19.0
endloop
endfacet
facet normal 1.65793999644711e-16 -3.98797097424276e-16 1.0
outer loop
vertex 10.244502166645 -6.0094699138355 19.0
vertex 10.5036243257333 -9.65283551377519 19.0
vertex 10.6832097060731 -6.65821548926988 19.0
endloop
endfacet
facet normal 1.65793999644711e-16 -3.98797097424276e-16 1.0
outer loop
vertex 10.6832097060731 -6.65821548926988 19.0
vertex 10.5036243257333 -9.65283551377519 19.0
vertex 10.8461007049382 -8.9485308520815 19.0
endloop
endfacet
facet normal 1.65793999644711e-16 -3.98797097424276e-16 1.0
outer loop
vertex 10.6832097060731 -6.65821548926988 19.0
vertex 10.8461007049382 -8.9485308520815 19.0
vertex 10.939060938246 -7.39840146170679 19.0
endloop
endfacet
facet normal 1.65793999644711e-16 -3.98797097424276e-16 1.0
outer loop
vertex 10.939060938246 -7.39840146170679 19.0
vertex 10.8461007049382 -8.9485308520815 19.0
vertex 10.9946200245053 -8.17958538033978 19.0
endloop
endfacet
facet normal 0.834541441911099 -0.550945171258396 -6.90726169869064e-19
outer loop
vertex 10.5036243257333 -9.65283551377519 14.0
vertex 10.2025627445189 -10.0 19.0
vertex 10.2025627445189 -10.0 14.0
endloop
endfacet
facet normal 0.755489048859883 -0.65516127560532 -1.36963382346619e-18
outer loop
vertex 10.2025627445189 -10.0 19.0
vertex 10.5036243257333 -9.65283551377519 14.0
vertex 10.5036243257333 -9.65283551377519 19.0
endloop
endfacet
facet normal 0.948700234979384 -0.316176950693849 0.0
outer loop
vertex 10.8461007049382 -8.9485308520815 14.0
vertex 10.5036243257333 -9.65283551377519 19.0
vertex 10.5036243257333 -9.65283551377519 14.0
endloop
endfacet
facet normal 0.8345414419111 -0.550945171258395 -6.90726169869058e-19
outer loop
vertex 10.5036243257333 -9.65283551377519 19.0
vertex 10.8461007049382 -8.9485308520815 14.0
vertex 10.8461007049382 -8.9485308520815 19.0
endloop
endfacet
facet normal 0.998206674835104 -0.0598617934466052 0.0
outer loop
vertex 10.9946200245053 -8.17958538033978 14.0
vertex 10.8461007049382 -8.9485308520815 19.0
vertex 10.8461007049382 -8.9485308520815 14.0
endloop
endfacet
facet normal 0.948700234979384 -0.316176950693849 0.0
outer loop
vertex 10.8461007049382 -8.9485308520815 19.0
vertex 10.9946200245053 -8.17958538033978 14.0
vertex 10.9946200245053 -8.17958538033978 19.0
endloop
endfacet
facet normal 0.979686979415334 0.200532846097737 0.0
outer loop
vertex 10.939060938246 -7.39840146170679 14.0
vertex 10.9946200245053 -8.17958538033978 19.0
vertex 10.9946200245053 -8.17958538033978 14.0
endloop
endfacet
facet normal 0.998206674835104 -0.0598617934466052 0.0
outer loop
vertex 10.9946200245053 -8.17958538033978 19.0
vertex 10.939060938246 -7.39840146170679 14.0
vertex 10.939060938246 -7.39840146170679 19.0
endloop
endfacet
facet normal 0.894403235357686 0.447261503576714 0.0
outer loop
vertex 10.6832097060731 -6.65821548926988 14.0
vertex 10.939060938246 -7.39840146170679 19.0
vertex 10.939060938246 -7.39840146170679 14.0
endloop
endfacet
facet normal 0.979686979415334 0.200532846097737 0.0
outer loop
vertex 10.939060938246 -7.39840146170679 19.0
vertex 10.6832097060731 -6.65821548926988 14.0
vertex 10.6832097060731 -6.65821548926988 19.0
endloop
endfacet
facet normal 0.748167388881648 0.663510028721508 0.0
outer loop
vertex 10.244502166645 -6.0094699138355 14.0
vertex 10.6832097060731 -6.65821548926988 19.0
vertex 10.6832097060731 -6.65821548926988 14.0
endloop
endfacet
facet normal 0.894403235357686 0.447261503576714 0.0
outer loop
vertex 10.6832097060731 -6.65821548926988 19.0
vertex 10.244502166645 -6.0094699138355 14.0
vertex 10.244502166645 -6.0094699138355 19.0
endloop
endfacet
facet normal 0.550945171258408 0.834541441911091 0.0
outer loop
vertex 9.6528355137752 -5.49637567426671 19.0
vertex 10.244502166645 -6.0094699138355 14.0
vertex 9.6528355137752 -5.49637567426671 14.0
endloop
endfacet
facet normal 0.748167388881648 0.663510028721508 0.0
outer loop
vertex 10.244502166645 -6.0094699138355 14.0
vertex 9.6528355137752 -5.49637567426671 19.0
vertex 10.244502166645 -6.0094699138355 19.0
endloop
endfacet
facet normal 0.316176950693836 0.948700234979389 0.0
outer loop
vertex 8.94853085208149 -5.15389929506182 19.0
vertex 9.6528355137752 -5.49637567426671 14.0
vertex 8.94853085208149 -5.15389929506182 14.0
endloop
endfacet
facet normal 0.550945171258408 0.834541441911091 0.0
outer loop
vertex 9.6528355137752 -5.49637567426671 14.0
vertex 8.94853085208149 -5.15389929506182 19.0
vertex 9.6528355137752 -5.49637567426671 19.0
endloop
endfacet
facet normal 0.0598617934465984 0.998206674835105 0.0
outer loop
vertex 8.17958538033978 -5.00537997549468 19.0
vertex 8.94853085208149 -5.15389929506182 14.0
vertex 8.17958538033978 -5.00537997549468 14.0
endloop
endfacet
facet normal 0.316176950693836 0.948700234979389 0.0
outer loop
vertex 8.94853085208149 -5.15389929506182 14.0
vertex 8.17958538033978 -5.00537997549468 19.0
vertex 8.94853085208149 -5.15389929506182 19.0
endloop
endfacet
facet normal -0.200532846097737 0.979686979415334 0.0
outer loop
vertex 7.39840146170678 -5.06093906175398 19.0
vertex 8.17958538033978 -5.00537997549468 14.0
vertex 7.39840146170678 -5.06093906175398 14.0
endloop
endfacet
facet normal 0.0598617934465984 0.998206674835105 0.0
outer loop
vertex 8.17958538033978 -5.00537997549468 14.0
vertex 7.39840146170678 -5.06093906175398 19.0
vertex 8.17958538033978 -5.00537997549468 19.0
endloop
endfacet
facet normal -0.447261503576703 0.894403235357692 0.0
outer loop
vertex 6.65821548926988 -5.31679029392692 19.0
vertex 7.39840146170678 -5.06093906175398 14.0
vertex 6.65821548926988 -5.31679029392692 14.0
endloop
endfacet
facet normal -0.200532846097737 0.979686979415334 0.0
outer loop
vertex 7.39840146170678 -5.06093906175398 14.0
vertex 6.65821548926988 -5.31679029392692 19.0
vertex 7.39840146170678 -5.06093906175398 19.0
endloop
endfacet
facet normal -0.663510028721499 0.748167388881656 0.0
outer loop
vertex 6.00946991383548 -5.75549783335502 19.0
vertex 6.65821548926988 -5.31679029392692 14.0
vertex 6.00946991383548 -5.75549783335502 14.0
endloop
endfacet
facet normal -0.447261503576703 0.894403235357692 0.0
outer loop
vertex 6.65821548926988 -5.31679029392692 14.0
vertex 6.00946991383548 -5.75549783335502 19.0
vertex 6.65821548926988 -5.31679029392692 19.0
endloop
endfacet
facet normal -0.663510028721499 0.748167388881656 0.0
outer loop
vertex 6.00946991383548 -5.75549783335502 19.0
vertex 5.49637567426671 -6.34716448622478 14.0
vertex 5.49637567426671 -6.34716448622478 19.0
endloop
endfacet
facet normal -0.834541441911097 0.5509451712584 0.0
outer loop
vertex 5.49637567426671 -6.34716448622478 14.0
vertex 6.00946991383548 -5.75549783335502 19.0
vertex 6.00946991383548 -5.75549783335502 14.0
endloop
endfacet
facet normal -0.834541441911097 0.5509451712584 0.0
outer loop
vertex 5.49637567426671 -6.34716448622478 19.0
vertex 5.15389929506182 -7.05146914791849 14.0
vertex 5.15389929506182 -7.05146914791849 19.0
endloop
endfacet
facet normal -0.948700234979388 0.316176950693837 0.0
outer loop
vertex 5.15389929506182 -7.05146914791849 14.0
vertex 5.49637567426671 -6.34716448622478 19.0
vertex 5.49637567426671 -6.34716448622478 14.0
endloop
endfacet
facet normal -0.948700234979388 0.316176950693837 0.0
outer loop
vertex 5.15389929506182 -7.05146914791849 19.0
vertex 5.00537997549467 -7.8204146196602 14.0
vertex 5.00537997549467 -7.8204146196602 19.0
endloop
endfacet
facet normal -0.998206674835105 0.0598617934466048 0.0
outer loop
vertex 5.00537997549467 -7.8204146196602 14.0
vertex 5.15389929506182 -7.05146914791849 19.0
vertex 5.15389929506182 -7.05146914791849 14.0
endloop
endfacet
facet normal -0.998206674835105 0.0598617934466048 0.0
outer loop
vertex 5.00537997549467 -7.8204146196602 19.0
vertex 5.06093906175398 -8.6015985382932 14.0
vertex 5.06093906175398 -8.6015985382932 19.0
endloop
endfacet
facet normal -0.979686979415334 -0.200532846097738 0.0
outer loop
vertex 5.06093906175398 -8.6015985382932 14.0
vertex 5.00537997549467 -7.8204146196602 19.0
vertex 5.00537997549467 -7.8204146196602 14.0
endloop
endfacet
facet normal -0.979686979415334 -0.200532846097738 0.0
outer loop
vertex 5.06093906175398 -8.6015985382932 19.0
vertex 5.31679029392692 -9.3417845107301 14.0
vertex 5.31679029392692 -9.3417845107301 19.0
endloop
endfacet
facet normal -0.894403235357691 -0.447261503576705 0.0
outer loop
vertex 5.31679029392692 -9.3417845107301 14.0
vertex 5.06093906175398 -8.6015985382932 19.0
vertex 5.06093906175398 -8.6015985382932 14.0
endloop
endfacet
facet normal -0.894403235357691 -0.447261503576705 0.0
outer loop
vertex 5.31679029392692 -9.3417845107301 19.0
vertex 5.75549783335503 -9.99053008616451 14.0
vertex 5.75549783335503 -9.99053008616451 19.0
endloop
endfacet
facet normal -0.82837215070302 -0.56017816803197 0.0
outer loop
vertex 5.75549783335503 -9.99053008616451 14.0
vertex 5.31679029392692 -9.3417845107301 19.0
vertex 5.31679029392692 -9.3417845107301 14.0
endloop
endfacet
facet normal -0.00212947023560559 -0.999997732675687 -4.61793410362275e-20
outer loop
vertex 10.2025627445189 -10.0 19.0
vertex 5.75549783335503 -9.99053008616451 14.0
vertex 10.2025627445189 -10.0 14.0
endloop
endfacet
facet normal -0.00212947023560559 -0.999997732675687 -4.61793410362275e-20
outer loop
vertex 5.75549783335503 -9.99053008616451 14.0
vertex 10.2025627445189 -10.0 19.0
vertex 5.75549783335503 -9.99053008616451 19.0
endloop
endfacet
endsolid Enderman Head
