solid Enderman Body
facet normal 1.70562488863783e-16 8.65779183238388e-17 -1.0
outer loop
vertex 2.15300051310212 -7.57162361045146 8.45989944764369e-15
vertex 6.15300051310214 -31.5716236104515 8.45989944764369e-15
vertex 2.15300051310217 -53.5716236104514 -8.45989944764369e-15
endloop
endfacet
facet normal 1.70562488863783e-16 8.65779183238388e-17 -1.0
outer loop
vertex 6.15300051310214 -31.5716236104515 8.45989944764369e-15
vertex 2.15300051310212 -7.57162361045146 8.45989944764369e-15
vertex 26.1530005131021 -7.57162361045146 8.45989944764369e-15
endloop
endfacet
facet normal 1.70562488863783e-16 8.65779183238388e-17 -1.0
outer loop
vertex 6.15300051310214 -31.5716236104515 8.45989944764369e-15
vertex 26.1530005131021 -7.57162361045146 8.45989944764369e-15
vertex 8.15300051310213 -31.5716236104515 8.45989944764369e-15
endloop
endfacet
facet normal 1.70562488863783e-16 8.65779183238388e-17 -1.0
outer loop
vertex 8.15300051310213 -31.5716236104515 8.45989944764369e-15
vertex 26.1530005131021 -7.57162361045146 8.45989944764369e-15
vertex 12.1530005131021 -31.5716236104515 8.45989944764369e-15
endloop
endfacet
facet normal 1.70562488863783e-16 8.65779183238388e-17 -1.0
outer loop
vertex 8.15300051310213 -31.5716236104515 8.45989944764369e-15
vertex 12.1530005131021 -31.5716236104515 8.45989944764369e-15
vertex 8.15300051310213 -67.5716236104514 8.45989944764369e-15
endloop
endfacet
facet normal 1.70562488863783e-16 8.65779183238388e-17 -1.0
outer loop
vertex 12.1530005131021 -31.5716236104515 8.45989944764369e-15
vertex 26.1530005131021 -7.57162361045146 8.45989944764369e-15
vertex 16.1530005131021 -31.5716236104515 8.45989944764369e-15
endloop
endfacet
facet normal 1.70562488863783e-16 8.65779183238388e-17 -1.0
outer loop
vertex 16.1530005131021 -31.5716236104515 8.45989944764369e-15
vertex 26.1530005131021 -7.57162361045146 8.45989944764369e-15
vertex 20.1530005131021 -31.5716236104515 8.45989944764369e-15
endloop
endfacet
facet normal 1.70562488863783e-16 8.65779183238388e-17 -1.0
outer loop
vertex 16.1530005131021 -31.5716236104515 8.45989944764369e-15
vertex 20.1530005131021 -31.5716236104515 8.45989944764369e-15
vertex 16.1530005131021 -67.5716236104514 8.45989944764369e-15
endloop
endfacet
facet normal 1.70562488863783e-16 8.65779183238388e-17 -1.0
outer loop
vertex 20.1530005131021 -31.5716236104515 8.45989944764369e-15
vertex 26.1530005131021 -7.57162361045146 8.45989944764369e-15
vertex 22.1530005131021 -31.5716236104515 8.45989944764369e-15
endloop
endfacet
facet normal 1.70562488863783e-16 8.65779183238388e-17 -1.0
outer loop
vertex 22.1530005131021 -31.5716236104515 8.45989944764369e-15
vertex 26.1530005131021 -7.57162361045146 8.45989944764369e-15
vertex 22.1530005131021 -53.5716236104514 0.0
endloop
endfacet
facet normal 1.70562488863783e-16 8.65779183238388e-17 -1.0
outer loop
vertex 22.1530005131021 -53.5716236104514 0.0
vertex 26.1530005131021 -7.57162361045146 8.45989944764369e-15
vertex 26.1530005131021 -53.5716236104514 0.0
endloop
endfacet
facet normal 1.70562488863783e-16 8.65779183238388e-17 -1.0
outer loop
vertex 20.1530005131021 -67.5716236104514 8.45989944764369e-15
vertex 16.1530005131021 -67.5716236104514 8.45989944764369e-15
vertex 20.1530005131021 -31.5716236104515 8.45989944764369e-15
endloop
endfacet
facet normal 1.70562488863783e-16 8.65779183238388e-17 -1.0
outer loop
vertex 12.1530005131021 -67.5716236104514 8.45989944764369e-15
vertex 8.15300051310213 -67.5716236104514 8.45989944764369e-15
vertex 12.1530005131021 -31.5716236104515 8.45989944764369e-15
endloop
endfacet
facet normal 1.70562488863783e-16 8.65779183238388e-17 -1.0
outer loop
vertex 6.15300051310218 -53.5716236104514 -8.45989944764369e-15
vertex 2.15300051310217 -53.5716236104514 -8.45989944764369e-15
vertex 6.15300051310214 -31.5716236104515 8.45989944764369e-15
endloop
endfacet
facet normal -0.0 -0.0 1.0
outer loop
vertex 22.1530005131021 -31.5716236104515 8.00000000000001
vertex 6.15300051310214 -7.57162361045146 8.00000000000001
vertex 6.15300051310214 -31.5716236104515 8.00000000000001
endloop
endfacet
facet normal -0.0 -0.0 1.0
outer loop
vertex 6.15300051310214 -7.57162361045146 8.00000000000001
vertex 22.1530005131021 -31.5716236104515 8.00000000000001
vertex 22.1530005131021 -7.57162361045146 8.00000000000001
endloop
endfacet
facet normal -0.0 1.0 -0.0
outer loop
vertex 2.15300051310212 -7.57162361045146 8.45989944764369e-15
vertex 13.9094213980323 -7.57162361045146 1.0099048151101
vertex 26.1530005131021 -7.57162361045146 8.45989944764369e-15
endloop
endfacet
facet normal -0.0 1.0 -0.0
outer loop
vertex 13.9094213980323 -7.57162361045146 1.0099048151101
vertex 2.15300051310212 -7.57162361045146 8.45989944764369e-15
vertex 13.1438275745927 -7.57162361045146 1.17483275182154
endloop
endfacet
facet normal -0.0 1.0 -0.0
outer loop
vertex 13.1438275745927 -7.57162361045146 1.17483275182154
vertex 2.15300051310212 -7.57162361045146 8.45989944764369e-15
vertex 2.15300051310212 -7.57162361045146 6.00000000000001
endloop
endfacet
facet normal -0.0 1.0 -0.0
outer loop
vertex 13.1438275745927 -7.57162361045146 1.17483275182154
vertex 2.15300051310212 -7.57162361045146 6.00000000000001
vertex 12.4470072191754 -7.57162361045146 1.53229116768671
endloop
endfacet
facet normal -0.0 1.0 -0.0
outer loop
vertex 12.4470072191754 -7.57162361045146 1.53229116768671
vertex 2.15300051310212 -7.57162361045146 6.00000000000001
vertex 11.866447487452 -7.57162361045146 2.05791986239238
endloop
endfacet
facet normal -0.0 1.0 -0.0
outer loop
vertex 11.866447487452 -7.57162361045146 2.05791986239238
vertex 2.15300051310212 -7.57162361045146 6.00000000000001
vertex 11.4417125657191 -7.57162361045146 2.71589810903682
endloop
endfacet
facet normal -0.0 1.0 -0.0
outer loop
vertex 11.4417125657191 -7.57162361045146 2.71589810903682
vertex 2.15300051310212 -7.57162361045146 6.00000000000001
vertex 11.2017474369851 -7.57162361045146 3.4613857774717
endloop
endfacet
facet normal -0.0 1.0 -0.0
outer loop
vertex 11.2017474369851 -7.57162361045146 3.4613857774717
vertex 2.15300051310212 -7.57162361045146 6.00000000000001
vertex 11.1629053282122 -7.57162361045146 4.2435791150698
endloop
endfacet
facet normal -0.0 1.0 -0.0
outer loop
vertex 11.1629053282122 -7.57162361045146 4.2435791150698
vertex 2.15300051310212 -7.57162361045146 6.00000000000001
vertex 11.3278332649237 -7.57162361045146 5.00917293850941
endloop
endfacet
facet normal -0.0 1.0 -0.0
outer loop
vertex 11.3278332649237 -7.57162361045146 5.00917293850941
vertex 2.15300051310212 -7.57162361045146 6.00000000000001
vertex 11.6852916807888 -7.57162361045146 5.70599329392673
endloop
endfacet
facet normal -0.0 1.0 -0.0
outer loop
vertex 11.6852916807888 -7.57162361045146 5.70599329392673
vertex 2.15300051310212 -7.57162361045146 6.00000000000001
vertex 6.15300051310214 -7.57162361045146 6.00000000000001
endloop
endfacet
facet normal -0.0 1.0 -0.0
outer loop
vertex 11.6852916807888 -7.57162361045146 5.70599329392673
vertex 6.15300051310214 -7.57162361045146 6.00000000000001
vertex 12.2109203754945 -7.57162361045146 6.28655302565017
endloop
endfacet
facet normal -0.0 1.0 -0.0
outer loop
vertex 12.2109203754945 -7.57162361045146 6.28655302565017
vertex 6.15300051310214 -7.57162361045146 6.00000000000001
vertex 6.15300051310214 -7.57162361045146 8.00000000000001
endloop
endfacet
facet normal -0.0 1.0 -0.0
outer loop
vertex 12.2109203754945 -7.57162361045146 6.28655302565017
vertex 6.15300051310214 -7.57162361045146 8.00000000000001
vertex 12.8688986221389 -7.57162361045146 6.7112879473831
endloop
endfacet
facet normal -0.0 1.0 -0.0
outer loop
vertex 12.8688986221389 -7.57162361045146 6.7112879473831
vertex 6.15300051310214 -7.57162361045146 8.00000000000001
vertex 13.6143862905738 -7.57162361045146 6.95125307611704
endloop
endfacet
facet normal -0.0 1.0 -0.0
outer loop
vertex 13.6143862905738 -7.57162361045146 6.95125307611704
vertex 6.15300051310214 -7.57162361045146 8.00000000000001
vertex 14.3965796281719 -7.57162361045146 6.99009518488992
endloop
endfacet
facet normal -0.0 1.0 -0.0
outer loop
vertex 15.8589938070289 -7.57162361045146 6.4677088323133
vertex 22.1530005131021 -7.57162361045146 6.00000000000001
vertex 16.4395535387523 -7.57162361045146 5.94208013760765
endloop
endfacet
facet normal -0.0 1.0 -0.0
outer loop
vertex 22.1530005131021 -7.57162361045146 6.00000000000001
vertex 15.8589938070289 -7.57162361045146 6.4677088323133
vertex 22.1530005131021 -7.57162361045146 8.00000000000001
endloop
endfacet
facet normal -0.0 1.0 -0.0
outer loop
vertex 22.1530005131021 -7.57162361045146 8.00000000000001
vertex 15.8589938070289 -7.57162361045146 6.4677088323133
vertex 15.1621734516115 -7.57162361045146 6.82516724817848
endloop
endfacet
facet normal -0.0 1.0 -0.0
outer loop
vertex 22.1530005131021 -7.57162361045146 8.00000000000001
vertex 15.1621734516115 -7.57162361045146 6.82516724817848
vertex 14.3965796281719 -7.57162361045146 6.99009518488992
endloop
endfacet
facet normal -0.0 1.0 -0.0
outer loop
vertex 22.1530005131021 -7.57162361045146 8.00000000000001
vertex 14.3965796281719 -7.57162361045146 6.99009518488992
vertex 6.15300051310214 -7.57162361045146 8.00000000000001
endloop
endfacet
facet normal -0.0 1.0 -0.0
outer loop
vertex 26.1530005131021 -7.57162361045146 8.45989944764369e-15
vertex 15.4371024040653 -7.57162361045146 1.28871205261693
vertex 26.1530005131021 -7.57162361045146 6.00000000000001
endloop
endfacet
facet normal -0.0 1.0 -0.0
outer loop
vertex 15.4371024040653 -7.57162361045146 1.28871205261693
vertex 26.1530005131021 -7.57162361045146 8.45989944764369e-15
vertex 14.6916147356304 -7.57162361045146 1.04874692388298
endloop
endfacet
facet normal -0.0 1.0 -0.0
outer loop
vertex 14.6916147356304 -7.57162361045146 1.04874692388298
vertex 26.1530005131021 -7.57162361045146 8.45989944764369e-15
vertex 13.9094213980323 -7.57162361045146 1.0099048151101
endloop
endfacet
facet normal -0.0 1.0 -0.0
outer loop
vertex 26.1530005131021 -7.57162361045146 6.00000000000001
vertex 15.4371024040653 -7.57162361045146 1.28871205261693
vertex 16.0950806507098 -7.57162361045146 1.71344697434985
endloop
endfacet
facet normal -0.0 1.0 -0.0
outer loop
vertex 26.1530005131021 -7.57162361045146 6.00000000000001
vertex 16.0950806507098 -7.57162361045146 1.71344697434985
vertex 16.6207093454154 -7.57162361045146 2.29400670607329
endloop
endfacet
facet normal -0.0 1.0 -0.0
outer loop
vertex 26.1530005131021 -7.57162361045146 6.00000000000001
vertex 16.6207093454154 -7.57162361045146 2.29400670607329
vertex 16.9781677612806 -7.57162361045146 2.99082706149061
endloop
endfacet
facet normal -0.0 1.0 -0.0
outer loop
vertex 26.1530005131021 -7.57162361045146 6.00000000000001
vertex 16.9781677612806 -7.57162361045146 2.99082706149061
vertex 17.143095697992 -7.57162361045146 3.75642088493022
endloop
endfacet
facet normal -0.0 1.0 -0.0
outer loop
vertex 26.1530005131021 -7.57162361045146 6.00000000000001
vertex 17.143095697992 -7.57162361045146 3.75642088493022
vertex 17.1042535892192 -7.57162361045146 4.53861422252832
endloop
endfacet
facet normal -0.0 1.0 -0.0
outer loop
vertex 26.1530005131021 -7.57162361045146 6.00000000000001
vertex 17.1042535892192 -7.57162361045146 4.53861422252832
vertex 16.8642884604852 -7.57162361045146 5.2841018909632
endloop
endfacet
facet normal -0.0 1.0 -0.0
outer loop
vertex 26.1530005131021 -7.57162361045146 6.00000000000001
vertex 16.8642884604852 -7.57162361045146 5.2841018909632
vertex 16.4395535387523 -7.57162361045146 5.94208013760765
endloop
endfacet
facet normal -0.0 1.0 -0.0
outer loop
vertex 26.1530005131021 -7.57162361045146 6.00000000000001
vertex 16.4395535387523 -7.57162361045146 5.94208013760765
vertex 22.1530005131021 -7.57162361045146 6.00000000000001
endloop
endfacet
facet normal -0.0 1.0 -0.0
outer loop
vertex 13.1438275745927 -15.5716236104515 1.17483275182154
vertex 14.6916147356304 -15.5716236104515 1.04874692388298
vertex 13.9094213980323 -15.5716236104515 1.0099048151101
endloop
endfacet
facet normal -0.0 1.0 -0.0
outer loop
vertex 14.6916147356304 -15.5716236104515 1.04874692388298
vertex 13.1438275745927 -15.5716236104515 1.17483275182154
vertex 15.4371024040653 -15.5716236104515 1.28871205261693
endloop
endfacet
facet normal -0.0 1.0 -0.0
outer loop
vertex 15.4371024040653 -15.5716236104515 1.28871205261693
vertex 13.1438275745927 -15.5716236104515 1.17483275182154
vertex 12.4470072191754 -15.5716236104515 1.53229116768671
endloop
endfacet
facet normal -0.0 1.0 -0.0
outer loop
vertex 15.4371024040653 -15.5716236104515 1.28871205261693
vertex 12.4470072191754 -15.5716236104515 1.53229116768671
vertex 16.0950806507098 -15.5716236104515 1.71344697434985
endloop
endfacet
facet normal -0.0 1.0 -0.0
outer loop
vertex 16.0950806507098 -15.5716236104515 1.71344697434985
vertex 12.4470072191754 -15.5716236104515 1.53229116768671
vertex 11.866447487452 -15.5716236104515 2.05791986239238
endloop
endfacet
facet normal -0.0 1.0 -0.0
outer loop
vertex 16.0950806507098 -15.5716236104515 1.71344697434985
vertex 11.866447487452 -15.5716236104515 2.05791986239238
vertex 16.6207093454154 -15.5716236104515 2.29400670607329
endloop
endfacet
facet normal -0.0 1.0 -0.0
outer loop
vertex 16.6207093454154 -15.5716236104515 2.29400670607329
vertex 11.866447487452 -15.5716236104515 2.05791986239238
vertex 11.4417125657191 -15.5716236104515 2.71589810903682
endloop
endfacet
facet normal -0.0 1.0 -0.0
outer loop
vertex 16.6207093454154 -15.5716236104515 2.29400670607329
vertex 11.4417125657191 -15.5716236104515 2.71589810903682
vertex 16.9781677612806 -15.5716236104515 2.99082706149061
endloop
endfacet
facet normal -0.0 1.0 -0.0
outer loop
vertex 16.9781677612806 -15.5716236104515 2.99082706149061
vertex 11.4417125657191 -15.5716236104515 2.71589810903682
vertex 11.2017474369851 -15.5716236104515 3.4613857774717
endloop
endfacet
facet normal -0.0 1.0 -0.0
outer loop
vertex 16.9781677612806 -15.5716236104515 2.99082706149061
vertex 11.2017474369851 -15.5716236104515 3.4613857774717
vertex 17.143095697992 -15.5716236104515 3.75642088493022
endloop
endfacet
facet normal -0.0 1.0 -0.0
outer loop
vertex 17.143095697992 -15.5716236104515 3.75642088493022
vertex 11.2017474369851 -15.5716236104515 3.4613857774717
vertex 11.1629053282122 -15.5716236104515 4.2435791150698
endloop
endfacet
facet normal -0.0 1.0 -0.0
outer loop
vertex 17.143095697992 -15.5716236104515 3.75642088493022
vertex 11.1629053282122 -15.5716236104515 4.2435791150698
vertex 17.1042535892192 -15.5716236104515 4.53861422252832
endloop
endfacet
facet normal -0.0 1.0 -0.0
outer loop
vertex 17.1042535892192 -15.5716236104515 4.53861422252832
vertex 11.1629053282122 -15.5716236104515 4.2435791150698
vertex 11.3278332649237 -15.5716236104515 5.00917293850941
endloop
endfacet
facet normal -0.0 1.0 -0.0
outer loop
vertex 17.1042535892192 -15.5716236104515 4.53861422252832
vertex 11.3278332649237 -15.5716236104515 5.00917293850941
vertex 16.8642884604852 -15.5716236104515 5.2841018909632
endloop
endfacet
facet normal -0.0 1.0 -0.0
outer loop
vertex 16.8642884604852 -15.5716236104515 5.2841018909632
vertex 11.3278332649237 -15.5716236104515 5.00917293850941
vertex 11.6852916807888 -15.5716236104515 5.70599329392673
endloop
endfacet
facet normal -0.0 1.0 -0.0
outer loop
vertex 16.8642884604852 -15.5716236104515 5.2841018909632
vertex 11.6852916807888 -15.5716236104515 5.70599329392673
vertex 16.4395535387523 -15.5716236104515 5.94208013760765
endloop
endfacet
facet normal -0.0 1.0 -0.0
outer loop
vertex 16.4395535387523 -15.5716236104515 5.94208013760765
vertex 11.6852916807888 -15.5716236104515 5.70599329392673
vertex 12.2109203754945 -15.5716236104515 6.28655302565017
endloop
endfacet
facet normal -0.0 1.0 -0.0
outer loop
vertex 16.4395535387523 -15.5716236104515 5.94208013760765
vertex 12.2109203754945 -15.5716236104515 6.28655302565017
vertex 15.8589938070289 -15.5716236104515 6.4677088323133
endloop
endfacet
facet normal -0.0 1.0 -0.0
outer loop
vertex 15.8589938070289 -15.5716236104515 6.4677088323133
vertex 12.2109203754945 -15.5716236104515 6.28655302565017
vertex 12.8688986221389 -15.5716236104515 6.7112879473831
endloop
endfacet
facet normal -0.0 1.0 -0.0
outer loop
vertex 15.8589938070289 -15.5716236104515 6.4677088323133
vertex 12.8688986221389 -15.5716236104515 6.7112879473831
vertex 15.1621734516115 -15.5716236104515 6.82516724817848
endloop
endfacet
facet normal -0.0 1.0 -0.0
outer loop
vertex 15.1621734516115 -15.5716236104515 6.82516724817848
vertex 12.8688986221389 -15.5716236104515 6.7112879473831
vertex 13.6143862905738 -15.5716236104515 6.95125307611704
endloop
endfacet
facet normal -0.0 1.0 -0.0
outer loop
vertex 15.1621734516115 -15.5716236104515 6.82516724817848
vertex 13.6143862905738 -15.5716236104515 6.95125307611704
vertex 14.3965796281719 -15.5716236104515 6.99009518488992
endloop
endfacet
facet normal -0.647360045869207 0.0 0.762184341883391
outer loop
vertex 16.0950806507098 -15.5716236104515 1.71344697434985
vertex 15.4371024040653 -7.57162361045146 1.28871205261693
vertex 15.4371024040653 -15.5716236104515 1.28871205261693
endloop
endfacet
facet normal -0.428033963654394 0.0 0.903762649127695
outer loop
vertex 15.4371024040653 -7.57162361045146 1.28871205261693
vertex 16.0950806507098 -15.5716236104515 1.71344697434985
vertex 16.0950806507098 -7.57162361045146 1.71344697434985
endloop
endfacet
facet normal -0.428033963654394 0.0 0.903762649127695
outer loop
vertex 15.4371024040653 -15.5716236104515 1.28871205261693
vertex 14.6916147356304 -7.57162361045146 1.04874692388298
vertex 14.6916147356304 -15.5716236104515 1.04874692388298
endloop
endfacet
facet normal -0.179538074176103 0.0 0.983751025372343
outer loop
vertex 14.6916147356304 -7.57162361045146 1.04874692388298
vertex 15.4371024040653 -15.5716236104515 1.28871205261693
vertex 15.4371024040653 -7.57162361045146 1.28871205261693
endloop
endfacet
facet normal -0.179538074176103 0.0 0.983751025372343
outer loop
vertex 14.6916147356304 -15.5716236104515 1.04874692388298
vertex 13.9094213980323 -7.57162361045146 1.0099048151101
vertex 13.9094213980323 -15.5716236104515 1.0099048151101
endloop
endfacet
facet normal 0.081193038356595 0.0 0.996698394963303
outer loop
vertex 13.9094213980323 -7.57162361045146 1.0099048151101
vertex 14.6916147356304 -15.5716236104515 1.04874692388298
vertex 14.6916147356304 -7.57162361045146 1.04874692388298
endloop
endfacet
facet normal 0.081193038356595 0.0 0.996698394963303
outer loop
vertex 13.9094213980323 -15.5716236104515 1.0099048151101
vertex 13.1438275745927 -7.57162361045146 1.17483275182154
vertex 13.1438275745927 -15.5716236104515 1.17483275182154
endloop
endfacet
facet normal 0.33639097950313 1.00631922392569e-18 0.941722416059491
outer loop
vertex 13.1438275745927 -7.57162361045146 1.17483275182154
vertex 13.9094213980323 -15.5716236104515 1.0099048151101
vertex 13.9094213980323 -7.57162361045146 1.0099048151101
endloop
endfacet
facet normal 0.33639097950313 1.00631922392569e-18 0.941722416059491
outer loop
vertex 13.1438275745927 -15.5716236104515 1.17483275182154
vertex 12.4470072191754 -7.57162361045146 1.53229116768671
vertex 12.4470072191754 -15.5716236104515 1.53229116768671
endloop
endfacet
facet normal 0.568664431308909 1.00631922392569e-18 0.822569610771098
outer loop
vertex 12.4470072191754 -7.57162361045146 1.53229116768671
vertex 13.1438275745927 -15.5716236104515 1.17483275182154
vertex 13.1438275745927 -7.57162361045146 1.17483275182154
endloop
endfacet
facet normal 0.568664431308909 1.00631922392569e-18 0.822569610771098
outer loop
vertex 12.4470072191754 -15.5716236104515 1.53229116768671
vertex 11.866447487452 -7.57162361045146 2.05791986239238
vertex 11.866447487452 -15.5716236104515 2.05791986239238
endloop
endfacet
facet normal 0.762184341883389 0.0 0.647360045869209
outer loop
vertex 11.866447487452 -7.57162361045146 2.05791986239238
vertex 12.4470072191754 -15.5716236104515 1.53229116768671
vertex 12.4470072191754 -7.57162361045146 1.53229116768671
endloop
endfacet
facet normal 0.762184341883389 0.0 0.647360045869209
outer loop
vertex 11.866447487452 -7.57162361045146 2.05791986239238
vertex 11.4417125657191 -15.5716236104515 2.71589810903682
vertex 11.866447487452 -15.5716236104515 2.05791986239238
endloop
endfacet
facet normal 0.903762649127692 0.0 0.428033963654401
outer loop
vertex 11.4417125657191 -15.5716236104515 2.71589810903682
vertex 11.866447487452 -7.57162361045146 2.05791986239238
vertex 11.4417125657191 -7.57162361045146 2.71589810903682
endloop
endfacet
facet normal 0.903762649127692 0.0 0.428033963654401
outer loop
vertex 11.4417125657191 -7.57162361045146 2.71589810903682
vertex 11.2017474369851 -15.5716236104515 3.4613857774717
vertex 11.4417125657191 -15.5716236104515 2.71589810903682
endloop
endfacet
facet normal 0.983751025372342 0.0 0.179538074176106
outer loop
vertex 11.2017474369851 -15.5716236104515 3.4613857774717
vertex 11.4417125657191 -7.57162361045146 2.71589810903682
vertex 11.2017474369851 -7.57162361045146 3.4613857774717
endloop
endfacet
facet normal 0.983751025372342 0.0 0.179538074176106
outer loop
vertex 11.2017474369851 -7.57162361045146 3.4613857774717
vertex 11.1629053282122 -15.5716236104515 4.2435791150698
vertex 11.2017474369851 -15.5716236104515 3.4613857774717
endloop
endfacet
facet normal 0.996698394963303 0.0 -0.081193038356597
outer loop
vertex 11.1629053282122 -15.5716236104515 4.2435791150698
vertex 11.2017474369851 -7.57162361045146 3.4613857774717
vertex 11.1629053282122 -7.57162361045146 4.2435791150698
endloop
endfacet
facet normal 0.996698394963303 0.0 -0.081193038356597
outer loop
vertex 11.1629053282122 -7.57162361045146 4.2435791150698
vertex 11.3278332649237 -15.5716236104515 5.00917293850941
vertex 11.1629053282122 -15.5716236104515 4.2435791150698
endloop
endfacet
facet normal 0.941722416059491 0.0 -0.336390979503128
outer loop
vertex 11.3278332649237 -15.5716236104515 5.00917293850941
vertex 11.1629053282122 -7.57162361045146 4.2435791150698
vertex 11.3278332649237 -7.57162361045146 5.00917293850941
endloop
endfacet
facet normal 0.941722416059491 0.0 -0.336390979503128
outer loop
vertex 11.3278332649237 -7.57162361045146 5.00917293850941
vertex 11.6852916807888 -15.5716236104515 5.70599329392673
vertex 11.3278332649237 -15.5716236104515 5.00917293850941
endloop
endfacet
facet normal 0.822569610771095 0.0 -0.568664431308913
outer loop
vertex 11.6852916807888 -15.5716236104515 5.70599329392673
vertex 11.3278332649237 -7.57162361045146 5.00917293850941
vertex 11.6852916807888 -7.57162361045146 5.70599329392673
endloop
endfacet
facet normal 0.822569610771095 0.0 -0.568664431308913
outer loop
vertex 11.6852916807888 -7.57162361045146 5.70599329392673
vertex 12.2109203754945 -15.5716236104515 6.28655302565017
vertex 11.6852916807888 -15.5716236104515 5.70599329392673
endloop
endfacet
facet normal 0.647360045869209 3.39843062004789e-32 -0.76218434188339
outer loop
vertex 12.2109203754945 -15.5716236104515 6.28655302565017
vertex 11.6852916807888 -7.57162361045146 5.70599329392673
vertex 12.2109203754945 -7.57162361045146 6.28655302565017
endloop
endfacet
facet normal 0.428033963654401 3.3984306200479e-32 -0.903762649127692
outer loop
vertex 12.8688986221389 -7.57162361045146 6.7112879473831
vertex 12.2109203754945 -15.5716236104515 6.28655302565017
vertex 12.2109203754945 -7.57162361045146 6.28655302565017
endloop
endfacet
facet normal 0.647360045869209 3.39843062004789e-32 -0.76218434188339
outer loop
vertex 12.2109203754945 -15.5716236104515 6.28655302565017
vertex 12.8688986221389 -7.57162361045146 6.7112879473831
vertex 12.8688986221389 -15.5716236104515 6.7112879473831
endloop
endfacet
facet normal 0.179538074176102 0.0 -0.983751025372343
outer loop
vertex 13.6143862905738 -7.57162361045146 6.95125307611704
vertex 12.8688986221389 -15.5716236104515 6.7112879473831
vertex 12.8688986221389 -7.57162361045146 6.7112879473831
endloop
endfacet
facet normal 0.428033963654401 3.3984306200479e-32 -0.903762649127692
outer loop
vertex 12.8688986221389 -15.5716236104515 6.7112879473831
vertex 13.6143862905738 -7.57162361045146 6.95125307611704
vertex 13.6143862905738 -15.5716236104515 6.95125307611704
endloop
endfacet
facet normal -0.0811930383565986 0.0 -0.996698394963303
outer loop
vertex 14.3965796281719 -7.57162361045146 6.99009518488992
vertex 13.6143862905738 -15.5716236104515 6.95125307611704
vertex 13.6143862905738 -7.57162361045146 6.95125307611704
endloop
endfacet
facet normal 0.179538074176102 0.0 -0.983751025372343
outer loop
vertex 13.6143862905738 -15.5716236104515 6.95125307611704
vertex 14.3965796281719 -7.57162361045146 6.99009518488992
vertex 14.3965796281719 -15.5716236104515 6.99009518488992
endloop
endfacet
facet normal -0.336390979503131 0.0 -0.941722416059491
outer loop
vertex 15.1621734516115 -7.57162361045146 6.82516724817848
vertex 14.3965796281719 -15.5716236104515 6.99009518488992
vertex 14.3965796281719 -7.57162361045146 6.99009518488992
endloop
endfacet
facet normal -0.0811930383565986 0.0 -0.996698394963303
outer loop
vertex 14.3965796281719 -15.5716236104515 6.99009518488992
vertex 15.1621734516115 -7.57162361045146 6.82516724817848
vertex 15.1621734516115 -15.5716236104515 6.82516724817848
endloop
endfacet
facet normal -0.568664431308904 0.0 -0.822569610771101
outer loop
vertex 15.8589938070289 -7.57162361045146 6.4677088323133
vertex 15.1621734516115 -15.5716236104515 6.82516724817848
vertex 15.1621734516115 -7.57162361045146 6.82516724817848
endloop
endfacet
facet normal -0.336390979503131 0.0 -0.941722416059491
outer loop
vertex 15.1621734516115 -15.5716236104515 6.82516724817848
vertex 15.8589938070289 -7.57162361045146 6.4677088323133
vertex 15.8589938070289 -15.5716236104515 6.4677088323133
endloop
endfacet
facet normal -0.762184341883388 0.0 -0.647360045869211
outer loop
vertex 16.4395535387523 -7.57162361045146 5.94208013760765
vertex 15.8589938070289 -15.5716236104515 6.4677088323133
vertex 15.8589938070289 -7.57162361045146 6.4677088323133
endloop
endfacet
facet normal -0.568664431308904 0.0 -0.822569610771101
outer loop
vertex 15.8589938070289 -15.5716236104515 6.4677088323133
vertex 16.4395535387523 -7.57162361045146 5.94208013760765
vertex 16.4395535387523 -15.5716236104515 5.94208013760765
endloop
endfacet
facet normal -0.762184341883388 0.0 -0.647360045869211
outer loop
vertex 16.4395535387523 -7.57162361045146 5.94208013760765
vertex 16.8642884604852 -15.5716236104515 5.2841018909632
vertex 16.4395535387523 -15.5716236104515 5.94208013760765
endloop
endfacet
facet normal -0.903762649127693 0.0 -0.428033963654397
outer loop
vertex 16.8642884604852 -15.5716236104515 5.2841018909632
vertex 16.4395535387523 -7.57162361045146 5.94208013760765
vertex 16.8642884604852 -7.57162361045146 5.2841018909632
endloop
endfacet
facet normal -0.903762649127693 0.0 -0.428033963654397
outer loop
vertex 16.8642884604852 -7.57162361045146 5.2841018909632
vertex 17.1042535892192 -15.5716236104515 4.53861422252832
vertex 16.8642884604852 -15.5716236104515 5.2841018909632
endloop
endfacet
facet normal -0.983751025372344 -6.88136155768779e-20 -0.1795380741761
outer loop
vertex 17.1042535892192 -15.5716236104515 4.53861422252832
vertex 16.8642884604852 -7.57162361045146 5.2841018909632
vertex 17.1042535892192 -7.57162361045146 4.53861422252832
endloop
endfacet
facet normal -0.983751025372344 -6.88136155768779e-20 -0.1795380741761
outer loop
vertex 17.1042535892192 -7.57162361045146 4.53861422252832
vertex 17.143095697992 -15.5716236104515 3.75642088493022
vertex 17.1042535892192 -15.5716236104515 4.53861422252832
endloop
endfacet
facet normal -0.996698394963302 -6.88136155768778e-20 0.0811930383566046
outer loop
vertex 17.143095697992 -15.5716236104515 3.75642088493022
vertex 17.1042535892192 -7.57162361045146 4.53861422252832
vertex 17.143095697992 -7.57162361045146 3.75642088493022
endloop
endfacet
facet normal -0.996698394963302 -6.88136155768778e-20 0.0811930383566046
outer loop
vertex 17.143095697992 -7.57162361045146 3.75642088493022
vertex 16.9781677612806 -15.5716236104515 2.99082706149061
vertex 17.143095697992 -15.5716236104515 3.75642088493022
endloop
endfacet
facet normal -0.941722416059491 0.0 0.336390979503128
outer loop
vertex 16.9781677612806 -15.5716236104515 2.99082706149061
vertex 17.143095697992 -7.57162361045146 3.75642088493022
vertex 16.9781677612806 -7.57162361045146 2.99082706149061
endloop
endfacet
facet normal -0.941722416059491 0.0 0.336390979503128
outer loop
vertex 16.9781677612806 -7.57162361045146 2.99082706149061
vertex 16.6207093454154 -15.5716236104515 2.29400670607329
vertex 16.9781677612806 -15.5716236104515 2.99082706149061
endloop
endfacet
facet normal -0.822569610771101 0.0 0.568664431308904
outer loop
vertex 16.6207093454154 -15.5716236104515 2.29400670607329
vertex 16.9781677612806 -7.57162361045146 2.99082706149061
vertex 16.6207093454154 -7.57162361045146 2.29400670607329
endloop
endfacet
facet normal -0.822569610771101 0.0 0.568664431308904
outer loop
vertex 16.6207093454154 -7.57162361045146 2.29400670607329
vertex 16.0950806507098 -15.5716236104515 1.71344697434985
vertex 16.6207093454154 -15.5716236104515 2.29400670607329
endloop
endfacet
facet normal -0.647360045869207 0.0 0.762184341883391
outer loop
vertex 16.0950806507098 -15.5716236104515 1.71344697434985
vertex 16.6207093454154 -7.57162361045146 2.29400670607329
vertex 16.0950806507098 -7.57162361045146 1.71344697434985
endloop
endfacet
facet normal 1.65880381326347e-16 -1.0 -1.70907059548358e-16
outer loop
vertex 22.1530005131021 -31.5716236104515 6.00000000000001
vertex 20.1530005131021 -31.5716236104515 8.45989944764369e-15
vertex 22.1530005131021 -31.5716236104515 8.45989944764369e-15
endloop
endfacet
facet normal 1.65880381326347e-16 -1.0 -1.70907059548358e-16
outer loop
vertex 20.1530005131021 -31.5716236104515 8.45989944764369e-15
vertex 22.1530005131021 -31.5716236104515 6.00000000000001
vertex 20.1530005131021 -31.5716236104515 6.00000000000001
endloop
endfacet
facet normal 1.65880381326347e-16 -1.0 -1.70907059548358e-16
outer loop
vertex 20.1530005131021 -31.5716236104515 6.00000000000001
vertex 22.1530005131021 -31.5716236104515 6.00000000000001
vertex 16.1530005131021 -31.5716236104515 6.00000000000001
endloop
endfacet
facet normal 1.65880381326347e-16 -1.0 -1.70907059548358e-16
outer loop
vertex 16.1530005131021 -31.5716236104515 6.00000000000001
vertex 22.1530005131021 -31.5716236104515 6.00000000000001
vertex 12.1530005131021 -31.5716236104515 6.00000000000001
endloop
endfacet
facet normal 1.65880381326347e-16 -1.0 -1.70907059548358e-16
outer loop
vertex 12.1530005131021 -31.5716236104515 6.00000000000001
vertex 22.1530005131021 -31.5716236104515 6.00000000000001
vertex 8.15300051310213 -31.5716236104515 6.00000000000001
endloop
endfacet
facet normal 1.65880381326347e-16 -1.0 -1.70907059548358e-16
outer loop
vertex 8.15300051310213 -31.5716236104515 6.00000000000001
vertex 6.15300051310214 -31.5716236104515 8.45989944764369e-15
vertex 8.15300051310213 -31.5716236104515 8.45989944764369e-15
endloop
endfacet
facet normal 1.65880381326347e-16 -1.0 -1.70907059548358e-16
outer loop
vertex 6.15300051310214 -31.5716236104515 8.45989944764369e-15
vertex 8.15300051310213 -31.5716236104515 6.00000000000001
vertex 6.15300051310214 -31.5716236104515 6.00000000000001
endloop
endfacet
facet normal 1.65880381326347e-16 -1.0 -1.70907059548358e-16
outer loop
vertex 6.15300051310214 -31.5716236104515 6.00000000000001
vertex 8.15300051310213 -31.5716236104515 6.00000000000001
vertex 22.1530005131021 -31.5716236104515 6.00000000000001
endloop
endfacet
facet normal 1.65880381326347e-16 -1.0 -1.70907059548358e-16
outer loop
vertex 6.15300051310214 -31.5716236104515 6.00000000000001
vertex 22.1530005131021 -31.5716236104515 6.00000000000001
vertex 22.1530005131021 -31.5716236104515 8.00000000000001
endloop
endfacet
facet normal 1.65880381326347e-16 -1.0 -1.70907059548358e-16
outer loop
vertex 6.15300051310214 -31.5716236104515 6.00000000000001
vertex 22.1530005131021 -31.5716236104515 8.00000000000001
vertex 6.15300051310214 -31.5716236104515 8.00000000000001
endloop
endfacet
facet normal 1.65880381326347e-16 -1.0 -1.70907059548358e-16
outer loop
vertex 16.1530005131021 -31.5716236104515 6.00000000000001
vertex 12.1530005131021 -31.5716236104515 8.45989944764369e-15
vertex 16.1530005131021 -31.5716236104515 8.45989944764369e-15
endloop
endfacet
facet normal 1.65880381326347e-16 -1.0 -1.70907059548358e-16
outer loop
vertex 12.1530005131021 -31.5716236104515 8.45989944764369e-15
vertex 16.1530005131021 -31.5716236104515 6.00000000000001
vertex 12.1530005131021 -31.5716236104515 6.00000000000001
endloop
endfacet
facet normal 0.0 -1.0 0.0
outer loop
vertex 20.1530005131021 -67.5716236104514 8.00000000000001
vertex 16.1530005131021 -67.5716236104514 8.45989944764369e-15
vertex 20.1530005131021 -67.5716236104514 8.45989944764369e-15
endloop
endfacet
facet normal 0.0 -1.0 0.0
outer loop
vertex 16.1530005131021 -67.5716236104514 8.45989944764369e-15
vertex 20.1530005131021 -67.5716236104514 8.00000000000001
vertex 16.1530005131021 -67.5716236104514 8.00000000000001
endloop
endfacet
facet normal 1.0 -0.0 -0.0
outer loop
vertex 20.1530005131021 -67.5716236104514 8.45989944764369e-15
vertex 20.1530005131021 -63.5716236104514 6.00000000000001
vertex 20.1530005131021 -67.5716236104514 8.00000000000001
endloop
endfacet
facet normal 1.0 -0.0 -0.0
outer loop
vertex 20.1530005131021 -63.5716236104514 6.00000000000001
vertex 20.1530005131021 -67.5716236104514 8.45989944764369e-15
vertex 20.1530005131021 -31.5716236104515 8.45989944764369e-15
endloop
endfacet
facet normal 1.0 -0.0 -0.0
outer loop
vertex 20.1530005131021 -63.5716236104514 6.00000000000001
vertex 20.1530005131021 -31.5716236104515 8.45989944764369e-15
vertex 20.1530005131021 -31.5716236104515 6.00000000000001
endloop
endfacet
facet normal 1.0 -0.0 -0.0
outer loop
vertex 20.1530005131021 -63.5716236104514 8.00000000000001
vertex 20.1530005131021 -67.5716236104514 8.00000000000001
vertex 20.1530005131021 -63.5716236104514 6.00000000000001
endloop
endfacet
facet normal -0.0 -0.0 1.0
outer loop
vertex 20.1530005131021 -63.5716236104514 6.00000000000001
vertex 16.1530005131021 -31.5716236104515 6.00000000000001
vertex 16.1530005131021 -63.5716236104514 6.00000000000001
endloop
endfacet
facet normal -0.0 -0.0 1.0
outer loop
vertex 16.1530005131021 -31.5716236104515 6.00000000000001
vertex 20.1530005131021 -63.5716236104514 6.00000000000001
vertex 20.1530005131021 -31.5716236104515 6.00000000000001
endloop
endfacet
facet normal -1.0 0.0 0.0
outer loop
vertex 16.1530005131021 -63.5716236104514 8.00000000000001
vertex 16.1530005131021 -67.5716236104514 8.45989944764369e-15
vertex 16.1530005131021 -67.5716236104514 8.00000000000001
endloop
endfacet
facet normal -1.0 0.0 0.0
outer loop
vertex 16.1530005131021 -67.5716236104514 8.45989944764369e-15
vertex 16.1530005131021 -63.5716236104514 8.00000000000001
vertex 16.1530005131021 -63.5716236104514 6.00000000000001
endloop
endfacet
facet normal -1.0 0.0 0.0
outer loop
vertex 16.1530005131021 -67.5716236104514 8.45989944764369e-15
vertex 16.1530005131021 -63.5716236104514 6.00000000000001
vertex 16.1530005131021 -31.5716236104515 8.45989944764369e-15
endloop
endfacet
facet normal -1.0 0.0 0.0
outer loop
vertex 16.1530005131021 -31.5716236104515 8.45989944764369e-15
vertex 16.1530005131021 -63.5716236104514 6.00000000000001
vertex 16.1530005131021 -31.5716236104515 6.00000000000001
endloop
endfacet
facet normal 0.0 -1.0 0.0
outer loop
vertex 12.1530005131021 -67.5716236104514 8.00000000000001
vertex 8.15300051310213 -67.5716236104514 8.45989944764369e-15
vertex 12.1530005131021 -67.5716236104514 8.45989944764369e-15
endloop
endfacet
facet normal 0.0 -1.0 0.0
outer loop
vertex 8.15300051310213 -67.5716236104514 8.45989944764369e-15
vertex 12.1530005131021 -67.5716236104514 8.00000000000001
vertex 8.15300051310213 -67.5716236104514 8.00000000000001
endloop
endfacet
facet normal 1.0 -0.0 -0.0
outer loop
vertex 12.1530005131021 -67.5716236104514 8.45989944764369e-15
vertex 12.1530005131021 -63.5716236104514 6.00000000000001
vertex 12.1530005131021 -67.5716236104514 8.00000000000001
endloop
endfacet
facet normal 1.0 -0.0 -0.0
outer loop
vertex 12.1530005131021 -63.5716236104514 6.00000000000001
vertex 12.1530005131021 -67.5716236104514 8.45989944764369e-15
vertex 12.1530005131021 -31.5716236104515 8.45989944764369e-15
endloop
endfacet
facet normal 1.0 -0.0 -0.0
outer loop
vertex 12.1530005131021 -63.5716236104514 6.00000000000001
vertex 12.1530005131021 -31.5716236104515 8.45989944764369e-15
vertex 12.1530005131021 -31.5716236104515 6.00000000000001
endloop
endfacet
facet normal 1.0 -0.0 -0.0
outer loop
vertex 12.1530005131021 -63.5716236104514 8.00000000000001
vertex 12.1530005131021 -67.5716236104514 8.00000000000001
vertex 12.1530005131021 -63.5716236104514 6.00000000000001
endloop
endfacet
facet normal -0.0 -0.0 1.0
outer loop
vertex 12.1530005131021 -63.5716236104514 6.00000000000001
vertex 8.15300051310213 -31.5716236104515 6.00000000000001
vertex 8.15300051310213 -63.5716236104514 6.00000000000001
endloop
endfacet
facet normal -0.0 -0.0 1.0
outer loop
vertex 8.15300051310213 -31.5716236104515 6.00000000000001
vertex 12.1530005131021 -63.5716236104514 6.00000000000001
vertex 12.1530005131021 -31.5716236104515 6.00000000000001
endloop
endfacet
facet normal -1.0 0.0 0.0
outer loop
vertex 8.15300051310213 -63.5716236104514 8.00000000000001
vertex 8.15300051310213 -67.5716236104514 8.45989944764369e-15
vertex 8.15300051310213 -67.5716236104514 8.00000000000001
endloop
endfacet
facet normal -1.0 0.0 0.0
outer loop
vertex 8.15300051310213 -67.5716236104514 8.45989944764369e-15
vertex 8.15300051310213 -63.5716236104514 8.00000000000001
vertex 8.15300051310213 -63.5716236104514 6.00000000000001
endloop
endfacet
facet normal -1.0 0.0 0.0
outer loop
vertex 8.15300051310213 -67.5716236104514 8.45989944764369e-15
vertex 8.15300051310213 -63.5716236104514 6.00000000000001
vertex 8.15300051310213 -31.5716236104515 8.45989944764369e-15
endloop
endfacet
facet normal -1.0 0.0 0.0
outer loop
vertex 8.15300051310213 -31.5716236104515 8.45989944764369e-15
vertex 8.15300051310213 -63.5716236104514 6.00000000000001
vertex 8.15300051310213 -31.5716236104515 6.00000000000001
endloop
endfacet
facet normal -1.0 0.0 0.0
outer loop
vertex 6.15300051310214 -31.5716236104515 8.00000000000001
vertex 6.15300051310214 -7.57162361045146 6.00000000000001
vertex 6.15300051310214 -31.5716236104515 6.00000000000001
endloop
endfacet
facet normal -1.0 0.0 0.0
outer loop
vertex 6.15300051310214 -7.57162361045146 6.00000000000001
vertex 6.15300051310214 -31.5716236104515 8.00000000000001
vertex 6.15300051310214 -7.57162361045146 8.00000000000001
endloop
endfacet
facet normal -1.0 -1.01150971656609e-15 1.16449949182159e-32
outer loop
vertex 2.15300051310212 -7.57162361045146 6.00000000000001
vertex 2.15300051310217 -53.5716236104514 -8.45989944764369e-15
vertex 2.15300051310217 -53.5716236104514 5.99999999999999
endloop
endfacet
facet normal -1.0 -1.01150971656609e-15 1.16449949182159e-32
outer loop
vertex 2.15300051310217 -53.5716236104514 -8.45989944764369e-15
vertex 2.15300051310212 -7.57162361045146 6.00000000000001
vertex 2.15300051310212 -7.57162361045146 8.45989944764369e-15
endloop
endfacet
facet normal -8.57980353430315e-16 -4.25881552246211e-16 1.0
outer loop
vertex 6.15300051310218 -53.5716236104514 5.99999999999999
vertex 6.15300051310214 -31.5716236104515 6.00000000000001
vertex 2.15300051310217 -53.5716236104514 5.99999999999999
endloop
endfacet
facet normal -8.57980353430315e-16 -4.25881552246211e-16 1.0
outer loop
vertex 2.15300051310217 -53.5716236104514 5.99999999999999
vertex 6.15300051310214 -7.57162361045146 6.00000000000001
vertex 2.15300051310212 -7.57162361045146 6.00000000000001
endloop
endfacet
facet normal -8.57980353430315e-16 -4.25881552246211e-16 1.0
outer loop
vertex 6.15300051310214 -7.57162361045146 6.00000000000001
vertex 2.15300051310217 -53.5716236104514 5.99999999999999
vertex 6.15300051310214 -31.5716236104515 6.00000000000001
endloop
endfacet
facet normal 2.81996648254789e-15 -1.0 -1.87997765503193e-15
outer loop
vertex 6.15300051310218 -53.5716236104514 5.99999999999999
vertex 2.15300051310217 -53.5716236104514 -8.45989944764369e-15
vertex 6.15300051310218 -53.5716236104514 -8.45989944764369e-15
endloop
endfacet
facet normal 2.81996648254789e-15 -1.0 -1.87997765503193e-15
outer loop
vertex 2.15300051310217 -53.5716236104514 -8.45989944764369e-15
vertex 6.15300051310218 -53.5716236104514 5.99999999999999
vertex 2.15300051310217 -53.5716236104514 5.99999999999999
endloop
endfacet
facet normal 1.0 1.79452412525776e-15 4.92695696893143e-30
outer loop
vertex 6.15300051310218 -53.5716236104514 -8.45989944764369e-15
vertex 6.15300051310214 -31.5716236104515 6.00000000000001
vertex 6.15300051310218 -53.5716236104514 5.99999999999999
endloop
endfacet
facet normal 1.0 1.79452412525776e-15 4.92695696893143e-30
outer loop
vertex 6.15300051310214 -31.5716236104515 6.00000000000001
vertex 6.15300051310218 -53.5716236104514 -8.45989944764369e-15
vertex 6.15300051310214 -31.5716236104515 8.45989944764369e-15
endloop
endfacet
facet normal 1.0 -0.0 -0.0
outer loop
vertex 22.1530005131021 -7.57162361045146 6.00000000000001
vertex 22.1530005131021 -31.5716236104515 8.00000000000001
vertex 22.1530005131021 -31.5716236104515 6.00000000000001
endloop
endfacet
facet normal 1.0 -0.0 -0.0
outer loop
vertex 22.1530005131021 -31.5716236104515 8.00000000000001
vertex 22.1530005131021 -7.57162361045146 6.00000000000001
vertex 22.1530005131021 -7.57162361045146 8.00000000000001
endloop
endfacet
facet normal 1.0 -0.0 -0.0
outer loop
vertex 26.1530005131021 -7.57162361045146 8.45989944764369e-15
vertex 26.1530005131021 -53.5716236104514 6.0
vertex 26.1530005131021 -53.5716236104514 0.0
endloop
endfacet
facet normal 1.0 -0.0 -0.0
outer loop
vertex 26.1530005131021 -53.5716236104514 6.0
vertex 26.1530005131021 -7.57162361045146 8.45989944764369e-15
vertex 26.1530005131021 -7.57162361045146 6.00000000000001
endloop
endfacet
facet normal 4.9027448767447e-16 -2.43360886997835e-16 1.0
outer loop
vertex 26.1530005131021 -53.5716236104514 6.0
vertex 22.1530005131021 -31.5716236104515 6.00000000000001
vertex 22.1530005131021 -53.5716236104514 6.0
endloop
endfacet
facet normal 4.9027448767447e-16 -2.43360886997835e-16 1.0
outer loop
vertex 22.1530005131021 -31.5716236104515 6.00000000000001
vertex 26.1530005131021 -53.5716236104514 6.0
vertex 22.1530005131021 -7.57162361045146 6.00000000000001
endloop
endfacet
facet normal 4.9027448767447e-16 -2.43360886997835e-16 1.0
outer loop
vertex 22.1530005131021 -7.57162361045146 6.00000000000001
vertex 26.1530005131021 -53.5716236104514 6.0
vertex 26.1530005131021 -7.57162361045146 6.00000000000001
endloop
endfacet
facet normal -2.8199664825479e-15 -1.0 -1.87997765503193e-15
outer loop
vertex 26.1530005131021 -53.5716236104514 6.0
vertex 22.1530005131021 -53.5716236104514 0.0
vertex 26.1530005131021 -53.5716236104514 0.0
endloop
endfacet
facet normal -2.8199664825479e-15 -1.0 -1.87997765503193e-15
outer loop
vertex 22.1530005131021 -53.5716236104514 0.0
vertex 26.1530005131021 -53.5716236104514 6.0
vertex 22.1530005131021 -53.5716236104514 6.0
endloop
endfacet
facet normal -1.0 0.0 0.0
outer loop
vertex 22.1530005131021 -31.5716236104515 6.00000000000001
vertex 22.1530005131021 -53.5716236104514 0.0
vertex 22.1530005131021 -53.5716236104514 6.0
endloop
endfacet
facet normal -1.0 0.0 0.0
outer loop
vertex 22.1530005131021 -53.5716236104514 0.0
vertex 22.1530005131021 -31.5716236104515 6.00000000000001
vertex 22.1530005131021 -31.5716236104515 8.45989944764369e-15
endloop
endfacet
facet normal -0.0 -0.0 1.0
outer loop
vertex 12.1530005131021 -67.5716236104514 8.00000000000001
vertex 8.15300051310213 -63.5716236104514 8.00000000000001
vertex 8.15300051310213 -67.5716236104514 8.00000000000001
endloop
endfacet
facet normal -0.0 -0.0 1.0
outer loop
vertex 8.15300051310213 -63.5716236104514 8.00000000000001
vertex 12.1530005131021 -67.5716236104514 8.00000000000001
vertex 12.1530005131021 -63.5716236104514 8.00000000000001
endloop
endfacet
facet normal -0.0 1.0 -0.0
outer loop
vertex 8.15300051310213 -63.5716236104514 8.00000000000001
vertex 12.1530005131021 -63.5716236104514 6.00000000000001
vertex 8.15300051310213 -63.5716236104514 6.00000000000001
endloop
endfacet
facet normal -0.0 1.0 -0.0
outer loop
vertex 12.1530005131021 -63.5716236104514 6.00000000000001
vertex 8.15300051310213 -63.5716236104514 8.00000000000001
vertex 12.1530005131021 -63.5716236104514 8.00000000000001
endloop
endfacet
facet normal -0.0 -0.0 1.0
outer loop
vertex 20.1530005131021 -67.5716236104514 8.00000000000001
vertex 16.1530005131021 -63.5716236104514 8.00000000000001
vertex 16.1530005131021 -67.5716236104514 8.00000000000001
endloop
endfacet
facet normal -0.0 -0.0 1.0
outer loop
vertex 16.1530005131021 -63.5716236104514 8.00000000000001
vertex 20.1530005131021 -67.5716236104514 8.00000000000001
vertex 20.1530005131021 -63.5716236104514 8.00000000000001
endloop
endfacet
facet normal -0.0 1.0 -0.0
outer loop
vertex 16.1530005131021 -63.5716236104514 8.00000000000001
vertex 20.1530005131021 -63.5716236104514 6.00000000000001
vertex 16.1530005131021 -63.5716236104514 6.00000000000001
endloop
endfacet
facet normal -0.0 1.0 -0.0
outer loop
vertex 20.1530005131021 -63.5716236104514 6.00000000000001
vertex 16.1530005131021 -63.5716236104514 8.00000000000001
vertex 20.1530005131021 -63.5716236104514 8.00000000000001
endloop
endfacet
endsolid Enderman Body
