solid Pumpkin
facet normal 1.23373533611471e-15 1.76247905159245e-16 1.0
outer loop
vertex 4.22994972382185e-15 -15.9999999999999 16.0
vertex 5.08686789827622 -8.71670172171297 16.0
vertex 5.00063441231615 -7.93830663392278 16.0
endloop
endfacet
facet normal 1.23373533611471e-15 1.76247905159245e-16 1.0
outer loop
vertex 5.08686789827622 -8.71670172171297 16.0
vertex 4.22994972382185e-15 -15.9999999999999 16.0
vertex 5.37162652279035 -9.44625477157406 16.0
endloop
endfacet
facet normal 1.23373533611471e-15 1.76247905159245e-16 1.0
outer loop
vertex 5.37162652279035 -9.44625477157406 16.0
vertex 4.22994972382185e-15 -15.9999999999999 16.0
vertex 5.77871522273067 -9.99999999999996 16.0
endloop
endfacet
facet normal 1.23373533611471e-15 1.76247905159245e-16 1.0
outer loop
vertex 5.77871522273067 -9.99999999999996 16.0
vertex 4.22994972382185e-15 -15.9999999999999 16.0
vertex 15.9999999999999 -15.9999999999999 16.0
endloop
endfacet
facet normal 1.23373533611471e-15 1.76247905159245e-16 1.0
outer loop
vertex 5.77871522273067 -9.99999999999996 16.0
vertex 15.9999999999999 -15.9999999999999 16.0
vertex 10.2089316596553 -9.99999999999997 16.0
endloop
endfacet
facet normal 1.23373533611471e-15 1.76247905159245e-16 1.0
outer loop
vertex 10.2089316596553 -9.99999999999997 16.0
vertex 15.9999999999999 -15.9999999999999 16.0
vertex 10.5666801111324 -9.55311081610972 16.0
endloop
endfacet
facet normal 1.23373533611471e-15 1.76247905159245e-16 1.0
outer loop
vertex 10.5666801111324 -9.55311081610972 16.0
vertex 15.9999999999999 -15.9999999999999 16.0
vertex 10.8811972655293 -8.8358841529223 16.0
endloop
endfacet
facet normal 1.23373533611471e-15 1.76247905159245e-16 1.0
outer loop
vertex 10.8811972655293 -8.8358841529223 16.0
vertex 15.9999999999999 -15.9999999999999 16.0
vertex 10.9993655876838 -8.06169336607715 16.0
endloop
endfacet
facet normal 1.23373533611471e-15 1.76247905159245e-16 1.0
outer loop
vertex -1.69197988952874e-14 1.69197988952874e-14 16.0
vertex 6.55374522842589 -5.37162652279032 16.0
vertex 15.9999999999999 -5.63993296509579e-15 16.0
endloop
endfacet
facet normal 1.23373533611471e-15 1.76247905159245e-16 1.0
outer loop
vertex 6.55374522842589 -5.37162652279032 16.0
vertex -1.69197988952874e-14 1.69197988952874e-14 16.0
vertex 5.92275205119858 -5.83550445618373 16.0
endloop
endfacet
facet normal 1.23373533611471e-15 1.76247905159245e-16 1.0
outer loop
vertex 5.92275205119858 -5.83550445618373 16.0
vertex -1.69197988952874e-14 1.69197988952874e-14 16.0
vertex 5.43331988886754 -6.4468891838902 16.0
endloop
endfacet
facet normal 1.23373533611471e-15 1.76247905159245e-16 1.0
outer loop
vertex 5.43331988886754 -6.4468891838902 16.0
vertex -1.69197988952874e-14 1.69197988952874e-14 16.0
vertex 4.22994972382185e-15 -15.9999999999999 16.0
endloop
endfacet
facet normal 1.23373533611471e-15 1.76247905159245e-16 1.0
outer loop
vertex 5.43331988886754 -6.4468891838902 16.0
vertex 4.22994972382185e-15 -15.9999999999999 16.0
vertex 5.11880273447074 -7.16411584707759 16.0
endloop
endfacet
facet normal 1.23373533611471e-15 1.76247905159245e-16 1.0
outer loop
vertex 5.11880273447074 -7.16411584707759 16.0
vertex 4.22994972382185e-15 -15.9999999999999 16.0
vertex 5.00063441231615 -7.93830663392278 16.0
endloop
endfacet
facet normal 1.23373533611471e-15 1.76247905159245e-16 1.0
outer loop
vertex 15.9999999999999 -5.63993296509579e-15 16.0
vertex 6.55374522842589 -5.37162652279032 16.0
vertex 7.28329827828696 -5.08686789827619 16.0
endloop
endfacet
facet normal 1.23373533611471e-15 1.76247905159245e-16 1.0
outer loop
vertex 15.9999999999999 -5.63993296509579e-15 16.0
vertex 7.28329827828696 -5.08686789827619 16.0
vertex 8.06169336607719 -5.00063441231612 16.0
endloop
endfacet
facet normal 1.23373533611471e-15 1.76247905159245e-16 1.0
outer loop
vertex 15.9999999999999 -5.63993296509579e-15 16.0
vertex 8.06169336607719 -5.00063441231612 16.0
vertex 8.83588415292236 -5.11880273447071 16.0
endloop
endfacet
facet normal 1.23373533611471e-15 1.76247905159245e-16 1.0
outer loop
vertex 15.9999999999999 -5.63993296509579e-15 16.0
vertex 8.83588415292236 -5.11880273447071 16.0
vertex 9.55311081610974 -5.43331988886751 16.0
endloop
endfacet
facet normal 1.23373533611471e-15 1.76247905159245e-16 1.0
outer loop
vertex 15.9999999999999 -5.63993296509579e-15 16.0
vertex 9.55311081610974 -5.43331988886751 16.0
vertex 10.1644955438162 -5.92275205119854 16.0
endloop
endfacet
facet normal 1.23373533611471e-15 1.76247905159245e-16 1.0
outer loop
vertex 15.9999999999999 -5.63993296509579e-15 16.0
vertex 10.1644955438162 -5.92275205119854 16.0
vertex 10.6283734772096 -6.55374522842588 16.0
endloop
endfacet
facet normal 1.23373533611471e-15 1.76247905159245e-16 1.0
outer loop
vertex 15.9999999999999 -5.63993296509579e-15 16.0
vertex 10.6283734772096 -6.55374522842588 16.0
vertex 10.9131321017238 -7.28329827828692 16.0
endloop
endfacet
facet normal 1.23373533611471e-15 1.76247905159245e-16 1.0
outer loop
vertex 15.9999999999999 -5.63993296509579e-15 16.0
vertex 10.9131321017238 -7.28329827828692 16.0
vertex 10.9993655876838 -8.06169336607715 16.0
endloop
endfacet
facet normal 1.23373533611471e-15 1.76247905159245e-16 1.0
outer loop
vertex 15.9999999999999 -5.63993296509579e-15 16.0
vertex 10.9993655876838 -8.06169336607715 16.0
vertex 15.9999999999999 -15.9999999999999 16.0
endloop
endfacet
facet normal -0.238900573904344 0.971044033907925 -8.5794857874082e-16
outer loop
vertex 7.28329827828697 -5.08686789827618 21.0
vertex 8.06169336607719 -5.00063441231612 16.0
vertex 7.28329827828696 -5.08686789827619 16.0
endloop
endfacet
facet normal 0.0205644553590625 0.999788529227949 -1.4906192652022e-15
outer loop
vertex 8.06169336607719 -5.00063441231612 16.0
vertex 7.28329827828697 -5.08686789827618 21.0
vertex 8.06169336607719 -5.00063441231612 21.0
endloop
endfacet
facet normal -0.482084923858029 0.876124492403219 -5.49942153752107e-16
outer loop
vertex 6.55374522842589 -5.37162652279032 16.0
vertex 7.28329827828697 -5.08686789827618 21.0
vertex 7.28329827828696 -5.08686789827619 16.0
endloop
endfacet
facet normal -0.238900573904344 0.971044033907925 -8.5794857874082e-16
outer loop
vertex 7.28329827828697 -5.08686789827618 21.0
vertex 6.55374522842589 -5.37162652279032 16.0
vertex 6.55374522842592 -5.3716265227903 21.0
endloop
endfacet
facet normal -0.692415982933802 0.721498514605413 1.69930347497234e-16
outer loop
vertex 5.92275205119857 -5.83550445618372 21.0
vertex 6.55374522842589 -5.37162652279032 16.0
vertex 5.92275205119858 -5.83550445618373 16.0
endloop
endfacet
facet normal -0.482084923858029 0.876124492403219 -5.49942153752107e-16
outer loop
vertex 6.55374522842589 -5.37162652279032 16.0
vertex 5.92275205119857 -5.83550445618372 21.0
vertex 6.55374522842592 -5.3716265227903 21.0
endloop
endfacet
facet normal -0.692415982933802 0.721498514605413 1.69930347497234e-16
outer loop
vertex 5.92275205119857 -5.83550445618372 21.0
vertex 5.43331988886754 -6.4468891838902 16.0
vertex 5.43331988886755 -6.44688918389021 21.0
endloop
endfacet
facet normal -0.855560037044153 0.517703605369914 2.33794362353761e-15
outer loop
vertex 5.43331988886754 -6.4468891838902 16.0
vertex 5.92275205119857 -5.83550445618372 21.0
vertex 5.92275205119858 -5.83550445618373 16.0
endloop
endfacet
facet normal -0.855560037044153 0.517703605369914 2.33794362353761e-15
outer loop
vertex 5.43331988886755 -6.44688918389021 21.0
vertex 5.11880273447074 -7.16411584707759 16.0
vertex 5.11880273447074 -7.16411584707761 21.0
endloop
endfacet
facet normal -0.960399088509753 0.278628050974119 2.57313163717702e-15
outer loop
vertex 5.11880273447074 -7.16411584707759 16.0
vertex 5.43331988886755 -6.44688918389021 21.0
vertex 5.43331988886754 -6.4468891838902 16.0
endloop
endfacet
facet normal -0.999788529227949 0.0205644553590618 1.16560941051087e-15
outer loop
vertex 5.00063441231615 -7.93830663392277 21.0
vertex 5.11880273447074 -7.16411584707759 16.0
vertex 5.00063441231615 -7.93830663392278 16.0
endloop
endfacet
facet normal -0.960399088509753 0.278628050974119 2.57313163717702e-15
outer loop
vertex 5.11880273447074 -7.16411584707759 16.0
vertex 5.00063441231615 -7.93830663392277 21.0
vertex 5.11880273447074 -7.16411584707761 21.0
endloop
endfacet
facet normal -0.999788529227949 0.0205644553590618 1.16560941051087e-15
outer loop
vertex 5.00063441231615 -7.93830663392277 21.0
vertex 5.08686789827622 -8.71670172171297 16.0
vertex 5.08686789827622 -8.716701721713 21.0
endloop
endfacet
facet normal -0.971044033907927 -0.238900573904337 -3.20484542826825e-16
outer loop
vertex 5.08686789827622 -8.71670172171297 16.0
vertex 5.00063441231615 -7.93830663392277 21.0
vertex 5.00063441231615 -7.93830663392278 16.0
endloop
endfacet
facet normal -0.971044033907926 -0.238900573904338 -3.20484542826832e-16
outer loop
vertex 5.08686789827622 -8.716701721713 21.0
vertex 5.37162652279035 -9.44625477157406 16.0
vertex 5.37162652279033 -9.44625477157406 21.0
endloop
endfacet
facet normal -0.876124492403216 -0.482084923858034 -1.5014787704112e-15
outer loop
vertex 5.37162652279035 -9.44625477157406 16.0
vertex 5.08686789827622 -8.716701721713 21.0
vertex 5.08686789827622 -8.71670172171297 16.0
endloop
endfacet
facet normal -0.805704416479018 -0.592317814408959 -1.42210997449586e-15
outer loop
vertex 5.77871522273066 -9.99999999999996 21.0
vertex 5.37162652279035 -9.44625477157406 16.0
vertex 5.77871522273067 -9.99999999999996 16.0
endloop
endfacet
facet normal -0.876124492403216 -0.482084923858034 -1.5014787704112e-15
outer loop
vertex 5.37162652279035 -9.44625477157406 16.0
vertex 5.77871522273066 -9.99999999999996 21.0
vertex 5.37162652279033 -9.44625477157406 21.0
endloop
endfacet
facet normal 0.855560037044154 -0.517703605369912 -3.15949700278214e-15
outer loop
vertex 10.5666801111324 -9.55311081610972 16.0
vertex 10.2089316596553 -9.99999999999996 21.0
vertex 10.2089316596553 -9.99999999999997 16.0
endloop
endfacet
facet normal 0.780666722016684 -0.624947573109717 -2.19954133734117e-15
outer loop
vertex 10.2089316596553 -9.99999999999996 21.0
vertex 10.5666801111324 -9.55311081610972 16.0
vertex 10.5666801111325 -9.5531108161097 21.0
endloop
endfacet
facet normal 0.960399088509752 -0.278628050974121 -3.07576931572427e-15
outer loop
vertex 10.8811972655293 -8.8358841529223 16.0
vertex 10.5666801111325 -9.5531108161097 21.0
vertex 10.5666801111324 -9.55311081610972 16.0
endloop
endfacet
facet normal 0.855560037044154 -0.517703605369912 -3.15949700278215e-15
outer loop
vertex 10.5666801111325 -9.5531108161097 21.0
vertex 10.8811972655293 -8.8358841529223 16.0
vertex 10.8811972655293 -8.83588415292233 21.0
endloop
endfacet
facet normal 0.960399088509752 -0.278628050974121 -3.07576931572427e-15
outer loop
vertex 10.8811972655293 -8.8358841529223 16.0
vertex 10.9993655876839 -8.06169336607715 21.0
vertex 10.8811972655293 -8.83588415292233 21.0
endloop
endfacet
facet normal 0.999788529227949 -0.0205644553590607 -1.48115411687096e-15
outer loop
vertex 10.9993655876839 -8.06169336607715 21.0
vertex 10.8811972655293 -8.8358841529223 16.0
vertex 10.9993655876838 -8.06169336607715 16.0
endloop
endfacet
facet normal 0.971044033907921 0.238900573904359 1.20337944023754e-16
outer loop
vertex 10.9131321017238 -7.28329827828692 16.0
vertex 10.9993655876839 -8.06169336607715 21.0
vertex 10.9993655876838 -8.06169336607715 16.0
endloop
endfacet
facet normal 0.999788529227949 -0.0205644553590607 -1.48115411687096e-15
outer loop
vertex 10.9993655876839 -8.06169336607715 21.0
vertex 10.9131321017238 -7.28329827828692 16.0
vertex 10.9131321017238 -7.28329827828694 21.0
endloop
endfacet
facet normal 0.971044033907921 0.238900573904359 1.20337944023754e-16
outer loop
vertex 10.9131321017238 -7.28329827828692 16.0
vertex 10.6283734772096 -6.55374522842587 21.0
vertex 10.9131321017238 -7.28329827828694 21.0
endloop
endfacet
facet normal 0.876124492403219 0.482084923858029 8.79841765386578e-18
outer loop
vertex 10.6283734772096 -6.55374522842587 21.0
vertex 10.9131321017238 -7.28329827828692 16.0
vertex 10.6283734772096 -6.55374522842588 16.0
endloop
endfacet
facet normal 0.721498514605417 0.692415982933798 -1.58702101373013e-15
outer loop
vertex 10.1644955438162 -5.92275205119854 16.0
vertex 10.6283734772096 -6.55374522842587 21.0
vertex 10.6283734772096 -6.55374522842588 16.0
endloop
endfacet
facet normal 0.876124492403219 0.482084923858029 8.79841765386578e-18
outer loop
vertex 10.6283734772096 -6.55374522842587 21.0
vertex 10.1644955438162 -5.92275205119854 16.0
vertex 10.1644955438162 -5.92275205119853 21.0
endloop
endfacet
facet normal 0.517703605369912 0.855560037044154 -2.22331282235713e-15
outer loop
vertex 9.55311081610975 -5.4333198888675 21.0
vertex 10.1644955438162 -5.92275205119854 16.0
vertex 9.55311081610974 -5.43331988886751 16.0
endloop
endfacet
facet normal 0.721498514605417 0.692415982933798 -1.58702101373013e-15
outer loop
vertex 10.1644955438162 -5.92275205119854 16.0
vertex 9.55311081610975 -5.4333198888675 21.0
vertex 10.1644955438162 -5.92275205119853 21.0
endloop
endfacet
facet normal 0.278628050974119 0.960399088509753 -2.08937795822838e-15
outer loop
vertex 8.83588415292236 -5.11880273447071 16.0
vertex 9.55311081610975 -5.4333198888675 21.0
vertex 9.55311081610974 -5.43331988886751 16.0
endloop
endfacet
facet normal 0.517703605369912 0.855560037044154 -2.22331282235713e-15
outer loop
vertex 9.55311081610975 -5.4333198888675 21.0
vertex 8.83588415292236 -5.11880273447071 16.0
vertex 8.83588415292236 -5.1188027344707 21.0
endloop
endfacet
facet normal 0.0205644553590631 0.999788529227949 -1.4906192652022e-15
outer loop
vertex 8.06169336607719 -5.00063441231612 21.0
vertex 8.83588415292236 -5.11880273447071 16.0
vertex 8.06169336607719 -5.00063441231612 16.0
endloop
endfacet
facet normal 0.278628050974119 0.960399088509753 -2.08937795822838e-15
outer loop
vertex 8.83588415292236 -5.11880273447071 16.0
vertex 8.06169336607719 -5.00063441231612 21.0
vertex 8.83588415292236 -5.1188027344707 21.0
endloop
endfacet
facet normal 5.71641177708108e-16 8.26752102838194e-16 1.0
outer loop
vertex 5.08686789827622 -8.716701721713 21.0
vertex 5.11880273447074 -7.16411584707761 21.0
vertex 5.00063441231615 -7.93830663392277 21.0
endloop
endfacet
facet normal 5.71641177708108e-16 8.26752102838194e-16 1.0
outer loop
vertex 5.11880273447074 -7.16411584707761 21.0
vertex 5.08686789827622 -8.716701721713 21.0
vertex 5.37162652279033 -9.44625477157406 21.0
endloop
endfacet
facet normal 5.71641177708108e-16 8.26752102838194e-16 1.0
outer loop
vertex 5.11880273447074 -7.16411584707761 21.0
vertex 5.37162652279033 -9.44625477157406 21.0
vertex 5.43331988886755 -6.44688918389021 21.0
endloop
endfacet
facet normal 5.71641177708108e-16 8.26752102838194e-16 1.0
outer loop
vertex 5.43331988886755 -6.44688918389021 21.0
vertex 5.37162652279033 -9.44625477157406 21.0
vertex 5.77871522273066 -9.99999999999996 21.0
endloop
endfacet
facet normal 5.71641177708108e-16 8.26752102838194e-16 1.0
outer loop
vertex 5.43331988886755 -6.44688918389021 21.0
vertex 5.77871522273066 -9.99999999999996 21.0
vertex 5.92275205119857 -5.83550445618372 21.0
endloop
endfacet
facet normal 5.71641177708108e-16 8.26752102838194e-16 1.0
outer loop
vertex 5.92275205119857 -5.83550445618372 21.0
vertex 5.77871522273066 -9.99999999999996 21.0
vertex 10.2089316596553 -9.99999999999996 21.0
endloop
endfacet
facet normal 5.71641177708108e-16 8.26752102838194e-16 1.0
outer loop
vertex 5.92275205119857 -5.83550445618372 21.0
vertex 10.2089316596553 -9.99999999999996 21.0
vertex 6.55374522842592 -5.3716265227903 21.0
endloop
endfacet
facet normal 5.71641177708108e-16 8.26752102838194e-16 1.0
outer loop
vertex 6.55374522842592 -5.3716265227903 21.0
vertex 10.2089316596553 -9.99999999999996 21.0
vertex 7.28329827828697 -5.08686789827618 21.0
endloop
endfacet
facet normal 5.71641177708108e-16 8.26752102838194e-16 1.0
outer loop
vertex 7.28329827828697 -5.08686789827618 21.0
vertex 10.2089316596553 -9.99999999999996 21.0
vertex 8.06169336607719 -5.00063441231612 21.0
endloop
endfacet
facet normal 5.71641177708108e-16 8.26752102838194e-16 1.0
outer loop
vertex 8.06169336607719 -5.00063441231612 21.0
vertex 10.2089316596553 -9.99999999999996 21.0
vertex 8.83588415292236 -5.1188027344707 21.0
endloop
endfacet
facet normal 5.71641177708108e-16 8.26752102838194e-16 1.0
outer loop
vertex 8.83588415292236 -5.1188027344707 21.0
vertex 10.2089316596553 -9.99999999999996 21.0
vertex 9.55311081610975 -5.4333198888675 21.0
endloop
endfacet
facet normal 5.71641177708108e-16 8.26752102838194e-16 1.0
outer loop
vertex 9.55311081610975 -5.4333198888675 21.0
vertex 10.2089316596553 -9.99999999999996 21.0
vertex 10.1644955438162 -5.92275205119853 21.0
endloop
endfacet
facet normal 5.71641177708108e-16 8.26752102838194e-16 1.0
outer loop
vertex 10.1644955438162 -5.92275205119853 21.0
vertex 10.2089316596553 -9.99999999999996 21.0
vertex 10.6283734772096 -6.55374522842587 21.0
endloop
endfacet
facet normal 5.71641177708108e-16 8.26752102838194e-16 1.0
outer loop
vertex 10.6283734772096 -6.55374522842587 21.0
vertex 10.2089316596553 -9.99999999999996 21.0
vertex 10.5666801111325 -9.5531108161097 21.0
endloop
endfacet
facet normal 5.71641177708108e-16 8.26752102838194e-16 1.0
outer loop
vertex 10.6283734772096 -6.55374522842587 21.0
vertex 10.5666801111325 -9.5531108161097 21.0
vertex 10.8811972655293 -8.83588415292233 21.0
endloop
endfacet
facet normal 5.71641177708108e-16 8.26752102838194e-16 1.0
outer loop
vertex 10.6283734772096 -6.55374522842587 21.0
vertex 10.8811972655293 -8.83588415292233 21.0
vertex 10.9131321017238 -7.28329827828694 21.0
endloop
endfacet
facet normal 5.71641177708108e-16 8.26752102838194e-16 1.0
outer loop
vertex 10.9131321017238 -7.28329827828694 21.0
vertex 10.8811972655293 -8.83588415292233 21.0
vertex 10.9993655876839 -8.06169336607715 21.0
endloop
endfacet
facet normal 3.18265091863713e-16 -1.0 1.12798659301915e-15
outer loop
vertex 10.2089316596553 -9.99999999999996 21.0
vertex 5.77871522273067 -9.99999999999996 16.0
vertex 10.2089316596553 -9.99999999999997 16.0
endloop
endfacet
facet normal 3.18265091863713e-16 -1.0 1.12798659301915e-15
outer loop
vertex 5.77871522273067 -9.99999999999996 16.0
vertex 10.2089316596553 -9.99999999999996 21.0
vertex 5.77871522273066 -9.99999999999996 21.0
endloop
endfacet
facet normal -5.63993296509583e-15 2.8199664825479e-15 1.0
outer loop
vertex 12.5 -15.9999999999999 9.99999999999999
vertex 11.5 -13.9999999999999 9.99999999999998
vertex 11.5 -15.9999999999999 9.99999999999998
endloop
endfacet
facet normal -5.63993296509583e-15 2.8199664825479e-15 1.0
outer loop
vertex 11.5 -13.9999999999999 9.99999999999998
vertex 12.5 -15.9999999999999 9.99999999999999
vertex 12.5 -13.9999999999999 9.99999999999998
endloop
endfacet
facet normal -2.81996648254796e-15 -1.40998324127395e-15 1.0
outer loop
vertex 14.4999999999999 -16.0 9.99999999999999
vertex 13.5 -13.9999999999999 9.99999999999999
vertex 13.4999999999999 -15.9999999999999 9.99999999999998
endloop
endfacet
facet normal -2.81996648254796e-15 -1.40998324127395e-15 1.0
outer loop
vertex 13.5 -13.9999999999999 9.99999999999999
vertex 14.4999999999999 -16.0 9.99999999999999
vertex 14.4999999999999 -14.0 9.99999999999999
endloop
endfacet
facet normal -1.0 0.0 0.0
outer loop
vertex 14.4999999999999 -15.9999999999999 13.0
vertex 14.4999999999999 -14.0 9.99999999999999
vertex 14.4999999999999 -16.0 9.99999999999999
endloop
endfacet
facet normal -1.0 0.0 0.0
outer loop
vertex 14.4999999999999 -14.0 9.99999999999999
vertex 14.4999999999999 -15.9999999999999 13.0
vertex 14.4999999999999 -13.9999999999999 13.0
endloop
endfacet
facet normal -2.81996648254791e-15 -1.0 2.81996648254788e-15
outer loop
vertex 13.4999999999999 -13.9999999999999 8.99999999999998
vertex 12.5 -13.9999999999999 9.99999999999998
vertex 12.5 -13.9999999999999 8.99999999999997
endloop
endfacet
facet normal -2.81996648254791e-15 -1.0 2.81996648254788e-15
outer loop
vertex 12.5 -13.9999999999999 9.99999999999998
vertex 13.4999999999999 -13.9999999999999 8.99999999999998
vertex 13.5 -13.9999999999999 9.99999999999999
endloop
endfacet
facet normal 1.0 0.0 0.0
outer loop
vertex 12.5 -13.9999999999999 8.99999999999997
vertex 12.5 -15.9999999999999 9.99999999999999
vertex 12.5 -15.9999999999999 8.99999999999999
endloop
endfacet
facet normal 1.0 0.0 0.0
outer loop
vertex 12.5 -15.9999999999999 9.99999999999999
vertex 12.5 -13.9999999999999 8.99999999999997
vertex 12.5 -13.9999999999999 9.99999999999998
endloop
endfacet
facet normal -2.81996648254788e-15 7.04991620636975e-15 1.0
outer loop
vertex 13.4999999999999 -15.9999999999999 8.99999999999999
vertex 12.5 -13.9999999999999 8.99999999999997
vertex 12.5 -15.9999999999999 8.99999999999999
endloop
endfacet
facet normal -2.81996648254788e-15 7.04991620636975e-15 1.0
outer loop
vertex 12.5 -13.9999999999999 8.99999999999997
vertex 13.4999999999999 -15.9999999999999 8.99999999999999
vertex 13.4999999999999 -13.9999999999999 8.99999999999998
endloop
endfacet
facet normal -1.0 1.40998324127395e-15 2.81996648254791e-15
outer loop
vertex 13.4999999999999 -15.9999999999999 9.99999999999998
vertex 13.4999999999999 -13.9999999999999 8.99999999999998
vertex 13.4999999999999 -15.9999999999999 8.99999999999999
endloop
endfacet
facet normal -1.0 1.40998324127395e-15 2.81996648254791e-15
outer loop
vertex 13.4999999999999 -13.9999999999999 8.99999999999998
vertex 13.4999999999999 -15.9999999999999 9.99999999999998
vertex 13.5 -13.9999999999999 9.99999999999999
endloop
endfacet
facet normal 1.40998324127398e-15 1.40998324127395e-15 1.0
outer loop
vertex 7.49999999999993 -15.9999999999999 9.99999999999998
vertex 5.49999999999996 -13.9999999999999 9.99999999999998
vertex 5.49999999999996 -15.9999999999999 9.99999999999999
endloop
endfacet
facet normal 1.40998324127398e-15 1.40998324127395e-15 1.0
outer loop
vertex 5.49999999999996 -13.9999999999999 9.99999999999998
vertex 7.49999999999993 -15.9999999999999 9.99999999999998
vertex 7.49999999999993 -13.9999999999999 9.99999999999999
endloop
endfacet
facet normal 1.57413963525263e-15 -1.0 -6.9326616392421e-16
outer loop
vertex 11.5 -13.9999999999999 9.99999999999998
vertex 10.5 -13.9999999999999 8.99999999999998
vertex 11.4999999999999 -13.9999999999999 8.99999999999998
endloop
endfacet
facet normal 1.57413963525263e-15 -1.0 -6.9326616392421e-16
outer loop
vertex 10.5 -13.9999999999999 8.99999999999998
vertex 11.5 -13.9999999999999 9.99999999999998
vertex 10.5 -13.9999999999999 9.99999999999998
endloop
endfacet
facet normal 1.57413963525263e-15 -1.0 -6.9326616392421e-16
outer loop
vertex 10.5 -13.9999999999999 9.99999999999998
vertex 11.5 -13.9999999999999 9.99999999999998
vertex 12.5 -13.9999999999999 9.99999999999998
endloop
endfacet
facet normal 1.57413963525263e-15 -1.0 -6.9326616392421e-16
outer loop
vertex 10.5 -13.9999999999999 9.99999999999998
vertex 12.5 -13.9999999999999 9.99999999999998
vertex 8.49999999999995 -13.9999999999999 9.99999999999999
endloop
endfacet
facet normal 1.57413963525263e-15 -1.0 -6.9326616392421e-16
outer loop
vertex 8.49999999999995 -13.9999999999999 9.99999999999999
vertex 12.5 -13.9999999999999 9.99999999999998
vertex 13.5 -13.9999999999999 9.99999999999999
endloop
endfacet
facet normal 1.57413963525263e-15 -1.0 -6.9326616392421e-16
outer loop
vertex 5.49999999999995 -14.0 8.99999999999998
vertex 4.49999999999994 -13.9999999999999 9.99999999999998
vertex 4.49999999999995 -14.0 8.99999999999998
endloop
endfacet
facet normal 1.57413963525263e-15 -1.0 -6.9326616392421e-16
outer loop
vertex 4.49999999999994 -13.9999999999999 9.99999999999998
vertex 5.49999999999995 -14.0 8.99999999999998
vertex 5.49999999999996 -13.9999999999999 9.99999999999998
endloop
endfacet
facet normal 1.57413963525263e-15 -1.0 -6.9326616392421e-16
outer loop
vertex 4.49999999999994 -13.9999999999999 9.99999999999998
vertex 5.49999999999996 -13.9999999999999 9.99999999999998
vertex 3.49999999999994 -14.0 9.99999999999999
endloop
endfacet
facet normal 1.57413963525263e-15 -1.0 -6.9326616392421e-16
outer loop
vertex 3.49999999999994 -14.0 9.99999999999999
vertex 5.49999999999996 -13.9999999999999 9.99999999999998
vertex 7.49999999999993 -13.9999999999999 9.99999999999999
endloop
endfacet
facet normal 1.57413963525263e-15 -1.0 -6.9326616392421e-16
outer loop
vertex 8.49999999999995 -13.9999999999999 9.99999999999999
vertex 7.49999999999993 -13.9999999999999 8.99999999999999
vertex 8.49999999999994 -13.9999999999999 8.99999999999999
endloop
endfacet
facet normal 1.57413963525263e-15 -1.0 -6.9326616392421e-16
outer loop
vertex 7.49999999999993 -13.9999999999999 8.99999999999999
vertex 8.49999999999995 -13.9999999999999 9.99999999999999
vertex 7.49999999999993 -13.9999999999999 9.99999999999999
endloop
endfacet
facet normal 1.57413963525263e-15 -1.0 -6.9326616392421e-16
outer loop
vertex 7.49999999999993 -13.9999999999999 9.99999999999999
vertex 8.49999999999995 -13.9999999999999 9.99999999999999
vertex 13.5 -13.9999999999999 9.99999999999999
endloop
endfacet
facet normal 1.57413963525263e-15 -1.0 -6.9326616392421e-16
outer loop
vertex 7.49999999999993 -13.9999999999999 9.99999999999999
vertex 13.5 -13.9999999999999 9.99999999999999
vertex 14.4999999999999 -14.0 9.99999999999999
endloop
endfacet
facet normal 1.57413963525263e-15 -1.0 -6.9326616392421e-16
outer loop
vertex 7.49999999999993 -13.9999999999999 9.99999999999999
vertex 14.4999999999999 -14.0 9.99999999999999
vertex 14.4999999999999 -13.9999999999999 13.0
endloop
endfacet
facet normal 1.57413963525263e-15 -1.0 -6.9326616392421e-16
outer loop
vertex 7.49999999999993 -13.9999999999999 9.99999999999999
vertex 14.4999999999999 -13.9999999999999 13.0
vertex 2.49999999999999 -14.0 11.0
endloop
endfacet
facet normal 1.57413963525263e-15 -1.0 -6.9326616392421e-16
outer loop
vertex 2.49999999999999 -14.0 11.0
vertex 14.4999999999999 -13.9999999999999 13.0
vertex 1.49999999999993 -14.0 11.0
endloop
endfacet
facet normal 1.57413963525263e-15 -1.0 -6.9326616392421e-16
outer loop
vertex 1.49999999999993 -14.0 11.0
vertex 14.4999999999999 -13.9999999999999 13.0
vertex 1.49999999999994 -14.0 13.0
endloop
endfacet
facet normal 1.57413963525263e-15 -1.0 -6.9326616392421e-16
outer loop
vertex 3.49999999999994 -14.0 9.99999999999999
vertex 2.49999999999999 -14.0 8.99999999999999
vertex 3.49999999999995 -14.0 8.99999999999998
endloop
endfacet
facet normal 1.57413963525263e-15 -1.0 -6.9326616392421e-16
outer loop
vertex 2.49999999999999 -14.0 8.99999999999999
vertex 3.49999999999994 -14.0 9.99999999999999
vertex 2.49999999999999 -14.0 11.0
endloop
endfacet
facet normal 1.57413963525263e-15 -1.0 -6.9326616392421e-16
outer loop
vertex 2.49999999999999 -14.0 11.0
vertex 3.49999999999994 -14.0 9.99999999999999
vertex 7.49999999999993 -13.9999999999999 9.99999999999999
endloop
endfacet
facet normal 1.0 2.8199664825479e-15 -1.99224628942327e-29
outer loop
vertex 7.49999999999993 -13.9999999999999 8.99999999999999
vertex 7.49999999999993 -15.9999999999999 9.99999999999998
vertex 7.49999999999994 -15.9999999999999 8.99999999999999
endloop
endfacet
facet normal 1.0 2.8199664825479e-15 -1.99224628942327e-29
outer loop
vertex 7.49999999999993 -15.9999999999999 9.99999999999998
vertex 7.49999999999993 -13.9999999999999 8.99999999999999
vertex 7.49999999999993 -13.9999999999999 9.99999999999999
endloop
endfacet
facet normal -0.0 -0.0 1.0
outer loop
vertex 7.49999999999994 -15.9999999999999 8.99999999999999
vertex 8.49999999999994 -13.9999999999999 8.99999999999999
vertex 7.49999999999993 -13.9999999999999 8.99999999999999
endloop
endfacet
facet normal -0.0 -0.0 1.0
outer loop
vertex 8.49999999999994 -13.9999999999999 8.99999999999999
vertex 7.49999999999994 -15.9999999999999 8.99999999999999
vertex 8.49999999999995 -15.9999999999999 8.99999999999999
endloop
endfacet
facet normal -1.0 -2.81996648254791e-15 5.63993296509586e-15
outer loop
vertex 8.49999999999995 -15.9999999999999 9.99999999999998
vertex 8.49999999999994 -13.9999999999999 8.99999999999999
vertex 8.49999999999995 -15.9999999999999 8.99999999999999
endloop
endfacet
facet normal -1.0 -2.81996648254791e-15 5.63993296509586e-15
outer loop
vertex 8.49999999999994 -13.9999999999999 8.99999999999999
vertex 8.49999999999995 -15.9999999999999 9.99999999999998
vertex 8.49999999999995 -13.9999999999999 9.99999999999999
endloop
endfacet
facet normal 1.0 -1.40998324127396e-15 -2.8199664825479e-15
outer loop
vertex 10.5 -13.9999999999999 8.99999999999998
vertex 10.5 -15.9999999999999 9.99999999999999
vertex 10.4999999999999 -15.9999999999999 8.99999999999999
endloop
endfacet
facet normal 1.0 -1.40998324127396e-15 -2.8199664825479e-15
outer loop
vertex 10.5 -15.9999999999999 9.99999999999999
vertex 10.5 -13.9999999999999 8.99999999999998
vertex 10.5 -13.9999999999999 9.99999999999998
endloop
endfacet
facet normal 5.6399329650958e-15 2.8199664825479e-15 1.0
outer loop
vertex 11.5 -15.9999999999999 8.99999999999998
vertex 10.5 -13.9999999999999 8.99999999999998
vertex 10.4999999999999 -15.9999999999999 8.99999999999999
endloop
endfacet
facet normal 5.6399329650958e-15 2.8199664825479e-15 1.0
outer loop
vertex 10.5 -13.9999999999999 8.99999999999998
vertex 11.5 -15.9999999999999 8.99999999999998
vertex 11.4999999999999 -13.9999999999999 8.99999999999998
endloop
endfacet
facet normal -1.0 -1.40998324127394e-15 2.81996648254791e-15
outer loop
vertex 11.5 -15.9999999999999 9.99999999999998
vertex 11.4999999999999 -13.9999999999999 8.99999999999998
vertex 11.5 -15.9999999999999 8.99999999999998
endloop
endfacet
facet normal -1.0 -1.40998324127394e-15 2.81996648254791e-15
outer loop
vertex 11.4999999999999 -13.9999999999999 8.99999999999998
vertex 11.5 -15.9999999999999 9.99999999999998
vertex 11.5 -13.9999999999999 9.99999999999998
endloop
endfacet
facet normal -1.40998324127394e-15 1.40998324127395e-15 1.0
outer loop
vertex 10.5 -15.9999999999999 9.99999999999999
vertex 8.49999999999995 -13.9999999999999 9.99999999999999
vertex 8.49999999999995 -15.9999999999999 9.99999999999998
endloop
endfacet
facet normal -1.40998324127394e-15 1.40998324127395e-15 1.0
outer loop
vertex 8.49999999999995 -13.9999999999999 9.99999999999999
vertex 10.5 -15.9999999999999 9.99999999999999
vertex 10.5 -13.9999999999999 9.99999999999998
endloop
endfacet
facet normal 1.0 2.11497486191094e-15 1.40998324127393e-15
outer loop
vertex 4.49999999999995 -14.0 8.99999999999998
vertex 4.49999999999995 -15.9999999999999 9.99999999999999
vertex 4.49999999999995 -15.9999999999999 8.99999999999999
endloop
endfacet
facet normal 1.0 2.11497486191094e-15 1.40998324127393e-15
outer loop
vertex 4.49999999999995 -15.9999999999999 9.99999999999999
vertex 4.49999999999995 -14.0 8.99999999999998
vertex 4.49999999999994 -13.9999999999999 9.99999999999998
endloop
endfacet
facet normal -2.8199664825479e-15 4.22994972382187e-15 1.0
outer loop
vertex 4.49999999999995 -15.9999999999999 8.99999999999999
vertex 5.49999999999995 -14.0 8.99999999999998
vertex 4.49999999999995 -14.0 8.99999999999998
endloop
endfacet
facet normal -2.8199664825479e-15 4.22994972382187e-15 1.0
outer loop
vertex 5.49999999999995 -14.0 8.99999999999998
vertex 4.49999999999995 -15.9999999999999 8.99999999999999
vertex 5.49999999999995 -15.9999999999999 8.99999999999999
endloop
endfacet
facet normal -1.0 1.40998324127398e-15 5.63993296509577e-15
outer loop
vertex 5.49999999999996 -15.9999999999999 9.99999999999999
vertex 5.49999999999995 -14.0 8.99999999999998
vertex 5.49999999999995 -15.9999999999999 8.99999999999999
endloop
endfacet
facet normal -1.0 1.40998324127398e-15 5.63993296509577e-15
outer loop
vertex 5.49999999999995 -14.0 8.99999999999998
vertex 5.49999999999996 -15.9999999999999 9.99999999999999
vertex 5.49999999999996 -13.9999999999999 9.99999999999998
endloop
endfacet
facet normal -3.98961802731855e-29 2.81996648254792e-15 1.0
outer loop
vertex 3.49999999999995 -15.9999999999999 9.99999999999999
vertex 4.49999999999994 -13.9999999999999 9.99999999999998
vertex 3.49999999999994 -14.0 9.99999999999999
endloop
endfacet
facet normal -3.98961802731855e-29 2.81996648254792e-15 1.0
outer loop
vertex 4.49999999999994 -13.9999999999999 9.99999999999998
vertex 3.49999999999995 -15.9999999999999 9.99999999999999
vertex 4.49999999999995 -15.9999999999999 9.99999999999999
endloop
endfacet
facet normal 1.0 1.40998324127396e-15 -1.18844394987873e-29
outer loop
vertex 2.49999999999999 -14.0 8.99999999999999
vertex 2.5 -15.9999999999999 11.0
vertex 2.5 -16.0 8.99999999999999
endloop
endfacet
facet normal 1.0 1.40998324127396e-15 -1.18844394987873e-29
outer loop
vertex 2.5 -15.9999999999999 11.0
vertex 2.49999999999999 -14.0 8.99999999999999
vertex 2.49999999999999 -14.0 11.0
endloop
endfacet
facet normal 2.819966482548e-15 1.40998324127397e-15 1.0
outer loop
vertex 2.5 -16.0 8.99999999999999
vertex 3.49999999999995 -14.0 8.99999999999998
vertex 2.49999999999999 -14.0 8.99999999999999
endloop
endfacet
facet normal 2.819966482548e-15 1.40998324127397e-15 1.0
outer loop
vertex 3.49999999999995 -14.0 8.99999999999998
vertex 2.5 -16.0 8.99999999999999
vertex 3.49999999999995 -15.9999999999999 8.99999999999999
endloop
endfacet
facet normal -1.0 -2.81996648254793e-15 -4.22994972382187e-15
outer loop
vertex 3.49999999999994 -14.0 9.99999999999999
vertex 3.49999999999995 -15.9999999999999 8.99999999999999
vertex 3.49999999999995 -15.9999999999999 9.99999999999999
endloop
endfacet
facet normal -1.0 -2.81996648254793e-15 -4.22994972382187e-15
outer loop
vertex 3.49999999999995 -15.9999999999999 8.99999999999999
vertex 3.49999999999994 -14.0 9.99999999999999
vertex 3.49999999999995 -14.0 8.99999999999998
endloop
endfacet
facet normal -3.20556321739382e-16 9.39988827515969e-16 -1.0
outer loop
vertex 14.4999999999999 -13.9999999999999 13.0
vertex 1.49999999999995 -15.9999999999999 13.0
vertex 1.49999999999994 -14.0 13.0
endloop
endfacet
facet normal -3.20556321739382e-16 9.39988827515969e-16 -1.0
outer loop
vertex 1.49999999999995 -15.9999999999999 13.0
vertex 14.4999999999999 -13.9999999999999 13.0
vertex 14.4999999999999 -15.9999999999999 13.0
endloop
endfacet
facet normal 1.0 5.99242877541435e-15 -1.05748743095549e-15
outer loop
vertex 1.49999999999993 -14.0 11.0
vertex 1.49999999999995 -15.9999999999999 13.0
vertex 1.49999999999995 -15.9999999999999 11.0
endloop
endfacet
facet normal 1.0 5.99242877541435e-15 -1.05748743095549e-15
outer loop
vertex 1.49999999999995 -15.9999999999999 13.0
vertex 1.49999999999993 -14.0 11.0
vertex 1.49999999999994 -14.0 13.0
endloop
endfacet
facet normal -0.0 -0.0 1.0
outer loop
vertex 1.49999999999995 -15.9999999999999 11.0
vertex 2.49999999999999 -14.0 11.0
vertex 1.49999999999993 -14.0 11.0
endloop
endfacet
facet normal -0.0 -0.0 1.0
outer loop
vertex 2.49999999999999 -14.0 11.0
vertex 1.49999999999995 -15.9999999999999 11.0
vertex 2.5 -15.9999999999999 11.0
endloop
endfacet
facet normal 2.81996648254789e-15 7.04991620636974e-15 1.0
outer loop
vertex 13.5 -15.9999999999999 3.99999999999999
vertex 12.5 -13.9999999999999 3.99999999999998
vertex 12.5 -15.9999999999999 3.99999999999999
endloop
endfacet
facet normal 2.81996648254789e-15 7.04991620636974e-15 1.0
outer loop
vertex 12.5 -13.9999999999999 3.99999999999998
vertex 13.5 -15.9999999999999 3.99999999999999
vertex 13.5 -13.9999999999999 3.99999999999998
endloop
endfacet
facet normal -1.0 5.63993296509579e-15 -1.40998324127397e-15
outer loop
vertex 13.5 -15.9999999999999 7.99999999999999
vertex 13.5 -13.9999999999999 3.99999999999998
vertex 13.5 -15.9999999999999 3.99999999999999
endloop
endfacet
facet normal -1.0 5.63993296509579e-15 -1.40998324127397e-15
outer loop
vertex 13.5 -13.9999999999999 3.99999999999998
vertex 13.5 -15.9999999999999 7.99999999999999
vertex 13.5 -13.9999999999999 7.99999999999998
endloop
endfacet
facet normal -1.0 0.0 0.0
outer loop
vertex 12.5 -15.9999999999999 3.99999999999999
vertex 12.5 -13.9999999999999 1.99999999999998
vertex 12.5 -15.9999999999999 1.99999999999999
endloop
endfacet
facet normal -1.0 0.0 0.0
outer loop
vertex 12.5 -13.9999999999999 1.99999999999998
vertex 12.5 -15.9999999999999 3.99999999999999
vertex 12.5 -13.9999999999999 3.99999999999998
endloop
endfacet
facet normal 1.0 4.22994972382189e-15 2.81996648254796e-15
outer loop
vertex 10.5 -15.9999999999999 2.0
vertex 10.5 -13.9999999999999 2.99999999999997
vertex 10.5 -15.9999999999999 2.99999999999999
endloop
endfacet
facet normal 1.0 4.22994972382189e-15 2.81996648254796e-15
outer loop
vertex 10.5 -13.9999999999999 2.99999999999997
vertex 10.5 -15.9999999999999 2.0
vertex 10.5 -13.9999999999999 1.99999999999998
endloop
endfacet
facet normal 1.40998324127396e-15 6.57992179261179e-15 1.0
outer loop
vertex 10.5 -15.9999999999999 2.0
vertex 12.5 -13.9999999999999 1.99999999999998
vertex 10.5 -13.9999999999999 1.99999999999998
endloop
endfacet
facet normal 1.40998324127396e-15 6.57992179261179e-15 1.0
outer loop
vertex 12.5 -13.9999999999999 1.99999999999998
vertex 10.5 -15.9999999999999 2.0
vertex 12.5 -15.9999999999999 1.99999999999999
endloop
endfacet
facet normal 1.12798659301916e-15 -2.81996648254791e-15 -1.0
outer loop
vertex 13.5 -13.9999999999999 7.99999999999998
vertex 8.49999999999996 -15.9999999999999 7.99999999999998
vertex 8.49999999999996 -13.9999999999999 7.99999999999998
endloop
endfacet
facet normal 1.12798659301916e-15 -2.81996648254791e-15 -1.0
outer loop
vertex 8.49999999999996 -15.9999999999999 7.99999999999998
vertex 13.5 -13.9999999999999 7.99999999999998
vertex 13.5 -15.9999999999999 7.99999999999999
endloop
endfacet
facet normal 1.92945075121698e-15 -1.0 3.55560991277779e-15
outer loop
vertex 12.5 -13.9999999999999 3.99999999999998
vertex 10.5 -13.9999999999999 1.99999999999998
vertex 12.5 -13.9999999999999 1.99999999999998
endloop
endfacet
facet normal 1.92945075121698e-15 -1.0 3.55560991277779e-15
outer loop
vertex 10.5 -13.9999999999999 1.99999999999998
vertex 12.5 -13.9999999999999 3.99999999999998
vertex 10.5 -13.9999999999999 2.99999999999997
endloop
endfacet
facet normal 1.92945075121698e-15 -1.0 3.55560991277779e-15
outer loop
vertex 10.5 -13.9999999999999 2.99999999999997
vertex 8.49999999999996 -13.9999999999999 7.99999999999998
vertex 8.49999999999996 -14.0 2.99999999999997
endloop
endfacet
facet normal 1.92945075121698e-15 -1.0 3.55560991277779e-15
outer loop
vertex 8.49999999999996 -13.9999999999999 7.99999999999998
vertex 10.5 -13.9999999999999 2.99999999999997
vertex 12.5 -13.9999999999999 3.99999999999998
endloop
endfacet
facet normal 1.92945075121698e-15 -1.0 3.55560991277779e-15
outer loop
vertex 8.49999999999996 -13.9999999999999 7.99999999999998
vertex 12.5 -13.9999999999999 3.99999999999998
vertex 13.5 -13.9999999999999 3.99999999999998
endloop
endfacet
facet normal 1.92945075121698e-15 -1.0 3.55560991277779e-15
outer loop
vertex 8.49999999999996 -13.9999999999999 7.99999999999998
vertex 13.5 -13.9999999999999 3.99999999999998
vertex 13.5 -13.9999999999999 7.99999999999998
endloop
endfacet
facet normal 1.0 1.40998324127395e-15 -5.63993296509584e-16
outer loop
vertex 8.49999999999996 -14.0 2.99999999999997
vertex 8.49999999999996 -15.9999999999999 7.99999999999998
vertex 8.49999999999996 -15.9999999999999 2.99999999999999
endloop
endfacet
facet normal 1.0 1.40998324127395e-15 -5.63993296509584e-16
outer loop
vertex 8.49999999999996 -15.9999999999999 7.99999999999998
vertex 8.49999999999996 -14.0 2.99999999999997
vertex 8.49999999999996 -13.9999999999999 7.99999999999998
endloop
endfacet
facet normal 1.40998324127395e-15 7.04991620636978e-15 1.0
outer loop
vertex 10.5 -15.9999999999999 2.99999999999999
vertex 8.49999999999996 -14.0 2.99999999999997
vertex 8.49999999999996 -15.9999999999999 2.99999999999999
endloop
endfacet
facet normal 1.40998324127395e-15 7.04991620636978e-15 1.0
outer loop
vertex 8.49999999999996 -14.0 2.99999999999997
vertex 10.5 -15.9999999999999 2.99999999999999
vertex 10.5 -13.9999999999999 2.99999999999997
endloop
endfacet
facet normal 4.50887770626002e-15 -1.0 2.71370820352384e-15
outer loop
vertex 5.49999999999996 -13.9999999999999 2.99999999999997
vertex 4.49999999999995 -14.0 1.99999999999999
vertex 5.49999999999996 -13.9999999999999 1.99999999999999
endloop
endfacet
facet normal 4.50887770626002e-15 -1.0 2.71370820352384e-15
outer loop
vertex 4.49999999999995 -14.0 1.99999999999999
vertex 5.49999999999996 -13.9999999999999 2.99999999999997
vertex 4.49999999999995 -13.9999999999999 2.99999999999998
endloop
endfacet
facet normal 4.50887770626002e-15 -1.0 2.71370820352384e-15
outer loop
vertex 4.49999999999995 -13.9999999999999 2.99999999999998
vertex 5.49999999999996 -13.9999999999999 2.99999999999997
vertex 6.49999999999995 -13.9999999999999 2.99999999999998
endloop
endfacet
facet normal 4.50887770626002e-15 -1.0 2.71370820352384e-15
outer loop
vertex 4.49999999999995 -13.9999999999999 2.99999999999998
vertex 6.49999999999995 -13.9999999999999 2.99999999999998
vertex 6.49999999999996 -13.9999999999999 7.99999999999998
endloop
endfacet
facet normal 4.50887770626002e-15 -1.0 2.71370820352384e-15
outer loop
vertex 4.49999999999995 -13.9999999999999 2.99999999999998
vertex 6.49999999999996 -13.9999999999999 7.99999999999998
vertex 3.49999999999995 -14.0 2.99999999999998
endloop
endfacet
facet normal 4.50887770626002e-15 -1.0 2.71370820352384e-15
outer loop
vertex 3.49999999999995 -14.0 2.99999999999998
vertex 6.49999999999996 -13.9999999999999 7.99999999999998
vertex 3.49999999999996 -13.9999999999999 3.99999999999998
endloop
endfacet
facet normal 4.50887770626002e-15 -1.0 2.71370820352384e-15
outer loop
vertex 3.49999999999996 -13.9999999999999 3.99999999999998
vertex 6.49999999999996 -13.9999999999999 7.99999999999998
vertex 2.49999999999998 -13.9999999999999 5.99999999999998
endloop
endfacet
facet normal 4.50887770626002e-15 -1.0 2.71370820352384e-15
outer loop
vertex 2.49999999999998 -13.9999999999999 5.99999999999998
vertex 6.49999999999996 -13.9999999999999 7.99999999999998
vertex 1.49999999999994 -14.0 6.0
endloop
endfacet
facet normal 4.50887770626002e-15 -1.0 2.71370820352384e-15
outer loop
vertex 1.49999999999994 -14.0 6.0
vertex 6.49999999999996 -13.9999999999999 7.99999999999998
vertex 1.49999999999994 -14.0 7.99999999999999
endloop
endfacet
facet normal 4.50887770626002e-15 -1.0 2.71370820352384e-15
outer loop
vertex 2.49999999999998 -13.9999999999999 5.99999999999998
vertex 2.49999999999998 -13.9999999999999 3.99999999999998
vertex 3.49999999999996 -13.9999999999999 3.99999999999998
endloop
endfacet
facet normal -8.45989944764378e-15 4.22994972382182e-15 1.0
outer loop
vertex 5.49999999999997 -15.9999999999999 2.99999999999998
vertex 6.49999999999995 -13.9999999999999 2.99999999999998
vertex 5.49999999999996 -13.9999999999999 2.99999999999997
endloop
endfacet
facet normal -8.45989944764378e-15 4.22994972382182e-15 1.0
outer loop
vertex 6.49999999999995 -13.9999999999999 2.99999999999998
vertex 5.49999999999997 -15.9999999999999 2.99999999999998
vertex 6.49999999999996 -15.9999999999999 2.99999999999999
endloop
endfacet
facet normal -1.0 -2.11497486191092e-15 2.819966482548e-16
outer loop
vertex 6.49999999999996 -15.9999999999999 7.99999999999999
vertex 6.49999999999995 -13.9999999999999 2.99999999999998
vertex 6.49999999999996 -15.9999999999999 2.99999999999999
endloop
endfacet
facet normal -1.0 -2.11497486191092e-15 2.819966482548e-16
outer loop
vertex 6.49999999999995 -13.9999999999999 2.99999999999998
vertex 6.49999999999996 -15.9999999999999 7.99999999999999
vertex 6.49999999999996 -13.9999999999999 7.99999999999998
endloop
endfacet
facet normal 1.0 2.11497486191093e-15 1.40998324127394e-15
outer loop
vertex 4.49999999999995 -14.0 1.99999999999999
vertex 4.49999999999996 -15.9999999999999 2.99999999999999
vertex 4.49999999999996 -16.0 1.99999999999999
endloop
endfacet
facet normal 1.0 2.11497486191093e-15 1.40998324127394e-15
outer loop
vertex 4.49999999999996 -15.9999999999999 2.99999999999999
vertex 4.49999999999995 -14.0 1.99999999999999
vertex 4.49999999999995 -13.9999999999999 2.99999999999998
endloop
endfacet
facet normal -2.81996648254788e-15 1.40998324127395e-15 1.0
outer loop
vertex 4.49999999999996 -16.0 1.99999999999999
vertex 5.49999999999996 -13.9999999999999 1.99999999999999
vertex 4.49999999999995 -14.0 1.99999999999999
endloop
endfacet
facet normal -2.81996648254788e-15 1.40998324127395e-15 1.0
outer loop
vertex 5.49999999999996 -13.9999999999999 1.99999999999999
vertex 4.49999999999996 -16.0 1.99999999999999
vertex 5.49999999999996 -15.9999999999999 1.99999999999999
endloop
endfacet
facet normal -1.0 -1.40998324127394e-15 2.81996648254794e-15
outer loop
vertex 5.49999999999997 -15.9999999999999 2.99999999999998
vertex 5.49999999999996 -13.9999999999999 1.99999999999999
vertex 5.49999999999996 -15.9999999999999 1.99999999999999
endloop
endfacet
facet normal -1.0 -1.40998324127394e-15 2.81996648254794e-15
outer loop
vertex 5.49999999999996 -13.9999999999999 1.99999999999999
vertex 5.49999999999997 -15.9999999999999 2.99999999999998
vertex 5.49999999999996 -13.9999999999999 2.99999999999997
endloop
endfacet
facet normal 1.0 2.46747067222942e-15 7.04991620636947e-16
outer loop
vertex 3.49999999999995 -14.0 2.99999999999998
vertex 3.49999999999996 -15.9999999999999 3.99999999999998
vertex 3.49999999999996 -15.9999999999999 3.0
endloop
endfacet
facet normal 1.0 2.46747067222942e-15 7.04991620636947e-16
outer loop
vertex 3.49999999999996 -15.9999999999999 3.99999999999998
vertex 3.49999999999995 -14.0 2.99999999999998
vertex 3.49999999999996 -13.9999999999999 3.99999999999998
endloop
endfacet
facet normal 8.45989944764372e-15 4.22994972382189e-15 1.0
outer loop
vertex 3.49999999999996 -15.9999999999999 3.0
vertex 4.49999999999995 -13.9999999999999 2.99999999999998
vertex 3.49999999999995 -14.0 2.99999999999998
endloop
endfacet
facet normal 8.45989944764372e-15 4.22994972382189e-15 1.0
outer loop
vertex 4.49999999999995 -13.9999999999999 2.99999999999998
vertex 3.49999999999996 -15.9999999999999 3.0
vertex 4.49999999999996 -15.9999999999999 2.99999999999999
endloop
endfacet
facet normal 1.0 6.34492458573278e-15 -2.81996648254793e-15
outer loop
vertex 2.49999999999998 -13.9999999999999 3.99999999999998
vertex 2.5 -15.9999999999999 5.99999999999999
vertex 2.49999999999999 -15.9999999999999 3.99999999999998
endloop
endfacet
facet normal 1.0 6.34492458573278e-15 -2.81996648254793e-15
outer loop
vertex 2.5 -15.9999999999999 5.99999999999999
vertex 2.49999999999998 -13.9999999999999 3.99999999999998
vertex 2.49999999999998 -13.9999999999999 5.99999999999998
endloop
endfacet
facet normal -2.7801675045356e-29 2.81996648254791e-15 1.0
outer loop
vertex 2.49999999999999 -15.9999999999999 3.99999999999998
vertex 3.49999999999996 -13.9999999999999 3.99999999999998
vertex 2.49999999999998 -13.9999999999999 3.99999999999998
endloop
endfacet
facet normal -2.7801675045356e-29 2.81996648254791e-15 1.0
outer loop
vertex 3.49999999999996 -13.9999999999999 3.99999999999998
vertex 2.49999999999999 -15.9999999999999 3.99999999999998
vertex 3.49999999999996 -15.9999999999999 3.99999999999998
endloop
endfacet
facet normal -8.05704709299386e-16 -1.87997765503194e-15 -1.0
outer loop
vertex 6.49999999999996 -13.9999999999999 7.99999999999998
vertex 1.49999999999995 -15.9999999999999 7.99999999999999
vertex 1.49999999999994 -14.0 7.99999999999999
endloop
endfacet
facet normal -8.05704709299386e-16 -1.87997765503194e-15 -1.0
outer loop
vertex 1.49999999999995 -15.9999999999999 7.99999999999999
vertex 6.49999999999996 -13.9999999999999 7.99999999999998
vertex 6.49999999999996 -15.9999999999999 7.99999999999999
endloop
endfacet
facet normal 1.0 7.0499162063698e-15 -2.95878161795537e-29
outer loop
vertex 1.49999999999994 -14.0 6.0
vertex 1.49999999999995 -15.9999999999999 7.99999999999999
vertex 1.49999999999996 -15.9999999999999 6.0
endloop
endfacet
facet normal 1.0 7.0499162063698e-15 -2.95878161795537e-29
outer loop
vertex 1.49999999999995 -15.9999999999999 7.99999999999999
vertex 1.49999999999994 -14.0 6.0
vertex 1.49999999999994 -14.0 7.99999999999999
endloop
endfacet
facet normal 5.63993296509549e-15 2.81996648254797e-15 1.0
outer loop
vertex 1.49999999999996 -15.9999999999999 6.0
vertex 2.49999999999998 -13.9999999999999 5.99999999999998
vertex 1.49999999999994 -14.0 6.0
endloop
endfacet
facet normal 5.63993296509549e-15 2.81996648254797e-15 1.0
outer loop
vertex 2.49999999999998 -13.9999999999999 5.99999999999998
vertex 1.49999999999996 -15.9999999999999 6.0
vertex 2.5 -15.9999999999999 5.99999999999999
endloop
endfacet
facet normal -8.81239525796233e-17 -1.0 1.85060300417206e-15
outer loop
vertex 5.49999999999996 -15.9999999999999 1.99999999999999
vertex 10.5 -15.9999999999999 2.0
vertex 5.49999999999997 -15.9999999999999 2.99999999999998
endloop
endfacet
facet normal -8.81239525796233e-17 -1.0 1.85060300417206e-15
outer loop
vertex 10.5 -15.9999999999999 2.0
vertex 5.49999999999996 -15.9999999999999 1.99999999999999
vertex 12.5 -15.9999999999999 1.99999999999999
endloop
endfacet
facet normal -8.81239525796233e-17 -1.0 1.85060300417206e-15
outer loop
vertex 5.49999999999997 -15.9999999999999 2.99999999999998
vertex 10.5 -15.9999999999999 2.0
vertex 10.5 -15.9999999999999 2.99999999999999
endloop
endfacet
facet normal -8.81239525796233e-17 -1.0 1.85060300417206e-15
outer loop
vertex 5.49999999999997 -15.9999999999999 2.99999999999998
vertex 10.5 -15.9999999999999 2.99999999999999
vertex 6.49999999999996 -15.9999999999999 2.99999999999999
endloop
endfacet
facet normal -8.81239525796233e-17 -1.0 1.85060300417206e-15
outer loop
vertex 6.49999999999996 -15.9999999999999 2.99999999999999
vertex 10.5 -15.9999999999999 2.99999999999999
vertex 8.49999999999996 -15.9999999999999 2.99999999999999
endloop
endfacet
facet normal -8.81239525796233e-17 -1.0 1.85060300417206e-15
outer loop
vertex 6.49999999999996 -15.9999999999999 2.99999999999999
vertex 8.49999999999996 -15.9999999999999 2.99999999999999
vertex 8.49999999999996 -15.9999999999999 7.99999999999998
endloop
endfacet
facet normal -8.81239525796233e-17 -1.0 1.85060300417206e-15
outer loop
vertex 6.49999999999996 -15.9999999999999 2.99999999999999
vertex 8.49999999999996 -15.9999999999999 7.99999999999998
vertex 6.49999999999996 -15.9999999999999 7.99999999999999
endloop
endfacet
facet normal -8.81239525796233e-17 -1.0 1.85060300417206e-15
outer loop
vertex 6.49999999999996 -15.9999999999999 7.99999999999999
vertex 8.49999999999996 -15.9999999999999 7.99999999999998
vertex 13.5 -15.9999999999999 7.99999999999999
endloop
endfacet
facet normal -8.81239525796233e-17 -1.0 1.85060300417206e-15
outer loop
vertex 6.49999999999996 -15.9999999999999 7.99999999999999
vertex 13.5 -15.9999999999999 7.99999999999999
vertex 1.49999999999995 -15.9999999999999 7.99999999999999
endloop
endfacet
facet normal -8.81239525796233e-17 -1.0 1.85060300417206e-15
outer loop
vertex 12.5 -15.9999999999999 3.99999999999999
vertex 12.5 -15.9999999999999 1.99999999999999
vertex 13.5 -15.9999999999999 3.99999999999999
endloop
endfacet
facet normal -8.81239525796233e-17 -1.0 1.85060300417206e-15
outer loop
vertex 3.49999999999996 -15.9999999999999 3.99999999999998
vertex 2.49999999999999 -15.9999999999999 3.99999999999998
vertex 3.49999999999996 -15.9999999999999 3.0
endloop
endfacet
facet normal -8.81239525796233e-17 -1.0 1.85060300417206e-15
outer loop
vertex 11.5 -15.9999999999999 8.99999999999998
vertex 8.49999999999995 -15.9999999999999 8.99999999999999
vertex 2.5 -16.0 8.99999999999999
endloop
endfacet
facet normal -8.81239525796233e-17 -1.0 1.85060300417206e-15
outer loop
vertex 8.49999999999995 -15.9999999999999 8.99999999999999
vertex 11.5 -15.9999999999999 8.99999999999998
vertex 10.4999999999999 -15.9999999999999 8.99999999999999
endloop
endfacet
facet normal -8.81239525796233e-17 -1.0 1.85060300417206e-15
outer loop
vertex 8.49999999999995 -15.9999999999999 8.99999999999999
vertex 10.4999999999999 -15.9999999999999 8.99999999999999
vertex 8.49999999999995 -15.9999999999999 9.99999999999998
endloop
endfacet
facet normal -8.81239525796233e-17 -1.0 1.85060300417206e-15
outer loop
vertex 8.49999999999995 -15.9999999999999 9.99999999999998
vertex 10.4999999999999 -15.9999999999999 8.99999999999999
vertex 10.5 -15.9999999999999 9.99999999999999
endloop
endfacet
facet normal -8.81239525796233e-17 -1.0 1.85060300417206e-15
outer loop
vertex 16.0 -16.0 3.94795307556706e-14
vertex 12.5 -15.9999999999999 1.99999999999999
vertex 4.49999999999996 -16.0 1.99999999999999
endloop
endfacet
facet normal -8.81239525796233e-17 -1.0 1.85060300417206e-15
outer loop
vertex 12.5 -15.9999999999999 1.99999999999999
vertex 16.0 -16.0 3.94795307556706e-14
vertex 13.5 -15.9999999999999 3.99999999999999
endloop
endfacet
facet normal -8.81239525796233e-17 -1.0 1.85060300417206e-15
outer loop
vertex 13.5 -15.9999999999999 3.99999999999999
vertex 16.0 -16.0 3.94795307556706e-14
vertex 15.9999999999999 -15.9999999999999 16.0
endloop
endfacet
facet normal -8.81239525796233e-17 -1.0 1.85060300417206e-15
outer loop
vertex 4.49999999999996 -16.0 1.99999999999999
vertex 12.5 -15.9999999999999 1.99999999999999
vertex 5.49999999999996 -15.9999999999999 1.99999999999999
endloop
endfacet
facet normal -8.81239525796233e-17 -1.0 1.85060300417206e-15
outer loop
vertex 13.5 -15.9999999999999 3.99999999999999
vertex 15.9999999999999 -15.9999999999999 16.0
vertex 14.4999999999999 -16.0 9.99999999999999
endloop
endfacet
facet normal -8.81239525796233e-17 -1.0 1.85060300417206e-15
outer loop
vertex 13.5 -15.9999999999999 3.99999999999999
vertex 14.4999999999999 -16.0 9.99999999999999
vertex 13.5 -15.9999999999999 7.99999999999999
endloop
endfacet
facet normal -8.81239525796233e-17 -1.0 1.85060300417206e-15
outer loop
vertex 13.5 -15.9999999999999 7.99999999999999
vertex 14.4999999999999 -16.0 9.99999999999999
vertex 13.4999999999999 -15.9999999999999 8.99999999999999
endloop
endfacet
facet normal -8.81239525796233e-17 -1.0 1.85060300417206e-15
outer loop
vertex 13.5 -15.9999999999999 7.99999999999999
vertex 13.4999999999999 -15.9999999999999 8.99999999999999
vertex 11.5 -15.9999999999999 8.99999999999998
endloop
endfacet
facet normal -8.81239525796233e-17 -1.0 1.85060300417206e-15
outer loop
vertex 13.4999999999999 -15.9999999999999 8.99999999999999
vertex 14.4999999999999 -16.0 9.99999999999999
vertex 13.4999999999999 -15.9999999999999 9.99999999999998
endloop
endfacet
facet normal -8.81239525796233e-17 -1.0 1.85060300417206e-15
outer loop
vertex 14.4999999999999 -16.0 9.99999999999999
vertex 15.9999999999999 -15.9999999999999 16.0
vertex 14.4999999999999 -15.9999999999999 13.0
endloop
endfacet
facet normal -8.81239525796233e-17 -1.0 1.85060300417206e-15
outer loop
vertex 14.4999999999999 -15.9999999999999 13.0
vertex 15.9999999999999 -15.9999999999999 16.0
vertex 1.49999999999995 -15.9999999999999 13.0
endloop
endfacet
facet normal -8.81239525796233e-17 -1.0 1.85060300417206e-15
outer loop
vertex -8.45989944764369e-15 -16.0 -5.63993296509579e-15
vertex 1.49999999999996 -15.9999999999999 6.0
vertex 4.22994972382185e-15 -15.9999999999999 16.0
endloop
endfacet
facet normal -8.81239525796233e-17 -1.0 1.85060300417206e-15
outer loop
vertex 1.49999999999996 -15.9999999999999 6.0
vertex -8.45989944764369e-15 -16.0 -5.63993296509579e-15
vertex 2.49999999999999 -15.9999999999999 3.99999999999998
endloop
endfacet
facet normal -8.81239525796233e-17 -1.0 1.85060300417206e-15
outer loop
vertex 2.49999999999999 -15.9999999999999 3.99999999999998
vertex -8.45989944764369e-15 -16.0 -5.63993296509579e-15
vertex 4.49999999999996 -16.0 1.99999999999999
endloop
endfacet
facet normal -8.81239525796233e-17 -1.0 1.85060300417206e-15
outer loop
vertex 4.49999999999996 -16.0 1.99999999999999
vertex -8.45989944764369e-15 -16.0 -5.63993296509579e-15
vertex 16.0 -16.0 3.94795307556706e-14
endloop
endfacet
facet normal -8.81239525796233e-17 -1.0 1.85060300417206e-15
outer loop
vertex 2.49999999999999 -15.9999999999999 3.99999999999998
vertex 4.49999999999996 -16.0 1.99999999999999
vertex 3.49999999999996 -15.9999999999999 3.0
endloop
endfacet
facet normal -8.81239525796233e-17 -1.0 1.85060300417206e-15
outer loop
vertex 3.49999999999996 -15.9999999999999 3.0
vertex 4.49999999999996 -16.0 1.99999999999999
vertex 4.49999999999996 -15.9999999999999 2.99999999999999
endloop
endfacet
facet normal -8.81239525796233e-17 -1.0 1.85060300417206e-15
outer loop
vertex 1.49999999999996 -15.9999999999999 6.0
vertex 2.49999999999999 -15.9999999999999 3.99999999999998
vertex 2.5 -15.9999999999999 5.99999999999999
endloop
endfacet
facet normal -8.81239525796233e-17 -1.0 1.85060300417206e-15
outer loop
vertex 4.22994972382185e-15 -15.9999999999999 16.0
vertex 1.49999999999996 -15.9999999999999 6.0
vertex 1.49999999999995 -15.9999999999999 7.99999999999999
endloop
endfacet
facet normal -8.81239525796233e-17 -1.0 1.85060300417206e-15
outer loop
vertex 4.22994972382185e-15 -15.9999999999999 16.0
vertex 1.49999999999995 -15.9999999999999 7.99999999999999
vertex 1.49999999999995 -15.9999999999999 11.0
endloop
endfacet
facet normal -8.81239525796233e-17 -1.0 1.85060300417206e-15
outer loop
vertex 1.49999999999995 -15.9999999999999 11.0
vertex 1.49999999999995 -15.9999999999999 7.99999999999999
vertex 2.5 -16.0 8.99999999999999
endloop
endfacet
facet normal -8.81239525796233e-17 -1.0 1.85060300417206e-15
outer loop
vertex 2.5 -16.0 8.99999999999999
vertex 1.49999999999995 -15.9999999999999 7.99999999999999
vertex 13.5 -15.9999999999999 7.99999999999999
endloop
endfacet
facet normal -8.81239525796233e-17 -1.0 1.85060300417206e-15
outer loop
vertex 2.5 -16.0 8.99999999999999
vertex 13.5 -15.9999999999999 7.99999999999999
vertex 11.5 -15.9999999999999 8.99999999999998
endloop
endfacet
facet normal -8.81239525796233e-17 -1.0 1.85060300417206e-15
outer loop
vertex 1.49999999999995 -15.9999999999999 11.0
vertex 2.5 -16.0 8.99999999999999
vertex 2.5 -15.9999999999999 11.0
endloop
endfacet
facet normal -8.81239525796233e-17 -1.0 1.85060300417206e-15
outer loop
vertex 4.22994972382185e-15 -15.9999999999999 16.0
vertex 1.49999999999995 -15.9999999999999 11.0
vertex 1.49999999999995 -15.9999999999999 13.0
endloop
endfacet
facet normal -8.81239525796233e-17 -1.0 1.85060300417206e-15
outer loop
vertex 4.22994972382185e-15 -15.9999999999999 16.0
vertex 1.49999999999995 -15.9999999999999 13.0
vertex 15.9999999999999 -15.9999999999999 16.0
endloop
endfacet
facet normal -8.81239525796233e-17 -1.0 1.85060300417206e-15
outer loop
vertex 11.5 -15.9999999999999 8.99999999999998
vertex 12.5 -15.9999999999999 8.99999999999999
vertex 11.5 -15.9999999999999 9.99999999999998
endloop
endfacet
facet normal -8.81239525796233e-17 -1.0 1.85060300417206e-15
outer loop
vertex 12.5 -15.9999999999999 8.99999999999999
vertex 11.5 -15.9999999999999 8.99999999999998
vertex 13.4999999999999 -15.9999999999999 8.99999999999999
endloop
endfacet
facet normal -8.81239525796233e-17 -1.0 1.85060300417206e-15
outer loop
vertex 11.5 -15.9999999999999 9.99999999999998
vertex 12.5 -15.9999999999999 8.99999999999999
vertex 12.5 -15.9999999999999 9.99999999999999
endloop
endfacet
facet normal -8.81239525796233e-17 -1.0 1.85060300417206e-15
outer loop
vertex 7.49999999999994 -15.9999999999999 8.99999999999999
vertex 5.49999999999995 -15.9999999999999 8.99999999999999
vertex 8.49999999999995 -15.9999999999999 8.99999999999999
endloop
endfacet
facet normal -8.81239525796233e-17 -1.0 1.85060300417206e-15
outer loop
vertex 5.49999999999995 -15.9999999999999 8.99999999999999
vertex 7.49999999999994 -15.9999999999999 8.99999999999999
vertex 5.49999999999996 -15.9999999999999 9.99999999999999
endloop
endfacet
facet normal -8.81239525796233e-17 -1.0 1.85060300417206e-15
outer loop
vertex 5.49999999999996 -15.9999999999999 9.99999999999999
vertex 7.49999999999994 -15.9999999999999 8.99999999999999
vertex 7.49999999999993 -15.9999999999999 9.99999999999998
endloop
endfacet
facet normal -8.81239525796233e-17 -1.0 1.85060300417206e-15
outer loop
vertex 8.49999999999995 -15.9999999999999 8.99999999999999
vertex 3.49999999999995 -15.9999999999999 8.99999999999999
vertex 2.5 -16.0 8.99999999999999
endloop
endfacet
facet normal -8.81239525796233e-17 -1.0 1.85060300417206e-15
outer loop
vertex 3.49999999999995 -15.9999999999999 8.99999999999999
vertex 8.49999999999995 -15.9999999999999 8.99999999999999
vertex 5.49999999999995 -15.9999999999999 8.99999999999999
endloop
endfacet
facet normal -8.81239525796233e-17 -1.0 1.85060300417206e-15
outer loop
vertex 3.49999999999995 -15.9999999999999 8.99999999999999
vertex 5.49999999999995 -15.9999999999999 8.99999999999999
vertex 4.49999999999995 -15.9999999999999 8.99999999999999
endloop
endfacet
facet normal -8.81239525796233e-17 -1.0 1.85060300417206e-15
outer loop
vertex 3.49999999999995 -15.9999999999999 8.99999999999999
vertex 4.49999999999995 -15.9999999999999 8.99999999999999
vertex 3.49999999999995 -15.9999999999999 9.99999999999999
endloop
endfacet
facet normal -8.81239525796233e-17 -1.0 1.85060300417206e-15
outer loop
vertex 3.49999999999995 -15.9999999999999 9.99999999999999
vertex 4.49999999999995 -15.9999999999999 8.99999999999999
vertex 4.49999999999995 -15.9999999999999 9.99999999999999
endloop
endfacet
facet normal 6.16867668057354e-16 1.0 -2.64371857738866e-16
outer loop
vertex -1.69197988952874e-14 1.69197988952874e-14 16.0
vertex 16.0 2.8199664825479e-15 3.38395977905748e-14
vertex 0.0 0.0 0.0
endloop
endfacet
facet normal 6.16867668057354e-16 1.0 -2.64371857738866e-16
outer loop
vertex 16.0 2.8199664825479e-15 3.38395977905748e-14
vertex -1.69197988952874e-14 1.69197988952874e-14 16.0
vertex 15.9999999999999 -5.63993296509579e-15 16.0
endloop
endfacet
facet normal -1.0 -3.96557786608299e-16 -1.32185928869432e-16
outer loop
vertex 4.22994972382185e-15 -15.9999999999999 16.0
vertex 0.0 0.0 0.0
vertex -8.45989944764369e-15 -16.0 -5.63993296509579e-15
endloop
endfacet
facet normal -1.0 -3.96557786608299e-16 -1.32185928869432e-16
outer loop
vertex 0.0 0.0 0.0
vertex 4.22994972382185e-15 -15.9999999999999 16.0
vertex -1.69197988952874e-14 1.69197988952874e-14 16.0
endloop
endfacet
facet normal 1.0 -7.04991620636977e-16 1.40998324127395e-15
outer loop
vertex 16.0 2.8199664825479e-15 3.38395977905748e-14
vertex 15.9999999999999 -15.9999999999999 16.0
vertex 16.0 -16.0 3.94795307556706e-14
endloop
endfacet
facet normal 1.0 -7.04991620636977e-16 1.40998324127395e-15
outer loop
vertex 15.9999999999999 -15.9999999999999 16.0
vertex 16.0 2.8199664825479e-15 3.38395977905748e-14
vertex 15.9999999999999 -5.63993296509579e-15 16.0
endloop
endfacet
facet normal 2.46747067222942e-15 -1.97106498532097e-30 -1.0
outer loop
vertex 0.0 0.0 0.0
vertex 16.0 -16.0 3.94795307556706e-14
vertex -8.45989944764369e-15 -16.0 -5.63993296509579e-15
endloop
endfacet
facet normal 2.46747067222942e-15 -1.97106498532097e-30 -1.0
outer loop
vertex 16.0 -16.0 3.94795307556706e-14
vertex 0.0 0.0 0.0
vertex 16.0 2.8199664825479e-15 3.38395977905748e-14
endloop
endfacet
endsolid Pumpkin
