solid Zombie Body
facet normal 0.808342567945947 -2.46064957135852e-16 0.588712402490853
outer loop
vertex 13.5749722961622 0.0 2.23386279252743
vertex 13.2004931658385 -7.99999999999998 2.92168581318666
vertex 13.5749722961621 -8.0 2.23386279252743
endloop
endfacet
facet normal 0.933168944720507 3.736257184354e-16 0.359438062271116
outer loop
vertex 13.2004931658385 -7.99999999999998 2.92168581318666
vertex 13.5749722961622 0.0 2.23386279252743
vertex 13.2004931658385 -5.63993296509579e-15 2.92168581318666
endloop
endfacet
facet normal 0.628428981015116 -1.3826811970773e-16 0.777866965374095
outer loop
vertex 14.1147130569546 0.0 1.66639910387772
vertex 13.5749722961621 -8.0 2.23386279252743
vertex 14.1147130569546 -8.0 1.66639910387772
endloop
endfacet
facet normal 0.808342567945947 -2.46064957135853e-16 0.588712402490853
outer loop
vertex 13.5749722961621 -8.0 2.23386279252743
vertex 14.1147130569546 0.0 1.66639910387772
vertex 13.5749722961622 0.0 2.23386279252743
endloop
endfacet
facet normal 0.405688997556107 1.07715460533332e-16 0.914011180053024
outer loop
vertex 14.7829330073317 -7.99999999999998 1.25796645984093
vertex 14.1147130569546 0.0 1.66639910387772
vertex 14.1147130569546 -8.0 1.66639910387772
endloop
endfacet
facet normal 0.628428981015116 -1.3826811970773e-16 0.777866965374095
outer loop
vertex 14.1147130569546 0.0 1.66639910387772
vertex 14.7829330073317 -7.99999999999998 1.25796645984093
vertex 14.7829330073317 0.0 1.25796645984093
endloop
endfacet
facet normal 0.405688997556107 1.07715460533332e-16 0.914011180053024
outer loop
vertex 14.7829330073317 -7.99999999999998 1.25796645984093
vertex 15.5340940619607 -1.12798659301916e-14 1.0363988701413
vertex 14.7829330073317 0.0 1.25796645984093
endloop
endfacet
facet normal 0.155301979346418 -3.02910138188628e-17 0.987867043286233
outer loop
vertex 15.5340940619607 -1.12798659301916e-14 1.0363988701413
vertex 14.7829330073317 -7.99999999999998 1.25796645984093
vertex 15.5340940619607 -8.0 1.0363988701413
endloop
endfacet
facet normal -0.105668612107076 6.89530173238631e-17 0.994401400046965
outer loop
vertex 16.3170058363212 -8.0 1.0167957998591
vertex 15.5340940619607 -1.12798659301916e-14 1.0363988701413
vertex 15.5340940619607 -8.0 1.0363988701413
endloop
endfacet
facet normal 0.155301979346418 -3.02910138188628e-17 0.987867043286233
outer loop
vertex 15.5340940619607 -1.12798659301916e-14 1.0363988701413
vertex 16.3170058363212 -8.0 1.0167957998591
vertex 16.3170058363212 -5.63993296509579e-15 1.0167957998591
endloop
endfacet
facet normal -0.359438062271118 2.83589494686717e-16 0.933168944720507
outer loop
vertex 17.0783141868133 -8.0 1.20049316583847
vertex 16.3170058363212 -5.63993296509579e-15 1.0167957998591
vertex 16.3170058363212 -8.0 1.0167957998591
endloop
endfacet
facet normal -0.105668612107076 6.89530173238637e-17 0.994401400046965
outer loop
vertex 16.3170058363212 -5.63993296509579e-15 1.0167957998591
vertex 17.0783141868133 -8.0 1.20049316583847
vertex 17.0783141868133 -5.63993296509579e-15 1.20049316583847
endloop
endfacet
facet normal -0.588712402490854 1.97083278633136e-16 0.808342567945946
outer loop
vertex 17.7661372074725 -8.0 1.57497229616217
vertex 17.0783141868133 -5.63993296509579e-15 1.20049316583847
vertex 17.0783141868133 -8.0 1.20049316583847
endloop
endfacet
facet normal -0.359438062271118 2.83589494686717e-16 0.933168944720506
outer loop
vertex 17.0783141868133 -5.63993296509579e-15 1.20049316583847
vertex 17.7661372074725 -8.0 1.57497229616217
vertex 17.7661372074725 -5.63993296509579e-15 1.57497229616217
endloop
endfacet
facet normal -0.777866965374086 1.37367480601073e-17 0.628428981015128
outer loop
vertex 18.3336008961223 -8.0 2.11471305695464
vertex 17.7661372074725 -5.63993296509579e-15 1.57497229616217
vertex 17.7661372074725 -8.0 1.57497229616217
endloop
endfacet
facet normal -0.588712402490854 1.97083278633136e-16 0.808342567945946
outer loop
vertex 17.7661372074725 -5.63993296509579e-15 1.57497229616217
vertex 18.3336008961223 -8.0 2.11471305695464
vertex 18.3336008961223 -5.63993296509579e-15 2.11471305695464
endloop
endfacet
facet normal -0.914011180053024 1.51054884733943e-17 0.405688997556106
outer loop
vertex 18.7420335401591 -5.63993296509579e-15 2.78293300733167
vertex 18.3336008961223 -8.0 2.11471305695464
vertex 18.7420335401591 -8.0 2.78293300733167
endloop
endfacet
facet normal -0.777866965374086 1.37367480601073e-17 0.628428981015128
outer loop
vertex 18.3336008961223 -8.0 2.11471305695464
vertex 18.7420335401591 -5.63993296509579e-15 2.78293300733167
vertex 18.3336008961223 -5.63993296509579e-15 2.11471305695464
endloop
endfacet
facet normal -0.987867043286235 3.65905147701752e-16 0.155301979346406
outer loop
vertex 18.9636011298587 -5.63993296509579e-15 3.53409406196075
vertex 18.7420335401591 -8.0 2.78293300733167
vertex 18.9636011298587 -8.0 3.53409406196075
endloop
endfacet
facet normal -0.914011180053024 1.51054884733943e-17 0.405688997556106
outer loop
vertex 18.7420335401591 -8.0 2.78293300733167
vertex 18.9636011298587 -5.63993296509579e-15 3.53409406196075
vertex 18.7420335401591 -5.63993296509579e-15 2.78293300733167
endloop
endfacet
facet normal -0.994401400046965 6.86631864153298e-16 -0.105668612107074
outer loop
vertex 18.9832042001409 0.0 4.31700583632123
vertex 18.9636011298587 -8.0 3.53409406196075
vertex 18.9832042001409 -8.0 4.31700583632123
endloop
endfacet
facet normal -0.987867043286235 3.65905147701751e-16 0.155301979346406
outer loop
vertex 18.9636011298587 -8.0 3.53409406196075
vertex 18.9832042001409 0.0 4.31700583632123
vertex 18.9636011298587 -5.63993296509579e-15 3.53409406196075
endloop
endfacet
facet normal -0.933168944720508 2.8827945477048e-16 -0.359438062271114
outer loop
vertex 18.7995068341615 0.0 5.07831418681334
vertex 18.9832042001409 -8.0 4.31700583632123
vertex 18.7995068341615 -8.0 5.07831418681334
endloop
endfacet
facet normal -0.994401400046965 6.86631864153298e-16 -0.105668612107074
outer loop
vertex 18.9832042001409 -8.0 4.31700583632123
vertex 18.7995068341615 0.0 5.07831418681334
vertex 18.9832042001409 0.0 4.31700583632123
endloop
endfacet
facet normal -0.808342567945942 -3.60115307964532e-16 -0.588712402490859
outer loop
vertex 18.4250277038378 -5.63993296509579e-15 5.76613720747257
vertex 18.7995068341615 -8.0 5.07831418681334
vertex 18.4250277038378 -8.0 5.76613720747257
endloop
endfacet
facet normal -0.933168944720508 2.88279454770479e-16 -0.359438062271114
outer loop
vertex 18.7995068341615 -8.0 5.07831418681334
vertex 18.4250277038378 -5.63993296509579e-15 5.76613720747257
vertex 18.7995068341615 0.0 5.07831418681334
endloop
endfacet
facet normal -0.628428981015126 -5.40430809251327e-16 -0.777866965374087
outer loop
vertex 17.8852869430453 -5.63993296509579e-15 6.33360089612227
vertex 18.4250277038378 -8.0 5.76613720747257
vertex 17.8852869430454 -8.0 6.33360089612227
endloop
endfacet
facet normal -0.808342567945942 -3.60115307964533e-16 -0.58871240249086
outer loop
vertex 18.4250277038378 -8.0 5.76613720747257
vertex 17.8852869430453 -5.63993296509579e-15 6.33360089612227
vertex 18.4250277038378 -5.63993296509579e-15 5.76613720747257
endloop
endfacet
facet normal -0.628428981015126 -5.40430809251327e-16 -0.777866965374087
outer loop
vertex 17.8852869430453 -5.63993296509579e-15 6.33360089612227
vertex 17.2170669926683 -8.0 6.74203354015907
vertex 17.2170669926683 -5.63993296509579e-15 6.74203354015907
endloop
endfacet
facet normal -0.40568899755611 -2.1268903793216e-17 -0.914011180053023
outer loop
vertex 17.2170669926683 -8.0 6.74203354015907
vertex 17.8852869430453 -5.63993296509579e-15 6.33360089612227
vertex 17.8852869430454 -8.0 6.33360089612227
endloop
endfacet
facet normal -0.155301979346415 2.18620350558327e-16 -0.987867043286234
outer loop
vertex 16.4659059380392 -5.63993296509579e-15 6.9636011298587
vertex 17.2170669926683 -8.0 6.74203354015907
vertex 16.4659059380392 -8.0 6.9636011298587
endloop
endfacet
facet normal -0.40568899755611 -2.1268903793216e-17 -0.914011180053023
outer loop
vertex 17.2170669926683 -8.0 6.74203354015907
vertex 16.4659059380392 -5.63993296509579e-15 6.9636011298587
vertex 17.2170669926683 -5.63993296509579e-15 6.74203354015907
endloop
endfacet
facet normal -0.155301979346415 2.18620350558327e-16 -0.987867043286234
outer loop
vertex 16.4659059380392 -5.63993296509579e-15 6.9636011298587
vertex 15.6829941636788 -8.0 6.98320420014089
vertex 15.6829941636788 -5.63993296509579e-15 6.98320420014089
endloop
endfacet
facet normal 0.105668612107078 1.77701138995742e-17 -0.994401400046965
outer loop
vertex 15.6829941636788 -8.0 6.98320420014089
vertex 16.4659059380392 -5.63993296509579e-15 6.9636011298587
vertex 16.4659059380392 -8.0 6.9636011298587
endloop
endfacet
facet normal 0.105668612107078 1.77701138995742e-17 -0.994401400046965
outer loop
vertex 15.6829941636788 -5.63993296509579e-15 6.98320420014089
vertex 14.9216858131867 -8.0 6.79950683416152
vertex 14.9216858131867 -5.63993296509579e-15 6.79950683416152
endloop
endfacet
facet normal 0.359438062271109 -3.40518243628377e-16 -0.93316894472051
outer loop
vertex 14.9216858131867 -8.0 6.79950683416152
vertex 15.6829941636788 -5.63993296509579e-15 6.98320420014089
vertex 15.6829941636788 -8.0 6.98320420014089
endloop
endfacet
facet normal 0.588712402490857 -1.36860849284248e-15 -0.808342567945944
outer loop
vertex 14.2338627925274 -5.63993296509579e-15 6.42502770383783
vertex 14.9216858131867 -8.0 6.79950683416152
vertex 14.2338627925274 -8.0 6.42502770383783
endloop
endfacet
facet normal 0.359438062271109 -3.40518243628377e-16 -0.93316894472051
outer loop
vertex 14.9216858131867 -8.0 6.79950683416152
vertex 14.2338627925274 -5.63993296509579e-15 6.42502770383783
vertex 14.9216858131867 -5.63993296509579e-15 6.79950683416152
endloop
endfacet
facet normal 0.777866965374092 -1.6928867451854e-15 -0.628428981015119
outer loop
vertex 13.6663991038777 -5.63993296509579e-15 5.88528694304536
vertex 14.2338627925274 -8.0 6.42502770383783
vertex 13.6663991038777 -7.99999999999998 5.88528694304536
endloop
endfacet
facet normal 0.588712402490857 -1.36860849284248e-15 -0.808342567945944
outer loop
vertex 14.2338627925274 -8.0 6.42502770383783
vertex 13.6663991038777 -5.63993296509579e-15 5.88528694304536
vertex 14.2338627925274 -5.63993296509579e-15 6.42502770383783
endloop
endfacet
facet normal 0.91401118005302 -1.04307613166023e-15 -0.405688997556115
outer loop
vertex 13.2579664598409 0.0 5.21706699266832
vertex 13.6663991038777 -7.99999999999998 5.88528694304536
vertex 13.2579664598409 -8.0 5.21706699266833
endloop
endfacet
facet normal 0.777866965374092 -1.6928867451854e-15 -0.628428981015119
outer loop
vertex 13.6663991038777 -7.99999999999998 5.88528694304536
vertex 13.2579664598409 0.0 5.21706699266832
vertex 13.6663991038777 -5.63993296509579e-15 5.88528694304536
endloop
endfacet
facet normal 0.987867043286233 -5.60402972740864e-16 -0.155301979346422
outer loop
vertex 13.0363988701413 -5.63993296509579e-15 4.46590593803925
vertex 13.2579664598409 -8.0 5.21706699266833
vertex 13.0363988701413 -8.0 4.46590593803925
endloop
endfacet
facet normal 0.914011180053021 -1.04307613166023e-15 -0.405688997556114
outer loop
vertex 13.2579664598409 -8.0 5.21706699266833
vertex 13.0363988701413 -5.63993296509579e-15 4.46590593803925
vertex 13.2579664598409 0.0 5.21706699266832
endloop
endfacet
facet normal 0.994401400046964 1.86833580259928e-16 0.105668612107086
outer loop
vertex 13.0167957998591 -5.63993296509579e-15 3.68299416367876
vertex 13.0363988701413 -8.0 4.46590593803925
vertex 13.0167957998591 -8.0 3.68299416367877
endloop
endfacet
facet normal 0.987867043286233 -5.60402972740863e-16 -0.155301979346421
outer loop
vertex 13.0363988701413 -8.0 4.46590593803925
vertex 13.0167957998591 -5.63993296509579e-15 3.68299416367876
vertex 13.0363988701413 -5.63993296509579e-15 4.46590593803925
endloop
endfacet
facet normal 0.933168944720507 3.736257184354e-16 0.359438062271116
outer loop
vertex 13.2004931658385 -7.99999999999998 2.92168581318666
vertex 13.0167957998591 -5.63993296509579e-15 3.68299416367876
vertex 13.0167957998591 -8.0 3.68299416367877
endloop
endfacet
facet normal 0.994401400046964 1.86833580259928e-16 0.105668612107086
outer loop
vertex 13.0167957998591 -5.63993296509579e-15 3.68299416367876
vertex 13.2004931658385 -7.99999999999998 2.92168581318666
vertex 13.2004931658385 -5.63993296509579e-15 2.92168581318666
endloop
endfacet
facet normal 4.83114532774286e-16 1.0 3.07853966239579e-17
outer loop
vertex 15.5340940619607 -8.0 1.0363988701413
vertex 17.0783141868133 -8.0 1.20049316583847
vertex 16.3170058363212 -8.0 1.0167957998591
endloop
endfacet
facet normal 4.83114532774286e-16 1.0 3.07853966239579e-17
outer loop
vertex 17.0783141868133 -8.0 1.20049316583847
vertex 15.5340940619607 -8.0 1.0363988701413
vertex 14.7829330073317 -7.99999999999998 1.25796645984093
endloop
endfacet
facet normal 4.83114532774286e-16 1.0 3.07853966239579e-17
outer loop
vertex 17.0783141868133 -8.0 1.20049316583847
vertex 14.7829330073317 -7.99999999999998 1.25796645984093
vertex 17.7661372074725 -8.0 1.57497229616217
endloop
endfacet
facet normal 4.83114532774286e-16 1.0 3.07853966239579e-17
outer loop
vertex 17.7661372074725 -8.0 1.57497229616217
vertex 14.7829330073317 -7.99999999999998 1.25796645984093
vertex 14.1147130569546 -8.0 1.66639910387772
endloop
endfacet
facet normal 4.83114532774286e-16 1.0 3.07853966239579e-17
outer loop
vertex 17.7661372074725 -8.0 1.57497229616217
vertex 14.1147130569546 -8.0 1.66639910387772
vertex 18.3336008961223 -8.0 2.11471305695464
endloop
endfacet
facet normal 4.83114532774286e-16 1.0 3.07853966239579e-17
outer loop
vertex 18.3336008961223 -8.0 2.11471305695464
vertex 14.1147130569546 -8.0 1.66639910387772
vertex 13.5749722961621 -8.0 2.23386279252743
endloop
endfacet
facet normal 4.83114532774286e-16 1.0 3.07853966239579e-17
outer loop
vertex 18.3336008961223 -8.0 2.11471305695464
vertex 13.5749722961621 -8.0 2.23386279252743
vertex 18.7420335401591 -8.0 2.78293300733167
endloop
endfacet
facet normal 4.83114532774286e-16 1.0 3.07853966239579e-17
outer loop
vertex 18.7420335401591 -8.0 2.78293300733167
vertex 13.5749722961621 -8.0 2.23386279252743
vertex 13.2004931658385 -7.99999999999998 2.92168581318666
endloop
endfacet
facet normal 4.83114532774286e-16 1.0 3.07853966239579e-17
outer loop
vertex 18.7420335401591 -8.0 2.78293300733167
vertex 13.2004931658385 -7.99999999999998 2.92168581318666
vertex 18.9636011298587 -8.0 3.53409406196075
endloop
endfacet
facet normal 4.83114532774286e-16 1.0 3.07853966239579e-17
outer loop
vertex 18.9636011298587 -8.0 3.53409406196075
vertex 13.2004931658385 -7.99999999999998 2.92168581318666
vertex 13.0167957998591 -8.0 3.68299416367877
endloop
endfacet
facet normal 4.83114532774286e-16 1.0 3.07853966239579e-17
outer loop
vertex 18.9636011298587 -8.0 3.53409406196075
vertex 13.0167957998591 -8.0 3.68299416367877
vertex 18.9832042001409 -8.0 4.31700583632123
endloop
endfacet
facet normal 4.83114532774286e-16 1.0 3.07853966239579e-17
outer loop
vertex 18.9832042001409 -8.0 4.31700583632123
vertex 13.0167957998591 -8.0 3.68299416367877
vertex 13.0363988701413 -8.0 4.46590593803925
endloop
endfacet
facet normal 4.83114532774286e-16 1.0 3.07853966239579e-17
outer loop
vertex 18.9832042001409 -8.0 4.31700583632123
vertex 13.0363988701413 -8.0 4.46590593803925
vertex 18.7995068341615 -8.0 5.07831418681334
endloop
endfacet
facet normal 4.83114532774286e-16 1.0 3.07853966239579e-17
outer loop
vertex 18.7995068341615 -8.0 5.07831418681334
vertex 13.0363988701413 -8.0 4.46590593803925
vertex 13.2579664598409 -8.0 5.21706699266833
endloop
endfacet
facet normal 4.83114532774286e-16 1.0 3.07853966239579e-17
outer loop
vertex 18.7995068341615 -8.0 5.07831418681334
vertex 13.2579664598409 -8.0 5.21706699266833
vertex 18.4250277038378 -8.0 5.76613720747257
endloop
endfacet
facet normal 4.83114532774286e-16 1.0 3.07853966239579e-17
outer loop
vertex 18.4250277038378 -8.0 5.76613720747257
vertex 13.2579664598409 -8.0 5.21706699266833
vertex 13.6663991038777 -7.99999999999998 5.88528694304536
endloop
endfacet
facet normal 4.83114532774286e-16 1.0 3.07853966239579e-17
outer loop
vertex 18.4250277038378 -8.0 5.76613720747257
vertex 13.6663991038777 -7.99999999999998 5.88528694304536
vertex 17.8852869430454 -8.0 6.33360089612227
endloop
endfacet
facet normal 4.83114532774286e-16 1.0 3.07853966239579e-17
outer loop
vertex 17.8852869430454 -8.0 6.33360089612227
vertex 13.6663991038777 -7.99999999999998 5.88528694304536
vertex 14.2338627925274 -8.0 6.42502770383783
endloop
endfacet
facet normal 4.83114532774286e-16 1.0 3.07853966239579e-17
outer loop
vertex 17.8852869430454 -8.0 6.33360089612227
vertex 14.2338627925274 -8.0 6.42502770383783
vertex 17.2170669926683 -8.0 6.74203354015907
endloop
endfacet
facet normal 4.83114532774286e-16 1.0 3.07853966239579e-17
outer loop
vertex 17.2170669926683 -8.0 6.74203354015907
vertex 14.2338627925274 -8.0 6.42502770383783
vertex 14.9216858131867 -8.0 6.79950683416152
endloop
endfacet
facet normal 4.83114532774286e-16 1.0 3.07853966239579e-17
outer loop
vertex 17.2170669926683 -8.0 6.74203354015907
vertex 14.9216858131867 -8.0 6.79950683416152
vertex 16.4659059380392 -8.0 6.9636011298587
endloop
endfacet
facet normal 4.83114532774286e-16 1.0 3.07853966239579e-17
outer loop
vertex 16.4659059380392 -8.0 6.9636011298587
vertex 14.9216858131867 -8.0 6.79950683416152
vertex 15.6829941636788 -8.0 6.98320420014089
endloop
endfacet
facet normal 7.04991620636973e-17 1.0 3.28695988431938e-32
outer loop
vertex 0.0 0.0 0.0
vertex 15.5340940619607 -1.12798659301916e-14 1.0363988701413
vertex 32.0 -5.63993296509579e-15 2.14654165089461e-15
endloop
endfacet
facet normal 7.04991620636973e-17 1.0 3.28695988431938e-32
outer loop
vertex 15.5340940619607 -1.12798659301916e-14 1.0363988701413
vertex 0.0 0.0 0.0
vertex 14.7829330073317 0.0 1.25796645984093
endloop
endfacet
facet normal 7.04991620636973e-17 1.0 3.28695988431938e-32
outer loop
vertex 14.7829330073317 0.0 1.25796645984093
vertex 0.0 0.0 0.0
vertex 14.1147130569546 0.0 1.66639910387772
endloop
endfacet
facet normal 7.04991620636973e-17 1.0 3.28695988431938e-32
outer loop
vertex 14.1147130569546 0.0 1.66639910387772
vertex 0.0 0.0 0.0
vertex 7.99999999999996 -5.63993296509579e-15 8.0
endloop
endfacet
facet normal 7.04991620636973e-17 1.0 3.28695988431938e-32
outer loop
vertex 7.99999999999996 -5.63993296509579e-15 8.0
vertex 0.0 0.0 0.0
vertex 1.40998324127395e-15 0.0 24.0
endloop
endfacet
facet normal 7.04991620636973e-17 1.0 3.28695988431938e-32
outer loop
vertex 32.0 -5.63993296509579e-15 2.14654165089461e-15
vertex 15.5340940619607 -1.12798659301916e-14 1.0363988701413
vertex 16.3170058363212 -5.63993296509579e-15 1.0167957998591
endloop
endfacet
facet normal 7.04991620636973e-17 1.0 3.28695988431938e-32
outer loop
vertex 14.1147130569546 0.0 1.66639910387772
vertex 7.99999999999996 -5.63993296509579e-15 8.0
vertex 13.5749722961622 0.0 2.23386279252743
endloop
endfacet
facet normal 7.04991620636973e-17 1.0 3.28695988431938e-32
outer loop
vertex 13.5749722961622 0.0 2.23386279252743
vertex 7.99999999999996 -5.63993296509579e-15 8.0
vertex 13.2004931658385 -5.63993296509579e-15 2.92168581318666
endloop
endfacet
facet normal 7.04991620636973e-17 1.0 3.28695988431938e-32
outer loop
vertex 13.2004931658385 -5.63993296509579e-15 2.92168581318666
vertex 7.99999999999996 -5.63993296509579e-15 8.0
vertex 13.0167957998591 -5.63993296509579e-15 3.68299416367876
endloop
endfacet
facet normal 7.04991620636973e-17 1.0 3.28695988431938e-32
outer loop
vertex 13.0167957998591 -5.63993296509579e-15 3.68299416367876
vertex 7.99999999999996 -5.63993296509579e-15 8.0
vertex 13.0363988701413 -5.63993296509579e-15 4.46590593803925
endloop
endfacet
facet normal 7.04991620636973e-17 1.0 3.28695988431938e-32
outer loop
vertex 13.0363988701413 -5.63993296509579e-15 4.46590593803925
vertex 7.99999999999996 -5.63993296509579e-15 8.0
vertex 13.2579664598409 0.0 5.21706699266832
endloop
endfacet
facet normal 7.04991620636973e-17 1.0 3.28695988431938e-32
outer loop
vertex 13.2579664598409 0.0 5.21706699266832
vertex 7.99999999999996 -5.63993296509579e-15 8.0
vertex 13.6663991038777 -5.63993296509579e-15 5.88528694304536
endloop
endfacet
facet normal 7.04991620636973e-17 1.0 3.28695988431938e-32
outer loop
vertex 13.6663991038777 -5.63993296509579e-15 5.88528694304536
vertex 7.99999999999996 -5.63993296509579e-15 8.0
vertex 14.2338627925274 -5.63993296509579e-15 6.42502770383783
endloop
endfacet
facet normal 7.04991620636973e-17 1.0 3.28695988431938e-32
outer loop
vertex 14.2338627925274 -5.63993296509579e-15 6.42502770383783
vertex 7.99999999999996 -5.63993296509579e-15 8.0
vertex 14.9216858131867 -5.63993296509579e-15 6.79950683416152
endloop
endfacet
facet normal 7.04991620636973e-17 1.0 3.28695988431938e-32
outer loop
vertex 14.9216858131867 -5.63993296509579e-15 6.79950683416152
vertex 7.99999999999996 -5.63993296509579e-15 8.0
vertex 15.6829941636788 -5.63993296509579e-15 6.98320420014089
endloop
endfacet
facet normal 7.04991620636973e-17 1.0 3.28695988431938e-32
outer loop
vertex 7.99999999999996 -5.63993296509579e-15 8.0
vertex 1.40998324127395e-15 0.0 24.0
vertex 7.99999999999997 -5.63993296509579e-15 24.0
endloop
endfacet
facet normal 7.04991620636973e-17 1.0 3.28695988431938e-32
outer loop
vertex 32.0 -5.63993296509579e-15 2.14654165089461e-15
vertex 24.0 0.0 8.0
vertex 32.0 -5.63993296509579e-15 24.0
endloop
endfacet
facet normal 7.04991620636973e-17 1.0 3.28695988431938e-32
outer loop
vertex 24.0 0.0 8.0
vertex 32.0 -5.63993296509579e-15 2.14654165089461e-15
vertex 18.3336008961223 -5.63993296509579e-15 2.11471305695464
endloop
endfacet
facet normal 7.04991620636973e-17 1.0 3.28695988431938e-32
outer loop
vertex 18.3336008961223 -5.63993296509579e-15 2.11471305695464
vertex 32.0 -5.63993296509579e-15 2.14654165089461e-15
vertex 17.7661372074725 -5.63993296509579e-15 1.57497229616217
endloop
endfacet
facet normal 7.04991620636973e-17 1.0 3.28695988431938e-32
outer loop
vertex 17.7661372074725 -5.63993296509579e-15 1.57497229616217
vertex 32.0 -5.63993296509579e-15 2.14654165089461e-15
vertex 17.0783141868133 -5.63993296509579e-15 1.20049316583847
endloop
endfacet
facet normal 7.04991620636973e-17 1.0 3.28695988431938e-32
outer loop
vertex 17.0783141868133 -5.63993296509579e-15 1.20049316583847
vertex 32.0 -5.63993296509579e-15 2.14654165089461e-15
vertex 16.3170058363212 -5.63993296509579e-15 1.0167957998591
endloop
endfacet
facet normal 7.04991620636973e-17 1.0 3.28695988431938e-32
outer loop
vertex 24.0 0.0 8.0
vertex 18.3336008961223 -5.63993296509579e-15 2.11471305695464
vertex 18.7420335401591 -5.63993296509579e-15 2.78293300733167
endloop
endfacet
facet normal 7.04991620636973e-17 1.0 3.28695988431938e-32
outer loop
vertex 24.0 0.0 8.0
vertex 18.7420335401591 -5.63993296509579e-15 2.78293300733167
vertex 18.9636011298587 -5.63993296509579e-15 3.53409406196075
endloop
endfacet
facet normal 7.04991620636973e-17 1.0 3.28695988431938e-32
outer loop
vertex 24.0 0.0 8.0
vertex 18.9636011298587 -5.63993296509579e-15 3.53409406196075
vertex 18.9832042001409 0.0 4.31700583632123
endloop
endfacet
facet normal 7.04991620636973e-17 1.0 3.28695988431938e-32
outer loop
vertex 24.0 0.0 8.0
vertex 18.9832042001409 0.0 4.31700583632123
vertex 18.7995068341615 0.0 5.07831418681334
endloop
endfacet
facet normal 7.04991620636973e-17 1.0 3.28695988431938e-32
outer loop
vertex 24.0 0.0 8.0
vertex 18.7995068341615 0.0 5.07831418681334
vertex 18.4250277038378 -5.63993296509579e-15 5.76613720747257
endloop
endfacet
facet normal 7.04991620636973e-17 1.0 3.28695988431938e-32
outer loop
vertex 24.0 0.0 8.0
vertex 18.4250277038378 -5.63993296509579e-15 5.76613720747257
vertex 17.8852869430453 -5.63993296509579e-15 6.33360089612227
endloop
endfacet
facet normal 7.04991620636973e-17 1.0 3.28695988431938e-32
outer loop
vertex 24.0 0.0 8.0
vertex 17.8852869430453 -5.63993296509579e-15 6.33360089612227
vertex 17.2170669926683 -5.63993296509579e-15 6.74203354015907
endloop
endfacet
facet normal 7.04991620636973e-17 1.0 3.28695988431938e-32
outer loop
vertex 24.0 0.0 8.0
vertex 17.2170669926683 -5.63993296509579e-15 6.74203354015907
vertex 16.4659059380392 -5.63993296509579e-15 6.9636011298587
endloop
endfacet
facet normal 7.04991620636973e-17 1.0 3.28695988431938e-32
outer loop
vertex 24.0 0.0 8.0
vertex 16.4659059380392 -5.63993296509579e-15 6.9636011298587
vertex 15.6829941636788 -5.63993296509579e-15 6.98320420014089
endloop
endfacet
facet normal 7.04991620636973e-17 1.0 3.28695988431938e-32
outer loop
vertex 24.0 0.0 8.0
vertex 15.6829941636788 -5.63993296509579e-15 6.98320420014089
vertex 7.99999999999996 -5.63993296509579e-15 8.0
endloop
endfacet
facet normal 7.04991620636973e-17 1.0 3.28695988431938e-32
outer loop
vertex 32.0 -5.63993296509579e-15 24.0
vertex 24.0 0.0 8.0
vertex 24.0 0.0 24.0
endloop
endfacet
facet normal -3.52495810318487e-16 1.0 -3.88291550912845e-33
outer loop
vertex 7.99999999999997 -36.0000000000004 12.0
vertex 24.0 -36.0000000000004 8.0
vertex 7.99999999999997 -36.0000000000004 8.0
endloop
endfacet
facet normal -3.52495810318487e-16 1.0 -3.88291550912845e-33
outer loop
vertex 24.0 -36.0000000000004 8.0
vertex 7.99999999999997 -36.0000000000004 12.0
vertex 24.0 -36.0000000000004 12.0
endloop
endfacet
facet normal -4.40619762898109e-17 8.81239525796218e-17 1.0
outer loop
vertex 7.99999999999998 -44.0000000000004 12.0
vertex 24.0 -36.0000000000004 12.0
vertex 7.99999999999997 -36.0000000000004 12.0
endloop
endfacet
facet normal -4.40619762898109e-17 8.81239525796218e-17 1.0
outer loop
vertex 24.0 -36.0000000000004 12.0
vertex 7.99999999999998 -44.0000000000004 12.0
vertex 24.0 -44.0000000000004 12.0
endloop
endfacet
facet normal -5.55327750426404e-33 -8.41781039566527e-17 1.0
outer loop
vertex 24.0 -36.0000000000004 8.0
vertex 7.99999999999998 -7.99999999999998 8.0
vertex 7.99999999999997 -36.0000000000004 8.0
endloop
endfacet
facet normal -5.55327750426404e-33 -8.41781039566527e-17 1.0
outer loop
vertex 7.99999999999998 -7.99999999999998 8.0
vertex 24.0 -36.0000000000004 8.0
vertex 24.0 -7.99999999999998 8.0
endloop
endfacet
facet normal -5.55327750426404e-33 -8.41781039566527e-17 1.0
outer loop
vertex 7.99999999999998 -7.99999999999998 8.0
vertex 24.0 0.0 8.0
vertex 7.99999999999996 -5.63993296509579e-15 8.0
endloop
endfacet
facet normal -5.55327750426404e-33 -8.41781039566527e-17 1.0
outer loop
vertex 24.0 0.0 8.0
vertex 7.99999999999998 -7.99999999999998 8.0
vertex 24.0 -7.99999999999998 8.0
endloop
endfacet
facet normal -1.0 -3.88291550912743e-33 7.04991620636975e-16
outer loop
vertex 24.0 0.0 24.0
vertex 24.0 -7.99999999999998 8.0
vertex 24.0 -7.99999999999999 24.0
endloop
endfacet
facet normal -1.0 -3.88291550912743e-33 7.04991620636975e-16
outer loop
vertex 24.0 -7.99999999999998 8.0
vertex 24.0 0.0 24.0
vertex 24.0 0.0 8.0
endloop
endfacet
facet normal -0.0 -0.0 1.0
outer loop
vertex 32.0 -7.99999999999998 24.0
vertex 24.0 0.0 24.0
vertex 24.0 -7.99999999999999 24.0
endloop
endfacet
facet normal -0.0 -0.0 1.0
outer loop
vertex 24.0 0.0 24.0
vertex 32.0 -7.99999999999998 24.0
vertex 32.0 -5.63993296509579e-15 24.0
endloop
endfacet
facet normal 9.61352209959511e-16 -1.0 -1.28180294661268e-16
outer loop
vertex 32.0 -7.99999999999998 2.22019749185668e-15
vertex 24.0 -7.99999999999998 8.0
vertex 24.0 -7.99999999999998 1.68356207913303e-15
endloop
endfacet
facet normal 9.61352209959511e-16 -1.0 -1.28180294661268e-16
outer loop
vertex 24.0 -7.99999999999998 8.0
vertex 32.0 -7.99999999999998 2.22019749185668e-15
vertex 32.0 -7.99999999999998 24.0
endloop
endfacet
facet normal 9.61352209959511e-16 -1.0 -1.28180294661268e-16
outer loop
vertex 24.0 -7.99999999999998 8.0
vertex 32.0 -7.99999999999998 24.0
vertex 24.0 -7.99999999999999 24.0
endloop
endfacet
facet normal 1.0 -0.0 -0.0
outer loop
vertex 32.0 -5.63993296509579e-15 2.14654165089461e-15
vertex 32.0 -7.99999999999998 24.0
vertex 32.0 -7.99999999999998 2.22019749185668e-15
endloop
endfacet
facet normal 1.0 -0.0 -0.0
outer loop
vertex 32.0 -7.99999999999998 24.0
vertex 32.0 -5.63993296509579e-15 2.14654165089461e-15
vertex 32.0 -5.63993296509579e-15 24.0
endloop
endfacet
facet normal 1.0 3.27096287958101e-16 -9.91200872600302e-17
outer loop
vertex 24.0 -44.0000000000004 2.01501336346232e-15
vertex 24.0 -36.0000000000004 8.0
vertex 24.0 -44.0000000000004 12.0
endloop
endfacet
facet normal 1.0 3.27096287958101e-16 -9.91200872600302e-17
outer loop
vertex 24.0 -36.0000000000004 8.0
vertex 24.0 -44.0000000000004 2.01501336346232e-15
vertex 24.0 -7.99999999999998 1.68356207913303e-15
endloop
endfacet
facet normal 1.0 3.27096287958101e-16 -9.91200872600302e-17
outer loop
vertex 24.0 -36.0000000000004 8.0
vertex 24.0 -7.99999999999998 1.68356207913303e-15
vertex 24.0 -7.99999999999998 8.0
endloop
endfacet
facet normal 1.0 3.27096287958101e-16 -9.91200872600302e-17
outer loop
vertex 24.0 -36.0000000000004 12.0
vertex 24.0 -44.0000000000004 12.0
vertex 24.0 -36.0000000000004 8.0
endloop
endfacet
facet normal -1.0 3.097502726876e-17 -2.2302019633507e-16
outer loop
vertex 7.99999999999997 -36.0000000000004 12.0
vertex 7.99999999999998 -44.0000000000004 9.41742538015016e-16
vertex 7.99999999999998 -44.0000000000004 12.0
endloop
endfacet
facet normal -1.0 3.097502726876e-17 -2.2302019633507e-16
outer loop
vertex 7.99999999999998 -44.0000000000004 9.41742538015016e-16
vertex 7.99999999999997 -36.0000000000004 12.0
vertex 7.99999999999997 -36.0000000000004 8.0
endloop
endfacet
facet normal -1.0 3.097502726876e-17 -2.2302019633507e-16
outer loop
vertex 7.99999999999998 -44.0000000000004 9.41742538015016e-16
vertex 7.99999999999997 -36.0000000000004 8.0
vertex 7.99999999999998 -7.99999999999998 6.10291253685724e-16
endloop
endfacet
facet normal -1.0 3.097502726876e-17 -2.2302019633507e-16
outer loop
vertex 7.99999999999998 -7.99999999999998 6.10291253685724e-16
vertex 7.99999999999997 -36.0000000000004 8.0
vertex 7.99999999999998 -7.99999999999998 8.0
endloop
endfacet
facet normal 0.0 -1.0 0.0
outer loop
vertex 24.0 -44.0000000000004 2.01501336346232e-15
vertex 7.99999999999998 -44.0000000000004 12.0
vertex 7.99999999999998 -44.0000000000004 9.41742538015016e-16
endloop
endfacet
facet normal 0.0 -1.0 0.0
outer loop
vertex 7.99999999999998 -44.0000000000004 12.0
vertex 24.0 -44.0000000000004 2.01501336346232e-15
vertex 24.0 -44.0000000000004 12.0
endloop
endfacet
facet normal 6.70794265904567e-17 -9.20698012025807e-18 -1.0
outer loop
vertex 0.0 0.0 0.0
vertex 7.99999999999998 -7.99999999999998 6.10291253685724e-16
vertex -9.86988268891764e-15 -7.99999999999998 7.36558409620695e-17
endloop
endfacet
facet normal 6.70794265904567e-17 -9.20698012025807e-18 -1.0
outer loop
vertex 7.99999999999998 -7.99999999999998 6.10291253685724e-16
vertex 0.0 0.0 0.0
vertex 32.0 -5.63993296509579e-15 2.14654165089461e-15
endloop
endfacet
facet normal 6.70794265904567e-17 -9.20698012025807e-18 -1.0
outer loop
vertex 7.99999999999998 -7.99999999999998 6.10291253685724e-16
vertex 32.0 -5.63993296509579e-15 2.14654165089461e-15
vertex 24.0 -7.99999999999998 1.68356207913303e-15
endloop
endfacet
facet normal 6.70794265904567e-17 -9.20698012025807e-18 -1.0
outer loop
vertex 7.99999999999998 -7.99999999999998 6.10291253685724e-16
vertex 24.0 -7.99999999999998 1.68356207913303e-15
vertex 7.99999999999998 -44.0000000000004 9.41742538015016e-16
endloop
endfacet
facet normal 6.70794265904567e-17 -9.20698012025807e-18 -1.0
outer loop
vertex 24.0 -7.99999999999998 1.68356207913303e-15
vertex 32.0 -5.63993296509579e-15 2.14654165089461e-15
vertex 32.0 -7.99999999999998 2.22019749185668e-15
endloop
endfacet
facet normal 6.70794265904567e-17 -9.20698012025807e-18 -1.0
outer loop
vertex 24.0 -44.0000000000004 2.01501336346232e-15
vertex 7.99999999999998 -44.0000000000004 9.41742538015016e-16
vertex 24.0 -7.99999999999998 1.68356207913303e-15
endloop
endfacet
facet normal 1.0 1.40998324127395e-15 -3.52495810318487e-16
outer loop
vertex 7.99999999999998 -7.99999999999998 8.0
vertex 7.99999999999997 -5.63993296509579e-15 24.0
vertex 7.99999999999998 -7.99999999999998 24.0
endloop
endfacet
facet normal 1.0 1.40998324127395e-15 -3.52495810318487e-16
outer loop
vertex 7.99999999999997 -5.63993296509579e-15 24.0
vertex 7.99999999999998 -7.99999999999998 8.0
vertex 7.99999999999996 -5.63993296509579e-15 8.0
endloop
endfacet
facet normal -7.04991620636973e-16 7.04991620636978e-16 1.0
outer loop
vertex 7.99999999999998 -7.99999999999998 24.0
vertex 1.40998324127395e-15 0.0 24.0
vertex -3.24296145493008e-14 -7.99999999999998 24.0
endloop
endfacet
facet normal -7.04991620636973e-16 7.04991620636978e-16 1.0
outer loop
vertex 1.40998324127395e-15 0.0 24.0
vertex 7.99999999999998 -7.99999999999998 24.0
vertex 7.99999999999997 -5.63993296509579e-15 24.0
endloop
endfacet
facet normal 7.69081767967609e-17 -1.0 -2.43542559856409e-16
outer loop
vertex 7.99999999999998 -7.99999999999998 6.10291253685724e-16
vertex -3.24296145493008e-14 -7.99999999999998 24.0
vertex -9.86988268891764e-15 -7.99999999999998 7.36558409620695e-17
endloop
endfacet
facet normal 7.69081767967609e-17 -1.0 -2.43542559856409e-16
outer loop
vertex -3.24296145493008e-14 -7.99999999999998 24.0
vertex 7.99999999999998 -7.99999999999998 6.10291253685724e-16
vertex 7.99999999999998 -7.99999999999998 8.0
endloop
endfacet
facet normal 7.69081767967609e-17 -1.0 -2.43542559856409e-16
outer loop
vertex -3.24296145493008e-14 -7.99999999999998 24.0
vertex 7.99999999999998 -7.99999999999998 8.0
vertex 7.99999999999998 -7.99999999999998 24.0
endloop
endfacet
facet normal -1.0 2.73184252996828e-15 -4.40619762898109e-16
outer loop
vertex 1.40998324127395e-15 0.0 24.0
vertex -9.86988268891764e-15 -7.99999999999998 7.36558409620695e-17
vertex -3.24296145493008e-14 -7.99999999999998 24.0
endloop
endfacet
facet normal -1.0 2.73184252996828e-15 -4.40619762898109e-16
outer loop
vertex -9.86988268891764e-15 -7.99999999999998 7.36558409620695e-17
vertex 1.40998324127395e-15 0.0 24.0
vertex 0.0 0.0 0.0
endloop
endfacet
endsolid Zombie Body
