solid Skeleton Head
facet normal 1.0 -1.76247905159243e-15 5.28743715477731e-16
outer loop
vertex 16.0000000000001 -1.76247905159244e-15 -2.86402845883771e-15
vertex 16.0 -16.0 16.0
vertex 16.0 -16.0 -5.59587098880598e-15
endloop
endfacet
facet normal 1.0 -1.76247905159243e-15 5.28743715477731e-16
outer loop
vertex 16.0 -16.0 16.0
vertex 16.0000000000001 -1.76247905159244e-15 -2.86402845883771e-15
vertex 16.0000000000001 -2.46747067222941e-14 16.0
endloop
endfacet
facet normal -1.0 -7.49053596926786e-16 4.40619762898103e-17
outer loop
vertex 1.26898491714655e-14 -16.0 16.0
vertex 0.0 0.0 0.0
vertex 2.46747067222941e-14 -16.0 -5.59587098880598e-15
endloop
endfacet
facet normal -1.0 -7.49053596926786e-16 4.40619762898103e-17
outer loop
vertex 0.0 0.0 0.0
vertex 1.26898491714655e-14 -16.0 16.0
vertex 1.33948407921025e-14 -2.04447569984723e-14 16.0
endloop
endfacet
facet normal 6.69742039605106e-15 -1.0 6.3449245857328e-15
outer loop
vertex 10.0000000000001 -14.0 12.0
vertex 5.99999999999995 -14.0 10.0
vertex 10.0000000000001 -14.0 10.0
endloop
endfacet
facet normal 6.69742039605106e-15 -1.0 6.3449245857328e-15
outer loop
vertex 5.99999999999995 -14.0 10.0
vertex 10.0000000000001 -14.0 12.0
vertex 5.99999999999994 -14.0 12.0
endloop
endfacet
facet normal 1.0 1.33948407921027e-14 -2.11497486191102e-15
outer loop
vertex 5.99999999999995 -14.0 10.0
vertex 5.99999999999998 -16.0 12.0
vertex 5.99999999999996 -16.0 10.0
endloop
endfacet
facet normal 1.0 1.33948407921027e-14 -2.11497486191102e-15
outer loop
vertex 5.99999999999998 -16.0 12.0
vertex 5.99999999999995 -14.0 10.0
vertex 5.99999999999994 -14.0 12.0
endloop
endfacet
facet normal 1.39140394354077e-29 -2.81996648254792e-15 1.0
outer loop
vertex 5.99999999999996 -16.0 10.0
vertex 10.0000000000001 -14.0 10.0
vertex 5.99999999999995 -14.0 10.0
endloop
endfacet
facet normal 1.39140394354077e-29 -2.81996648254792e-15 1.0
outer loop
vertex 10.0000000000001 -14.0 10.0
vertex 5.99999999999996 -16.0 10.0
vertex 10.0 -16.0 10.0
endloop
endfacet
facet normal -1.0 4.93494134445883e-15 -1.72418921725065e-29
outer loop
vertex 10.0000000000001 -14.0 12.0
vertex 10.0 -16.0 10.0
vertex 10.0 -16.0 12.0
endloop
endfacet
facet normal -1.0 4.93494134445883e-15 -1.72418921725065e-29
outer loop
vertex 10.0 -16.0 10.0
vertex 10.0000000000001 -14.0 12.0
vertex 10.0000000000001 -14.0 10.0
endloop
endfacet
facet normal -2.11497486191093e-15 -1.0 1.83297821365618e-14
outer loop
vertex 5.99999999999999 -12.0 9.79999999999998
vertex 2.00000000000003 -12.0 7.80000000000003
vertex 5.99999999999998 -12.0 7.80000000000003
endloop
endfacet
facet normal -2.11497486191093e-15 -1.0 1.83297821365618e-14
outer loop
vertex 2.00000000000003 -12.0 7.80000000000003
vertex 5.99999999999999 -12.0 9.79999999999998
vertex 2.00000000000002 -12.0 9.79999999999998
endloop
endfacet
facet normal 1.0 -8.37177549506395e-15 -1.23373533611477e-15
outer loop
vertex 1.99999999999999 -16.0 7.80000000000003
vertex 2.00000000000002 -12.0 9.79999999999998
vertex 2.0 -16.0000000000001 9.8
endloop
endfacet
facet normal 1.0 -8.37177549506395e-15 -1.23373533611477e-15
outer loop
vertex 2.00000000000002 -12.0 9.79999999999998
vertex 1.99999999999999 -16.0 7.80000000000003
vertex 2.00000000000003 -12.0 7.80000000000003
endloop
endfacet
facet normal -0.0 -0.0 1.0
outer loop
vertex 5.99999999999998 -16.0 7.80000000000003
vertex 2.00000000000003 -12.0 7.80000000000003
vertex 1.99999999999999 -16.0 7.80000000000003
endloop
endfacet
facet normal -0.0 -0.0 1.0
outer loop
vertex 2.00000000000003 -12.0 7.80000000000003
vertex 5.99999999999998 -16.0 7.80000000000003
vertex 5.99999999999998 -12.0 7.80000000000003
endloop
endfacet
facet normal -1.0927370119873e-14 -1.0 2.18547402397468e-14
outer loop
vertex 14.0000000000001 -12.0 9.79999999999998
vertex 10.0 -12.0 7.80000000000003
vertex 14.0000000000001 -12.0 7.80000000000003
endloop
endfacet
facet normal -1.0927370119873e-14 -1.0 2.18547402397468e-14
outer loop
vertex 10.0 -12.0 7.80000000000003
vertex 14.0000000000001 -12.0 9.79999999999998
vertex 10.0 -12.0 9.79999999999998
endloop
endfacet
facet normal -0.0 -0.0 1.0
outer loop
vertex 10.0000000000001 -16.0 7.80000000000003
vertex 14.0000000000001 -12.0 7.80000000000003
vertex 10.0 -12.0 7.80000000000003
endloop
endfacet
facet normal -0.0 -0.0 1.0
outer loop
vertex 14.0000000000001 -12.0 7.80000000000003
vertex 10.0000000000001 -16.0 7.80000000000003
vertex 14.0 -16.0 7.80000000000003
endloop
endfacet
facet normal -1.0 8.45989944764372e-15 -8.70689442104796e-29
outer loop
vertex 14.0000000000001 -12.0 9.79999999999998
vertex 14.0 -16.0 7.80000000000003
vertex 14.0 -16.0 9.8
endloop
endfacet
facet normal -1.0 8.45989944764372e-15 -8.70689442104796e-29
outer loop
vertex 14.0 -16.0 7.80000000000003
vertex 14.0000000000001 -12.0 9.79999999999998
vertex 14.0000000000001 -12.0 7.80000000000003
endloop
endfacet
facet normal 3.17246229286638e-16 -3.26859751386234e-15 1.0
outer loop
vertex 5.99999999999998 -16.0 12.0
vertex 2.00000000000003 -12.0 12.0
vertex 2.0 -16.0 12.0
endloop
endfacet
facet normal 3.17246229286638e-16 -3.26859751386234e-15 1.0
outer loop
vertex 2.00000000000003 -12.0 12.0
vertex 5.99999999999998 -16.0 12.0
vertex 5.99999999999994 -14.0 12.0
endloop
endfacet
facet normal 3.17246229286638e-16 -3.26859751386234e-15 1.0
outer loop
vertex 14.0 -16.0 12.0
vertex 10.0000000000001 -14.0 12.0
vertex 10.0 -16.0 12.0
endloop
endfacet
facet normal 3.17246229286638e-16 -3.26859751386234e-15 1.0
outer loop
vertex 5.99999999999994 -14.0 12.0
vertex 14.0000000000001 -12.0 12.0
vertex 2.00000000000003 -12.0 12.0
endloop
endfacet
facet normal 3.17246229286638e-16 -3.26859751386234e-15 1.0
outer loop
vertex 14.0000000000001 -12.0 12.0
vertex 5.99999999999994 -14.0 12.0
vertex 10.0000000000001 -14.0 12.0
endloop
endfacet
facet normal 3.17246229286638e-16 -3.26859751386234e-15 1.0
outer loop
vertex 14.0000000000001 -12.0 12.0
vertex 10.0000000000001 -14.0 12.0
vertex 14.0 -16.0 12.0
endloop
endfacet
facet normal -1.0 8.45989944764376e-15 -1.25806462496225e-31
outer loop
vertex 14.0000000000001 -12.0 14.0
vertex 14.0 -16.0 12.0
vertex 14.0 -16.0 14.0
endloop
endfacet
facet normal -1.0 8.45989944764376e-15 -1.25806462496225e-31
outer loop
vertex 14.0 -16.0 12.0
vertex 14.0000000000001 -12.0 14.0
vertex 14.0000000000001 -12.0 12.0
endloop
endfacet
facet normal 0.0 0.0 -1.0
outer loop
vertex 2.00000000000003 -12.0 14.0
vertex 14.0 -16.0 14.0
vertex 2.0 -16.0 14.0
endloop
endfacet
facet normal 0.0 0.0 -1.0
outer loop
vertex 14.0 -16.0 14.0
vertex 2.00000000000003 -12.0 14.0
vertex 14.0000000000001 -12.0 14.0
endloop
endfacet
facet normal 1.0 -7.40241201668816e-15 8.72491114900773e-31
outer loop
vertex 2.00000000000003 -12.0 12.0
vertex 2.0 -16.0 14.0
vertex 2.0 -16.0 12.0
endloop
endfacet
facet normal 1.0 -7.40241201668816e-15 8.72491114900773e-31
outer loop
vertex 2.0 -16.0 14.0
vertex 2.00000000000003 -12.0 12.0
vertex 2.00000000000003 -12.0 14.0
endloop
endfacet
facet normal -3.28996089630587e-15 -1.0 -3.27030788830457e-45
outer loop
vertex 14.0000000000001 -12.0 14.0
vertex 2.00000000000003 -12.0 12.0
vertex 14.0000000000001 -12.0 12.0
endloop
endfacet
facet normal -3.28996089630587e-15 -1.0 -3.27030788830457e-45
outer loop
vertex 2.00000000000003 -12.0 12.0
vertex 14.0000000000001 -12.0 14.0
vertex 2.00000000000003 -12.0 14.0
endloop
endfacet
facet normal 1.87263399231696e-16 1.0 1.35490577091168e-15
outer loop
vertex 0.0 0.0 0.0
vertex 16.0000000000001 -2.46747067222941e-14 16.0
vertex 16.0000000000001 -1.76247905159244e-15 -2.86402845883771e-15
endloop
endfacet
facet normal 1.87263399231696e-16 1.0 1.35490577091168e-15
outer loop
vertex 16.0000000000001 -2.46747067222941e-14 16.0
vertex 0.0 0.0 0.0
vertex 1.33948407921025e-14 -2.04447569984723e-14 16.0
endloop
endfacet
facet normal -9.69363478375839e-16 -1.0 7.93115573216595e-16
outer loop
vertex 10.0 -16.0 12.0
vertex 10.0 -16.0 10.0
vertex 14.0 -16.0 12.0
endloop
endfacet
facet normal -9.69363478375839e-16 -1.0 7.93115573216595e-16
outer loop
vertex 16.0 -16.0 -5.59587098880598e-15
vertex 14.0 -16.0 7.80000000000003
vertex 2.46747067222941e-14 -16.0 -5.59587098880598e-15
endloop
endfacet
facet normal -9.69363478375839e-16 -1.0 7.93115573216595e-16
outer loop
vertex 14.0 -16.0 7.80000000000003
vertex 16.0 -16.0 -5.59587098880598e-15
vertex 16.0 -16.0 16.0
endloop
endfacet
facet normal -9.69363478375839e-16 -1.0 7.93115573216595e-16
outer loop
vertex 14.0 -16.0 7.80000000000003
vertex 16.0 -16.0 16.0
vertex 14.0 -16.0 9.8
endloop
endfacet
facet normal -9.69363478375839e-16 -1.0 7.93115573216595e-16
outer loop
vertex 14.0 -16.0 9.8
vertex 16.0 -16.0 16.0
vertex 14.0 -16.0 12.0
endloop
endfacet
facet normal -9.69363478375839e-16 -1.0 7.93115573216595e-16
outer loop
vertex 14.0 -16.0 9.8
vertex 14.0 -16.0 12.0
vertex 10.0 -16.0 9.8
endloop
endfacet
facet normal -9.69363478375839e-16 -1.0 7.93115573216595e-16
outer loop
vertex 10.0 -16.0 9.8
vertex 14.0 -16.0 12.0
vertex 10.0 -16.0 10.0
endloop
endfacet
facet normal -9.69363478375839e-16 -1.0 7.93115573216595e-16
outer loop
vertex 10.0 -16.0 9.8
vertex 10.0 -16.0 10.0
vertex 5.99999999999996 -16.0 9.8
endloop
endfacet
facet normal -9.69363478375839e-16 -1.0 7.93115573216595e-16
outer loop
vertex 5.99999999999996 -16.0 9.8
vertex 10.0 -16.0 10.0
vertex 2.0 -16.0000000000001 9.8
endloop
endfacet
facet normal -9.69363478375839e-16 -1.0 7.93115573216595e-16
outer loop
vertex 14.0 -16.0 12.0
vertex 16.0 -16.0 16.0
vertex 14.0 -16.0 14.0
endloop
endfacet
facet normal -9.69363478375839e-16 -1.0 7.93115573216595e-16
outer loop
vertex 14.0 -16.0 14.0
vertex 16.0 -16.0 16.0
vertex 2.0 -16.0 14.0
endloop
endfacet
facet normal -9.69363478375839e-16 -1.0 7.93115573216595e-16
outer loop
vertex 2.46747067222941e-14 -16.0 -5.59587098880598e-15
vertex 1.99999999999999 -16.0 7.80000000000003
vertex 1.26898491714655e-14 -16.0 16.0
endloop
endfacet
facet normal -9.69363478375839e-16 -1.0 7.93115573216595e-16
outer loop
vertex 1.99999999999999 -16.0 7.80000000000003
vertex 2.46747067222941e-14 -16.0 -5.59587098880598e-15
vertex 14.0 -16.0 7.80000000000003
endloop
endfacet
facet normal -9.69363478375839e-16 -1.0 7.93115573216595e-16
outer loop
vertex 1.99999999999999 -16.0 7.80000000000003
vertex 14.0 -16.0 7.80000000000003
vertex 10.0000000000001 -16.0 7.80000000000003
endloop
endfacet
facet normal -9.69363478375839e-16 -1.0 7.93115573216595e-16
outer loop
vertex 1.99999999999999 -16.0 7.80000000000003
vertex 10.0000000000001 -16.0 7.80000000000003
vertex 5.99999999999998 -16.0 7.80000000000003
endloop
endfacet
facet normal -9.69363478375839e-16 -1.0 7.93115573216595e-16
outer loop
vertex 1.26898491714655e-14 -16.0 16.0
vertex 1.99999999999999 -16.0 7.80000000000003
vertex 2.0 -16.0000000000001 9.8
endloop
endfacet
facet normal -9.69363478375839e-16 -1.0 7.93115573216595e-16
outer loop
vertex 1.26898491714655e-14 -16.0 16.0
vertex 2.0 -16.0000000000001 9.8
vertex 2.0 -16.0 12.0
endloop
endfacet
facet normal -9.69363478375839e-16 -1.0 7.93115573216595e-16
outer loop
vertex 2.0 -16.0 12.0
vertex 2.0 -16.0000000000001 9.8
vertex 5.99999999999996 -16.0 10.0
endloop
endfacet
facet normal -9.69363478375839e-16 -1.0 7.93115573216595e-16
outer loop
vertex 5.99999999999996 -16.0 10.0
vertex 2.0 -16.0000000000001 9.8
vertex 10.0 -16.0 10.0
endloop
endfacet
facet normal -9.69363478375839e-16 -1.0 7.93115573216595e-16
outer loop
vertex 2.0 -16.0 12.0
vertex 5.99999999999996 -16.0 10.0
vertex 5.99999999999998 -16.0 12.0
endloop
endfacet
facet normal -9.69363478375839e-16 -1.0 7.93115573216595e-16
outer loop
vertex 1.26898491714655e-14 -16.0 16.0
vertex 2.0 -16.0 12.0
vertex 2.0 -16.0 14.0
endloop
endfacet
facet normal -9.69363478375839e-16 -1.0 7.93115573216595e-16
outer loop
vertex 1.26898491714655e-14 -16.0 16.0
vertex 2.0 -16.0 14.0
vertex 16.0 -16.0 16.0
endloop
endfacet
facet normal -9.69363478375839e-16 -1.0 7.93115573216595e-16
outer loop
vertex 10.0 -16.0 9.8
vertex 5.99999999999998 -16.0 7.80000000000003
vertex 10.0000000000001 -16.0 7.80000000000003
endloop
endfacet
facet normal -9.69363478375839e-16 -1.0 7.93115573216595e-16
outer loop
vertex 5.99999999999998 -16.0 7.80000000000003
vertex 10.0 -16.0 9.8
vertex 5.99999999999996 -16.0 9.8
endloop
endfacet
facet normal -0.0 -0.0 1.0
outer loop
vertex 1.26898491714655e-14 -16.0 16.0
vertex 5.26807913740074 -9.23960009700505 16.0
vertex 1.33948407921025e-14 -2.04447569984723e-14 16.0
endloop
endfacet
facet normal -0.0 -0.0 1.0
outer loop
vertex 5.26807913740074 -9.23960009700505 16.0
vertex 1.26898491714655e-14 -16.0 16.0
vertex 5.68199919685332 -9.9044348969212 16.0
endloop
endfacet
facet normal -0.0 -0.0 1.0
outer loop
vertex 5.68199919685332 -9.9044348969212 16.0
vertex 1.26898491714655e-14 -16.0 16.0
vertex 16.0 -16.0 16.0
endloop
endfacet
facet normal -0.0 -0.0 1.0
outer loop
vertex 1.33948407921025e-14 -2.04447569984723e-14 16.0
vertex 5.26807913740074 -9.23960009700505 16.0
vertex 5.04033497002165 -8.49028859901399 16.0
endloop
endfacet
facet normal -0.0 -0.0 1.0
outer loop
vertex 1.33948407921025e-14 -2.04447569984723e-14 16.0
vertex 5.04033497002165 -8.49028859901399 16.0
vertex 5.01428708335786 -7.70756474324038 16.0
endloop
endfacet
facet normal -0.0 -0.0 1.0
outer loop
vertex 5.68199919685332 -9.9044348969212 16.0
vertex 16.0 -16.0 16.0
vertex 10.2819991968533 -9.9044348969212 16.0
endloop
endfacet
facet normal -0.0 -0.0 1.0
outer loop
vertex 10.2819991968533 -9.9044348969212 16.0
vertex 16.0 -16.0 16.0
vertex 10.4394856058397 -9.74611281963717 16.0
endloop
endfacet
facet normal -0.0 -0.0 1.0
outer loop
vertex 10.4394856058397 -9.74611281963717 16.0
vertex 16.0 -16.0 16.0
vertex 10.8082894021607 -9.05523013305721 16.0
endloop
endfacet
facet normal -0.0 -0.0 1.0
outer loop
vertex 10.8082894021607 -9.05523013305721 16.0
vertex 16.0 -16.0 16.0
vertex 10.9857129166422 -8.29243525675965 16.0
endloop
endfacet
facet normal -0.0 -0.0 1.0
outer loop
vertex 1.33948407921025e-14 -2.04447569984723e-14 16.0
vertex 6.76039990299498 -5.26807913740076 16.0
vertex 16.0000000000001 -2.46747067222941e-14 16.0
endloop
endfacet
facet normal -0.0 -0.0 1.0
outer loop
vertex 6.76039990299498 -5.26807913740076 16.0
vertex 1.33948407921025e-14 -2.04447569984723e-14 16.0
vertex 6.09556510307882 -5.68199919685331 16.0
endloop
endfacet
facet normal -0.0 -0.0 1.0
outer loop
vertex 6.09556510307882 -5.68199919685331 16.0
vertex 1.33948407921025e-14 -2.04447569984723e-14 16.0
vertex 5.56051439416038 -6.25388718036288 16.0
endloop
endfacet
facet normal -0.0 -0.0 1.0
outer loop
vertex 5.56051439416038 -6.25388718036288 16.0
vertex 1.33948407921025e-14 -2.04447569984723e-14 16.0
vertex 5.19171059783932 -6.94476986694282 16.0
endloop
endfacet
facet normal -0.0 -0.0 1.0
outer loop
vertex 5.19171059783932 -6.94476986694282 16.0
vertex 1.33948407921025e-14 -2.04447569984723e-14 16.0
vertex 5.01428708335786 -7.70756474324038 16.0
endloop
endfacet
facet normal -0.0 -0.0 1.0
outer loop
vertex 16.0000000000001 -2.46747067222941e-14 16.0
vertex 6.76039990299498 -5.26807913740076 16.0
vertex 7.50971140098604 -5.04033497002164 16.0
endloop
endfacet
facet normal -0.0 -0.0 1.0
outer loop
vertex 16.0000000000001 -2.46747067222941e-14 16.0
vertex 7.50971140098604 -5.04033497002164 16.0
vertex 8.29243525675965 -5.01428708335787 16.0
endloop
endfacet
facet normal -0.0 -0.0 1.0
outer loop
vertex 16.0000000000001 -2.46747067222941e-14 16.0
vertex 8.29243525675965 -5.01428708335787 16.0
vertex 9.05523013305722 -5.19171059783933 16.0
endloop
endfacet
facet normal -0.0 -0.0 1.0
outer loop
vertex 16.0000000000001 -2.46747067222941e-14 16.0
vertex 9.05523013305722 -5.19171059783933 16.0
vertex 9.74611281963719 -5.56051439416039 16.0
endloop
endfacet
facet normal -0.0 -0.0 1.0
outer loop
vertex 16.0000000000001 -2.46747067222941e-14 16.0
vertex 9.74611281963719 -5.56051439416039 16.0
vertex 10.3180008031468 -6.09556510307882 16.0
endloop
endfacet
facet normal -0.0 -0.0 1.0
outer loop
vertex 16.0000000000001 -2.46747067222941e-14 16.0
vertex 10.3180008031468 -6.09556510307882 16.0
vertex 10.7319208625993 -6.76039990299501 16.0
endloop
endfacet
facet normal -0.0 -0.0 1.0
outer loop
vertex 16.0000000000001 -2.46747067222941e-14 16.0
vertex 10.7319208625993 -6.76039990299501 16.0
vertex 10.9596650299784 -7.50971140098604 16.0
endloop
endfacet
facet normal -0.0 -0.0 1.0
outer loop
vertex 16.0000000000001 -2.46747067222941e-14 16.0
vertex 10.9596650299784 -7.50971140098604 16.0
vertex 10.9857129166422 -8.29243525675965 16.0
endloop
endfacet
facet normal -0.0 -0.0 1.0
outer loop
vertex 16.0000000000001 -2.46747067222941e-14 16.0
vertex 10.9857129166422 -8.29243525675965 16.0
vertex 16.0 -16.0 16.0
endloop
endfacet
facet normal -8.95008893386781e-17 2.60241047461695e-16 -1.0
outer loop
vertex 16.0000000000001 -1.76247905159244e-15 -2.86402845883771e-15
vertex 2.46747067222941e-14 -16.0 -5.59587098880598e-15
vertex 0.0 0.0 0.0
endloop
endfacet
facet normal -8.95008893386781e-17 2.60241047461695e-16 -1.0
outer loop
vertex 2.46747067222941e-14 -16.0 -5.59587098880598e-15
vertex 16.0000000000001 -1.76247905159244e-15 -2.86402845883771e-15
vertex 16.0 -16.0 -5.59587098880598e-15
endloop
endfacet
facet normal -3.45046799184144e-31 4.65455165882488e-31 1.0
outer loop
vertex 5.04033497002165 -8.49028859901399 21.0
vertex 5.19171059783932 -6.94476986694282 21.0
vertex 5.01428708335786 -7.70756474324038 21.0
endloop
endfacet
facet normal -3.45046799184144e-31 4.65455165882488e-31 1.0
outer loop
vertex 5.19171059783932 -6.94476986694282 21.0
vertex 5.04033497002165 -8.49028859901399 21.0
vertex 5.26807913740074 -9.23960009700505 21.0
endloop
endfacet
facet normal -3.45046799184144e-31 4.65455165882488e-31 1.0
outer loop
vertex 5.19171059783932 -6.94476986694282 21.0
vertex 5.26807913740074 -9.23960009700505 21.0
vertex 5.56051439416038 -6.25388718036288 21.0
endloop
endfacet
facet normal -3.45046799184144e-31 4.65455165882488e-31 1.0
outer loop
vertex 5.56051439416038 -6.25388718036288 21.0
vertex 5.26807913740074 -9.23960009700505 21.0
vertex 5.68199919685332 -9.9044348969212 21.0
endloop
endfacet
facet normal -3.45046799184144e-31 4.65455165882488e-31 1.0
outer loop
vertex 5.56051439416038 -6.25388718036288 21.0
vertex 5.68199919685332 -9.9044348969212 21.0
vertex 6.09556510307882 -5.68199919685331 21.0
endloop
endfacet
facet normal -3.45046799184144e-31 4.65455165882488e-31 1.0
outer loop
vertex 6.09556510307882 -5.68199919685331 21.0
vertex 5.68199919685332 -9.9044348969212 21.0
vertex 10.2819991968533 -9.9044348969212 21.0
endloop
endfacet
facet normal -3.45046799184144e-31 4.65455165882488e-31 1.0
outer loop
vertex 6.09556510307882 -5.68199919685331 21.0
vertex 10.2819991968533 -9.9044348969212 21.0
vertex 6.76039990299498 -5.26807913740076 21.0
endloop
endfacet
facet normal -3.45046799184144e-31 4.65455165882488e-31 1.0
outer loop
vertex 6.76039990299498 -5.26807913740076 21.0
vertex 10.2819991968533 -9.9044348969212 21.0
vertex 7.50971140098604 -5.04033497002164 21.0
endloop
endfacet
facet normal -3.45046799184144e-31 4.65455165882488e-31 1.0
outer loop
vertex 7.50971140098604 -5.04033497002164 21.0
vertex 10.2819991968533 -9.9044348969212 21.0
vertex 8.29243525675965 -5.01428708335787 21.0
endloop
endfacet
facet normal -3.45046799184144e-31 4.65455165882488e-31 1.0
outer loop
vertex 8.29243525675965 -5.01428708335787 21.0
vertex 10.2819991968533 -9.9044348969212 21.0
vertex 9.05523013305722 -5.19171059783933 21.0
endloop
endfacet
facet normal -3.45046799184144e-31 4.65455165882488e-31 1.0
outer loop
vertex 9.05523013305722 -5.19171059783933 21.0
vertex 10.2819991968533 -9.9044348969212 21.0
vertex 9.74611281963719 -5.56051439416039 21.0
endloop
endfacet
facet normal -3.45046799184144e-31 4.65455165882488e-31 1.0
outer loop
vertex 9.74611281963719 -5.56051439416039 21.0
vertex 10.2819991968533 -9.9044348969212 21.0
vertex 10.3180008031468 -6.09556510307882 21.0
endloop
endfacet
facet normal -3.45046799184144e-31 4.65455165882488e-31 1.0
outer loop
vertex 10.3180008031468 -6.09556510307882 21.0
vertex 10.2819991968533 -9.9044348969212 21.0
vertex 10.4394856058397 -9.74611281963717 21.0
endloop
endfacet
facet normal -3.45046799184144e-31 4.65455165882488e-31 1.0
outer loop
vertex 10.3180008031468 -6.09556510307882 21.0
vertex 10.4394856058397 -9.74611281963717 21.0
vertex 10.7319208625993 -6.76039990299501 21.0
endloop
endfacet
facet normal -3.45046799184144e-31 4.65455165882488e-31 1.0
outer loop
vertex 10.7319208625993 -6.76039990299501 21.0
vertex 10.4394856058397 -9.74611281963717 21.0
vertex 10.8082894021607 -9.05523013305721 21.0
endloop
endfacet
facet normal -3.45046799184144e-31 4.65455165882488e-31 1.0
outer loop
vertex 10.7319208625993 -6.76039990299501 21.0
vertex 10.8082894021607 -9.05523013305721 21.0
vertex 10.9596650299784 -7.50971140098604 21.0
endloop
endfacet
facet normal -3.45046799184144e-31 4.65455165882488e-31 1.0
outer loop
vertex 10.9596650299784 -7.50971140098604 21.0
vertex 10.8082894021607 -9.05523013305721 21.0
vertex 10.9857129166422 -8.29243525675965 21.0
endloop
endfacet
facet normal 0.804155886278929 -0.594418464184071 0.0
outer loop
vertex 10.4394856058397 -9.74611281963717 16.0
vertex 10.2819991968533 -9.9044348969212 21.0
vertex 10.2819991968533 -9.9044348969212 16.0
endloop
endfacet
facet normal 0.708975391040363 -0.705233220218081 -0.0
outer loop
vertex 10.2819991968533 -9.9044348969212 21.0
vertex 10.4394856058397 -9.74611281963717 16.0
vertex 10.4394856058397 -9.74611281963717 21.0
endloop
endfacet
facet normal 0.936096467386902 -0.351743377685726 0.0
outer loop
vertex 10.8082894021607 -9.05523013305721 16.0
vertex 10.4394856058397 -9.74611281963717 21.0
vertex 10.4394856058397 -9.74611281963717 16.0
endloop
endfacet
facet normal 0.804155886278929 -0.594418464184071 0.0
outer loop
vertex 10.4394856058397 -9.74611281963717 21.0
vertex 10.8082894021607 -9.05523013305721 16.0
vertex 10.8082894021607 -9.05523013305721 21.0
endloop
endfacet
facet normal 0.995237638880728 -0.0974784189198539 0.0
outer loop
vertex 10.9857129166422 -8.29243525675965 16.0
vertex 10.8082894021607 -9.05523013305721 21.0
vertex 10.8082894021607 -9.05523013305721 16.0
endloop
endfacet
facet normal 0.936096467386902 -0.351743377685726 0.0
outer loop
vertex 10.8082894021607 -9.05523013305721 21.0
vertex 10.9857129166422 -8.29243525675965 16.0
vertex 10.9857129166422 -8.29243525675965 21.0
endloop
endfacet
facet normal 0.986555009992793 0.163429533004659 0.0
outer loop
vertex 10.9596650299784 -7.50971140098604 16.0
vertex 10.9857129166422 -8.29243525675965 21.0
vertex 10.9857129166422 -8.29243525675965 16.0
endloop
endfacet
facet normal 0.995237638880728 -0.0974784189198539 0.0
outer loop
vertex 10.9857129166422 -8.29243525675965 21.0
vertex 10.9596650299784 -7.50971140098604 16.0
vertex 10.9596650299784 -7.50971140098604 21.0
endloop
endfacet
facet normal 0.910640287533104 0.413200032334977 0.0
outer loop
vertex 10.7319208625993 -6.76039990299501 16.0
vertex 10.9596650299784 -7.50971140098604 21.0
vertex 10.9596650299784 -7.50971140098604 16.0
endloop
endfacet
facet normal 0.986555009992793 0.163429533004659 0.0
outer loop
vertex 10.9596650299784 -7.50971140098604 21.0
vertex 10.7319208625993 -6.76039990299501 16.0
vertex 10.7319208625993 -6.76039990299501 21.0
endloop
endfacet
facet normal 0.772666934382243 0.634811632307054 0.0
outer loop
vertex 10.3180008031468 -6.09556510307882 16.0
vertex 10.7319208625993 -6.76039990299501 21.0
vertex 10.7319208625993 -6.76039990299501 16.0
endloop
endfacet
facet normal 0.910640287533104 0.413200032334977 0.0
outer loop
vertex 10.7319208625993 -6.76039990299501 21.0
vertex 10.3180008031468 -6.09556510307882 16.0
vertex 10.3180008031468 -6.09556510307882 21.0
endloop
endfacet
facet normal 0.582037606545702 0.813161868613224 0.0
outer loop
vertex 9.74611281963719 -5.56051439416039 21.0
vertex 10.3180008031468 -6.09556510307882 16.0
vertex 9.74611281963719 -5.56051439416039 16.0
endloop
endfacet
facet normal 0.772666934382243 0.634811632307054 0.0
outer loop
vertex 10.3180008031468 -6.09556510307882 16.0
vertex 9.74611281963719 -5.56051439416039 21.0
vertex 10.3180008031468 -6.09556510307882 21.0
endloop
endfacet
facet normal 0.351743377685717 0.936096467386905 0.0
outer loop
vertex 9.05523013305722 -5.19171059783933 21.0
vertex 9.74611281963719 -5.56051439416039 16.0
vertex 9.05523013305722 -5.19171059783933 16.0
endloop
endfacet
facet normal 0.582037606545702 0.813161868613224 0.0
outer loop
vertex 9.74611281963719 -5.56051439416039 16.0
vertex 9.05523013305722 -5.19171059783933 21.0
vertex 9.74611281963719 -5.56051439416039 21.0
endloop
endfacet
facet normal 0.0974784189198818 0.995237638880725 0.0
outer loop
vertex 8.29243525675965 -5.01428708335787 21.0
vertex 9.05523013305722 -5.19171059783933 16.0
vertex 8.29243525675965 -5.01428708335787 16.0
endloop
endfacet
facet normal 0.351743377685717 0.936096467386905 0.0
outer loop
vertex 9.05523013305722 -5.19171059783933 16.0
vertex 8.29243525675965 -5.01428708335787 21.0
vertex 9.05523013305722 -5.19171059783933 21.0
endloop
endfacet
facet normal -0.163429533004649 0.986555009992794 0.0
outer loop
vertex 7.50971140098604 -5.04033497002164 21.0
vertex 8.29243525675965 -5.01428708335787 16.0
vertex 7.50971140098604 -5.04033497002164 16.0
endloop
endfacet
facet normal 0.0974784189198818 0.995237638880725 0.0
outer loop
vertex 8.29243525675965 -5.01428708335787 16.0
vertex 7.50971140098604 -5.04033497002164 21.0
vertex 8.29243525675965 -5.01428708335787 21.0
endloop
endfacet
facet normal -0.413200032335008 0.91064028753309 0.0
outer loop
vertex 6.76039990299498 -5.26807913740076 21.0
vertex 7.50971140098604 -5.04033497002164 16.0
vertex 6.76039990299498 -5.26807913740076 16.0
endloop
endfacet
facet normal -0.163429533004649 0.986555009992794 0.0
outer loop
vertex 7.50971140098604 -5.04033497002164 16.0
vertex 6.76039990299498 -5.26807913740076 21.0
vertex 7.50971140098604 -5.04033497002164 21.0
endloop
endfacet
facet normal -0.63481163230707 0.77266693438223 0.0
outer loop
vertex 6.09556510307882 -5.68199919685331 21.0
vertex 6.76039990299498 -5.26807913740076 16.0
vertex 6.09556510307882 -5.68199919685331 16.0
endloop
endfacet
facet normal -0.413200032335008 0.91064028753309 0.0
outer loop
vertex 6.76039990299498 -5.26807913740076 16.0
vertex 6.09556510307882 -5.68199919685331 21.0
vertex 6.76039990299498 -5.26807913740076 21.0
endloop
endfacet
facet normal -0.63481163230707 0.77266693438223 0.0
outer loop
vertex 6.09556510307882 -5.68199919685331 21.0
vertex 5.56051439416038 -6.25388718036288 16.0
vertex 5.56051439416038 -6.25388718036288 21.0
endloop
endfacet
facet normal -0.813161868613217 0.582037606545712 0.0
outer loop
vertex 5.56051439416038 -6.25388718036288 16.0
vertex 6.09556510307882 -5.68199919685331 21.0
vertex 6.09556510307882 -5.68199919685331 16.0
endloop
endfacet
facet normal -0.813161868613217 0.582037606545712 0.0
outer loop
vertex 5.56051439416038 -6.25388718036288 21.0
vertex 5.19171059783932 -6.94476986694282 16.0
vertex 5.19171059783932 -6.94476986694282 21.0
endloop
endfacet
facet normal -0.936096467386901 0.351743377685727 0.0
outer loop
vertex 5.19171059783932 -6.94476986694282 16.0
vertex 5.56051439416038 -6.25388718036288 21.0
vertex 5.56051439416038 -6.25388718036288 16.0
endloop
endfacet
facet normal -0.936096467386901 0.351743377685727 0.0
outer loop
vertex 5.19171059783932 -6.94476986694282 21.0
vertex 5.01428708335786 -7.70756474324038 16.0
vertex 5.01428708335786 -7.70756474324038 21.0
endloop
endfacet
facet normal -0.995237638880725 0.0974784189198771 0.0
outer loop
vertex 5.01428708335786 -7.70756474324038 16.0
vertex 5.19171059783932 -6.94476986694282 21.0
vertex 5.19171059783932 -6.94476986694282 16.0
endloop
endfacet
facet normal -0.995237638880725 0.0974784189198771 0.0
outer loop
vertex 5.01428708335786 -7.70756474324038 21.0
vertex 5.04033497002165 -8.49028859901399 16.0
vertex 5.04033497002165 -8.49028859901399 21.0
endloop
endfacet
facet normal -0.986555009992795 -0.163429533004642 0.0
outer loop
vertex 5.04033497002165 -8.49028859901399 16.0
vertex 5.01428708335786 -7.70756474324038 21.0
vertex 5.01428708335786 -7.70756474324038 16.0
endloop
endfacet
facet normal -0.986555009992795 -0.163429533004642 0.0
outer loop
vertex 5.04033497002165 -8.49028859901399 21.0
vertex 5.26807913740074 -9.23960009700505 16.0
vertex 5.26807913740074 -9.23960009700505 21.0
endloop
endfacet
facet normal -0.910640287533088 -0.413200032335012 0.0
outer loop
vertex 5.26807913740074 -9.23960009700505 16.0
vertex 5.04033497002165 -8.49028859901399 21.0
vertex 5.04033497002165 -8.49028859901399 16.0
endloop
endfacet
facet normal -0.910640287533088 -0.413200032335012 0.0
outer loop
vertex 5.26807913740074 -9.23960009700505 21.0
vertex 5.68199919685332 -9.9044348969212 16.0
vertex 5.68199919685332 -9.9044348969212 21.0
endloop
endfacet
facet normal -0.848916206788744 -0.528527457991928 0.0
outer loop
vertex 5.68199919685332 -9.9044348969212 16.0
vertex 5.26807913740074 -9.23960009700505 21.0
vertex 5.26807913740074 -9.23960009700505 16.0
endloop
endfacet
facet normal 0.0 -1.0 0.0
outer loop
vertex 10.2819991968533 -9.9044348969212 21.0
vertex 5.68199919685332 -9.9044348969212 16.0
vertex 10.2819991968533 -9.9044348969212 16.0
endloop
endfacet
facet normal 0.0 -1.0 0.0
outer loop
vertex 5.68199919685332 -9.9044348969212 16.0
vertex 10.2819991968533 -9.9044348969212 21.0
vertex 5.68199919685332 -9.9044348969212 21.0
endloop
endfacet
facet normal 1.0 5.63993296509574e-15 -6.81491899949092e-15
outer loop
vertex 10.0 -12.0 7.80000000000003
vertex 10.0 -16.0 9.8
vertex 10.0000000000001 -16.0 7.80000000000003
endloop
endfacet
facet normal 1.0 5.63993296509574e-15 -6.81491899949092e-15
outer loop
vertex 10.0 -16.0 9.8
vertex 10.0 -12.0 7.80000000000003
vertex 10.0000000000001 -14.0 9.8
endloop
endfacet
facet normal 1.0 5.63993296509574e-15 -6.81491899949092e-15
outer loop
vertex 10.0000000000001 -14.0 9.8
vertex 10.0 -12.0 7.80000000000003
vertex 10.0 -12.0 9.79999999999998
endloop
endfacet
facet normal -1.0 3.3487101980257e-15 -5.874930171975e-15
outer loop
vertex 5.99999999999995 -14.0 9.8
vertex 5.99999999999998 -16.0 7.80000000000003
vertex 5.99999999999996 -16.0 9.8
endloop
endfacet
facet normal -1.0 3.3487101980257e-15 -5.874930171975e-15
outer loop
vertex 5.99999999999998 -16.0 7.80000000000003
vertex 5.99999999999995 -14.0 9.8
vertex 5.99999999999998 -12.0 7.80000000000003
endloop
endfacet
facet normal -1.0 3.3487101980257e-15 -5.874930171975e-15
outer loop
vertex 5.99999999999998 -12.0 7.80000000000003
vertex 5.99999999999995 -14.0 9.8
vertex 5.99999999999999 -12.0 9.79999999999998
endloop
endfacet
facet normal 1.40998324127398e-15 -5.63993296509576e-15 -1.0
outer loop
vertex 5.99999999999999 -12.0 9.79999999999998
vertex 5.99999999999995 -14.0 9.8
vertex 2.00000000000002 -12.0 9.79999999999998
endloop
endfacet
facet normal 1.40998324127398e-15 -5.63993296509576e-15 -1.0
outer loop
vertex 2.00000000000002 -12.0 9.79999999999998
vertex 5.99999999999996 -16.0 9.8
vertex 2.0 -16.0000000000001 9.8
endloop
endfacet
facet normal 1.40998324127398e-15 -5.63993296509576e-15 -1.0
outer loop
vertex 5.99999999999996 -16.0 9.8
vertex 2.00000000000002 -12.0 9.79999999999998
vertex 5.99999999999995 -14.0 9.8
endloop
endfacet
facet normal -1.40998324127399e-15 -5.63993296509578e-15 -1.0
outer loop
vertex 14.0000000000001 -12.0 9.79999999999998
vertex 10.0000000000001 -14.0 9.8
vertex 10.0 -12.0 9.79999999999998
endloop
endfacet
facet normal -1.40998324127399e-15 -5.63993296509578e-15 -1.0
outer loop
vertex 10.0000000000001 -14.0 9.8
vertex 14.0000000000001 -12.0 9.79999999999998
vertex 14.0 -16.0 9.8
endloop
endfacet
facet normal -1.40998324127399e-15 -5.63993296509578e-15 -1.0
outer loop
vertex 14.0 -16.0 9.8
vertex 10.0 -16.0 9.8
vertex 10.0000000000001 -14.0 9.8
endloop
endfacet
endsolid Skeleton Head
