solid Skeleton Body
facet normal -4.42635260702664e-32 6.57992179261175e-18 -1.0
outer loop
vertex 4.40619762898109e-15 -24.0 3.28996089630588e-15
vertex 4.00000000000001 -20.0 0.0
vertex 6.00000000000001 -24.0 0.0
endloop
endfacet
facet normal -4.42635260702664e-32 6.57992179261175e-18 -1.0
outer loop
vertex 4.00000000000001 -20.0 0.0
vertex 4.40619762898109e-15 -24.0 3.28996089630588e-15
vertex 4.0 -10.0 0.0
endloop
endfacet
facet normal -4.42635260702664e-32 6.57992179261175e-18 -1.0
outer loop
vertex 6.00000000000001 -24.0 0.0
vertex 4.00000000000001 -20.0 0.0
vertex 10.0 -20.0 0.0
endloop
endfacet
facet normal -4.42635260702664e-32 6.57992179261175e-18 -1.0
outer loop
vertex 6.00000000000001 -24.0 0.0
vertex 10.0 -20.0 0.0
vertex 6.00000000000001 -44.0 0.0
endloop
endfacet
facet normal -4.42635260702664e-32 6.57992179261175e-18 -1.0
outer loop
vertex 6.00000000000001 -44.0 0.0
vertex 10.0 -20.0 0.0
vertex 10.0 -44.0 0.0
endloop
endfacet
facet normal -4.42635260702664e-32 6.57992179261175e-18 -1.0
outer loop
vertex 10.0 -44.0 0.0
vertex 10.0 -20.0 0.0
vertex 10.0 -24.0 0.0
endloop
endfacet
facet normal -4.42635260702664e-32 6.57992179261175e-18 -1.0
outer loop
vertex 0.0 0.0 0.0
vertex 4.0 -10.0 0.0
vertex 4.40619762898109e-15 -24.0 3.28996089630588e-15
endloop
endfacet
facet normal -4.42635260702664e-32 6.57992179261175e-18 -1.0
outer loop
vertex 4.0 -10.0 0.0
vertex 0.0 0.0 0.0
vertex 24.0 0.0 0.0
endloop
endfacet
facet normal -4.42635260702664e-32 6.57992179261175e-18 -1.0
outer loop
vertex 4.0 -10.0 0.0
vertex 24.0 0.0 0.0
vertex 10.0 -10.0 0.0
endloop
endfacet
facet normal -4.42635260702664e-32 6.57992179261175e-18 -1.0
outer loop
vertex 10.0 -10.0 0.0
vertex 24.0 0.0 0.0
vertex 14.0 -10.0 0.0
endloop
endfacet
facet normal -4.42635260702664e-32 6.57992179261175e-18 -1.0
outer loop
vertex 10.0 -10.0 0.0
vertex 14.0 -10.0 0.0
vertex 10.0 -20.0 0.0
endloop
endfacet
facet normal -4.42635260702664e-32 6.57992179261175e-18 -1.0
outer loop
vertex 10.0 -20.0 0.0
vertex 14.0 -10.0 0.0
vertex 10.0 -24.0 0.0
endloop
endfacet
facet normal -4.42635260702664e-32 6.57992179261175e-18 -1.0
outer loop
vertex 14.0 -10.0 0.0
vertex 24.0 0.0 0.0
vertex 20.0 -10.0 0.0
endloop
endfacet
facet normal -4.42635260702664e-32 6.57992179261175e-18 -1.0
outer loop
vertex 20.0 -10.0 0.0
vertex 24.0 0.0 0.0
vertex 20.0 -20.0 0.0
endloop
endfacet
facet normal -4.42635260702664e-32 6.57992179261175e-18 -1.0
outer loop
vertex 20.0 -20.0 0.0
vertex 24.0 0.0 0.0
vertex 24.0 -24.0 3.28996089630588e-15
endloop
endfacet
facet normal -4.42635260702664e-32 6.57992179261175e-18 -1.0
outer loop
vertex 10.0 -24.0 0.0
vertex 14.0 -20.0 0.0
vertex 14.0 -24.0 0.0
endloop
endfacet
facet normal -4.42635260702664e-32 6.57992179261175e-18 -1.0
outer loop
vertex 14.0 -20.0 0.0
vertex 10.0 -24.0 0.0
vertex 14.0 -10.0 0.0
endloop
endfacet
facet normal -4.42635260702664e-32 6.57992179261175e-18 -1.0
outer loop
vertex 14.0 -24.0 0.0
vertex 14.0 -20.0 0.0
vertex 20.0 -20.0 0.0
endloop
endfacet
facet normal -4.42635260702664e-32 6.57992179261175e-18 -1.0
outer loop
vertex 14.0 -24.0 0.0
vertex 20.0 -20.0 0.0
vertex 18.0 -24.0 0.0
endloop
endfacet
facet normal -4.42635260702664e-32 6.57992179261175e-18 -1.0
outer loop
vertex 14.0 -24.0 0.0
vertex 18.0 -24.0 0.0
vertex 14.0 -44.0 0.0
endloop
endfacet
facet normal -4.42635260702664e-32 6.57992179261175e-18 -1.0
outer loop
vertex 18.0 -24.0 0.0
vertex 20.0 -20.0 0.0
vertex 24.0 -24.0 3.28996089630588e-15
endloop
endfacet
facet normal -4.42635260702664e-32 6.57992179261175e-18 -1.0
outer loop
vertex 18.0 -44.0 0.0
vertex 14.0 -44.0 0.0
vertex 18.0 -24.0 0.0
endloop
endfacet
facet normal -0.0 -0.0 1.0
outer loop
vertex 20.0 -10.0 8.00000000000001
vertex 4.0 0.0 8.00000000000001
vertex 4.0 -10.0 8.00000000000001
endloop
endfacet
facet normal -0.0 -0.0 1.0
outer loop
vertex 4.0 0.0 8.00000000000001
vertex 20.0 -10.0 8.00000000000001
vertex 20.0 0.0 8.00000000000001
endloop
endfacet
facet normal -0.0 1.0 -0.0
outer loop
vertex 0.0 0.0 0.0
vertex 11.6690791941279 2.11497486191092e-15 1.01830728943425
vertex 24.0 0.0 0.0
endloop
endfacet
facet normal -0.0 1.0 -0.0
outer loop
vertex 11.6690791941279 2.11497486191092e-15 1.01830728943425
vertex 0.0 0.0 0.0
vertex 10.9086361870139 2.11497486191092e-15 1.20555461178707
endloop
endfacet
facet normal -0.0 1.0 -0.0
outer loop
vertex 10.9086361870139 2.11497486191092e-15 1.20555461178707
vertex 0.0 0.0 0.0
vertex 0.0 0.0 6.0
endloop
endfacet
facet normal -0.0 1.0 -0.0
outer loop
vertex 10.9086361870139 2.11497486191092e-15 1.20555461178707
vertex 0.0 0.0 6.0
vertex 10.222567820191 2.11497486191092e-15 1.58323876930725
endloop
endfacet
facet normal -0.0 1.0 -0.0
outer loop
vertex 10.222567820191 2.11497486191092e-15 1.58323876930725
vertex 0.0 0.0 6.0
vertex 9.65762851907657 2.11497486191092e-15 2.12562121081237
endloop
endfacet
facet normal -0.0 1.0 -0.0
outer loop
vertex 9.65762851907657 2.11497486191092e-15 2.12562121081237
vertex 0.0 0.0 6.0
vertex 9.25231796343512 2.11497486191092e-15 2.79573946924321
endloop
endfacet
facet normal -0.0 1.0 -0.0
outer loop
vertex 9.25231796343512 2.11497486191092e-15 2.79573946924321
vertex 0.0 0.0 6.0
vertex 9.03425739782631 2.11497486191092e-15 3.54792609271051
endloop
endfacet
facet normal -0.0 1.0 -0.0
outer loop
vertex 9.03425739782631 2.11497486191092e-15 3.54792609271051
vertex 0.0 0.0 6.0
vertex 9.01830728943425 2.11497486191092e-15 4.33092080587214
endloop
endfacet
facet normal -0.0 1.0 -0.0
outer loop
vertex 9.01830728943425 2.11497486191092e-15 4.33092080587214
vertex 0.0 0.0 6.0
vertex 9.20555461178707 2.11497486191092e-15 5.09136381298607
endloop
endfacet
facet normal -0.0 1.0 -0.0
outer loop
vertex 9.20555461178707 2.11497486191092e-15 5.09136381298607
vertex 0.0 0.0 6.0
vertex 9.58323876930726 2.11497486191092e-15 5.77743217980897
endloop
endfacet
facet normal -0.0 1.0 -0.0
outer loop
vertex 9.58323876930726 2.11497486191092e-15 5.77743217980897
vertex 0.0 0.0 6.0
vertex 4.0 0.0 6.0
endloop
endfacet
facet normal -0.0 1.0 -0.0
outer loop
vertex 9.58323876930726 2.11497486191092e-15 5.77743217980897
vertex 4.0 0.0 6.0
vertex 10.1256212108124 2.11497486191092e-15 6.34237148092345
endloop
endfacet
facet normal -0.0 1.0 -0.0
outer loop
vertex 10.1256212108124 2.11497486191092e-15 6.34237148092345
vertex 4.0 0.0 6.0
vertex 4.0 0.0 8.00000000000001
endloop
endfacet
facet normal -0.0 1.0 -0.0
outer loop
vertex 10.1256212108124 2.11497486191092e-15 6.34237148092345
vertex 4.0 0.0 8.00000000000001
vertex 10.7957394692432 2.11497486191092e-15 6.7476820365649
endloop
endfacet
facet normal -0.0 1.0 -0.0
outer loop
vertex 10.7957394692432 2.11497486191092e-15 6.7476820365649
vertex 4.0 0.0 8.00000000000001
vertex 11.5479260927105 2.11497486191092e-15 6.9657426021737
endloop
endfacet
facet normal -0.0 1.0 -0.0
outer loop
vertex 11.5479260927105 2.11497486191092e-15 6.9657426021737
vertex 4.0 0.0 8.00000000000001
vertex 12.3309208058721 2.11497486191092e-15 6.98169271056576
endloop
endfacet
facet normal -0.0 1.0 -0.0
outer loop
vertex 13.777432179809 2.11497486191092e-15 6.41676123069276
vertex 20.0 0.0 6.0
vertex 14.3423714809235 2.11497486191092e-15 5.87437878918764
endloop
endfacet
facet normal -0.0 1.0 -0.0
outer loop
vertex 20.0 0.0 6.0
vertex 13.777432179809 2.11497486191092e-15 6.41676123069276
vertex 20.0 0.0 8.00000000000001
endloop
endfacet
facet normal -0.0 1.0 -0.0
outer loop
vertex 20.0 0.0 8.00000000000001
vertex 13.777432179809 2.11497486191092e-15 6.41676123069276
vertex 13.0913638129861 2.11497486191092e-15 6.79444538821293
endloop
endfacet
facet normal -0.0 1.0 -0.0
outer loop
vertex 20.0 0.0 8.00000000000001
vertex 13.0913638129861 2.11497486191092e-15 6.79444538821293
vertex 12.3309208058721 2.11497486191092e-15 6.98169271056576
endloop
endfacet
facet normal -0.0 1.0 -0.0
outer loop
vertex 20.0 0.0 8.00000000000001
vertex 12.3309208058721 2.11497486191092e-15 6.98169271056576
vertex 4.0 0.0 8.00000000000001
endloop
endfacet
facet normal -0.0 1.0 -0.0
outer loop
vertex 24.0 0.0 0.0
vertex 13.2042605307568 2.11497486191092e-15 1.25231796343511
vertex 24.0 0.0 6.0
endloop
endfacet
facet normal -0.0 1.0 -0.0
outer loop
vertex 13.2042605307568 2.11497486191092e-15 1.25231796343511
vertex 24.0 0.0 0.0
vertex 12.4520739072895 2.11497486191092e-15 1.0342573978263
endloop
endfacet
facet normal -0.0 1.0 -0.0
outer loop
vertex 12.4520739072895 2.11497486191092e-15 1.0342573978263
vertex 24.0 0.0 0.0
vertex 11.6690791941279 2.11497486191092e-15 1.01830728943425
endloop
endfacet
facet normal -0.0 1.0 -0.0
outer loop
vertex 24.0 0.0 6.0
vertex 13.2042605307568 2.11497486191092e-15 1.25231796343511
vertex 13.8743787891877 2.11497486191092e-15 1.65762851907656
endloop
endfacet
facet normal -0.0 1.0 -0.0
outer loop
vertex 24.0 0.0 6.0
vertex 13.8743787891877 2.11497486191092e-15 1.65762851907656
vertex 14.4167612306928 2.11497486191092e-15 2.22256782019104
endloop
endfacet
facet normal -0.0 1.0 -0.0
outer loop
vertex 24.0 0.0 6.0
vertex 14.4167612306928 2.11497486191092e-15 2.22256782019104
vertex 14.7944453882129 2.11497486191092e-15 2.90863618701394
endloop
endfacet
facet normal -0.0 1.0 -0.0
outer loop
vertex 24.0 0.0 6.0
vertex 14.7944453882129 2.11497486191092e-15 2.90863618701394
vertex 14.9816927105658 2.11497486191092e-15 3.66907919412786
endloop
endfacet
facet normal -0.0 1.0 -0.0
outer loop
vertex 24.0 0.0 6.0
vertex 14.9816927105658 2.11497486191092e-15 3.66907919412786
vertex 14.9657426021737 2.11497486191092e-15 4.45207390728949
endloop
endfacet
facet normal -0.0 1.0 -0.0
outer loop
vertex 24.0 0.0 6.0
vertex 14.9657426021737 2.11497486191092e-15 4.45207390728949
vertex 14.7476820365649 2.11497486191092e-15 5.20426053075679
endloop
endfacet
facet normal -0.0 1.0 -0.0
outer loop
vertex 24.0 0.0 6.0
vertex 14.7476820365649 2.11497486191092e-15 5.20426053075679
vertex 14.3423714809235 2.11497486191092e-15 5.87437878918764
endloop
endfacet
facet normal -0.0 1.0 -0.0
outer loop
vertex 24.0 0.0 6.0
vertex 14.3423714809235 2.11497486191092e-15 5.87437878918764
vertex 20.0 0.0 6.0
endloop
endfacet
facet normal 1.0 -0.0 -0.0
outer loop
vertex 20.0 -10.0 6.0
vertex 20.0 0.0 8.00000000000001
vertex 20.0 -10.0 8.00000000000001
endloop
endfacet
facet normal 1.0 -0.0 -0.0
outer loop
vertex 20.0 0.0 8.00000000000001
vertex 20.0 -10.0 6.0
vertex 20.0 0.0 6.0
endloop
endfacet
facet normal 1.0 -0.0 -0.0
outer loop
vertex 14.0 -10.0 0.0
vertex 14.0 -20.0 2.0
vertex 14.0 -20.0 0.0
endloop
endfacet
facet normal 1.0 -0.0 -0.0
outer loop
vertex 14.0 -20.0 2.0
vertex 14.0 -10.0 0.0
vertex 14.0 -10.0 2.0
endloop
endfacet
facet normal 1.0 -2.34997206878991e-16 1.41510698554877e-31
outer loop
vertex 24.0 0.0 0.0
vertex 24.0 -24.0 6.00000000000001
vertex 24.0 -24.0 3.28996089630588e-15
endloop
endfacet
facet normal 1.0 -2.34997206878991e-16 1.41510698554877e-31
outer loop
vertex 24.0 -24.0 6.00000000000001
vertex 24.0 0.0 0.0
vertex 24.0 0.0 6.0
endloop
endfacet
facet normal -1.96509475358652e-16 1.71529457304587e-16 1.0
outer loop
vertex 24.0 -24.0 6.00000000000001
vertex 20.0 -20.0 6.00000000000001
vertex 20.0 -24.0 6.00000000000001
endloop
endfacet
facet normal -1.96509475358652e-16 1.71529457304587e-16 1.0
outer loop
vertex 20.0 -20.0 6.00000000000001
vertex 24.0 -24.0 6.00000000000001
vertex 20.0 -10.0 6.0
endloop
endfacet
facet normal -1.96509475358652e-16 1.71529457304587e-16 1.0
outer loop
vertex 20.0 -10.0 6.0
vertex 24.0 -24.0 6.00000000000001
vertex 20.0 0.0 6.0
endloop
endfacet
facet normal -1.96509475358652e-16 1.71529457304587e-16 1.0
outer loop
vertex 20.0 0.0 6.0
vertex 24.0 -24.0 6.00000000000001
vertex 24.0 0.0 6.0
endloop
endfacet
facet normal -6.22716103250508e-32 -1.0 -2.13633824435447e-17
outer loop
vertex 20.0 -10.0 6.0
vertex 14.0 -10.0 0.0
vertex 20.0 -10.0 0.0
endloop
endfacet
facet normal -6.22716103250508e-32 -1.0 -2.13633824435447e-17
outer loop
vertex 14.0 -10.0 0.0
vertex 20.0 -10.0 6.0
vertex 14.0 -10.0 2.0
endloop
endfacet
facet normal -6.22716103250508e-32 -1.0 -2.13633824435447e-17
outer loop
vertex 14.0 -10.0 2.0
vertex 20.0 -10.0 6.0
vertex 10.0 -10.0 2.0
endloop
endfacet
facet normal -6.22716103250508e-32 -1.0 -2.13633824435447e-17
outer loop
vertex 10.0 -10.0 2.0
vertex 4.0 -10.0 0.0
vertex 10.0 -10.0 0.0
endloop
endfacet
facet normal -6.22716103250508e-32 -1.0 -2.13633824435447e-17
outer loop
vertex 4.0 -10.0 0.0
vertex 10.0 -10.0 2.0
vertex 4.0 -10.0 6.0
endloop
endfacet
facet normal -6.22716103250508e-32 -1.0 -2.13633824435447e-17
outer loop
vertex 4.0 -10.0 6.0
vertex 10.0 -10.0 2.0
vertex 20.0 -10.0 6.0
endloop
endfacet
facet normal -6.22716103250508e-32 -1.0 -2.13633824435447e-17
outer loop
vertex 4.0 -10.0 6.0
vertex 20.0 -10.0 6.0
vertex 20.0 -10.0 8.00000000000001
endloop
endfacet
facet normal -6.22716103250508e-32 -1.0 -2.13633824435447e-17
outer loop
vertex 4.0 -10.0 6.0
vertex 20.0 -10.0 8.00000000000001
vertex 4.0 -10.0 8.00000000000001
endloop
endfacet
facet normal -1.0 0.0 0.0
outer loop
vertex 4.0 0.0 8.00000000000001
vertex 4.0 -10.0 6.0
vertex 4.0 -10.0 8.00000000000001
endloop
endfacet
facet normal -1.0 0.0 0.0
outer loop
vertex 4.0 -10.0 6.0
vertex 4.0 0.0 8.00000000000001
vertex 4.0 0.0 6.0
endloop
endfacet
facet normal -1.0 -1.83591567874212e-16 1.26949765395648e-31
outer loop
vertex 4.40619762898109e-15 -24.0 6.00000000000001
vertex 0.0 0.0 0.0
vertex 4.40619762898109e-15 -24.0 3.28996089630588e-15
endloop
endfacet
facet normal -1.0 -1.83591567874212e-16 1.26949765395648e-31
outer loop
vertex 0.0 0.0 0.0
vertex 4.40619762898109e-15 -24.0 6.00000000000001
vertex 0.0 0.0 6.0
endloop
endfacet
facet normal 1.96509475358652e-16 1.71529457304587e-16 1.0
outer loop
vertex 4.00000000000001 -24.0 6.00000000000001
vertex 4.0 -10.0 6.0
vertex 4.40619762898109e-15 -24.0 6.00000000000001
endloop
endfacet
facet normal 1.96509475358652e-16 1.71529457304587e-16 1.0
outer loop
vertex 4.0 -10.0 6.0
vertex 4.00000000000001 -24.0 6.00000000000001
vertex 4.00000000000001 -20.0 6.00000000000001
endloop
endfacet
facet normal 1.96509475358652e-16 1.71529457304587e-16 1.0
outer loop
vertex 4.40619762898109e-15 -24.0 6.00000000000001
vertex 4.0 0.0 6.0
vertex 0.0 0.0 6.0
endloop
endfacet
facet normal 1.96509475358652e-16 1.71529457304587e-16 1.0
outer loop
vertex 4.0 0.0 6.0
vertex 4.40619762898109e-15 -24.0 6.00000000000001
vertex 4.0 -10.0 6.0
endloop
endfacet
facet normal -0.0 -0.0 1.0
outer loop
vertex 14.0 -20.0 2.0
vertex 10.0 -10.0 2.0
vertex 10.0 -20.0 2.0
endloop
endfacet
facet normal -0.0 -0.0 1.0
outer loop
vertex 10.0 -10.0 2.0
vertex 14.0 -20.0 2.0
vertex 14.0 -10.0 2.0
endloop
endfacet
facet normal -0.0 -0.0 1.0
outer loop
vertex 20.0 -24.0 8.00000000000001
vertex 4.00000000000001 -20.0 8.00000000000001
vertex 4.00000000000001 -24.0 8.00000000000001
endloop
endfacet
facet normal -0.0 -0.0 1.0
outer loop
vertex 4.00000000000001 -20.0 8.00000000000001
vertex 20.0 -24.0 8.00000000000001
vertex 20.0 -20.0 8.00000000000001
endloop
endfacet
facet normal -1.0 0.0 0.0
outer loop
vertex 10.0 -10.0 2.0
vertex 10.0 -20.0 0.0
vertex 10.0 -20.0 2.0
endloop
endfacet
facet normal -1.0 0.0 0.0
outer loop
vertex 10.0 -20.0 0.0
vertex 10.0 -10.0 2.0
vertex 10.0 -10.0 0.0
endloop
endfacet
facet normal -1.0 3.52495810318487e-16 2.11497486191092e-15
outer loop
vertex 4.00000000000001 -20.0 8.00000000000001
vertex 4.00000000000001 -24.0 6.00000000000001
vertex 4.00000000000001 -24.0 8.00000000000001
endloop
endfacet
facet normal -1.0 3.52495810318487e-16 2.11497486191092e-15
outer loop
vertex 4.00000000000001 -24.0 6.00000000000001
vertex 4.00000000000001 -20.0 8.00000000000001
vertex 4.00000000000001 -20.0 6.00000000000001
endloop
endfacet
facet normal -0.0 1.0 -0.0
outer loop
vertex 4.00000000000001 -20.0 6.00000000000001
vertex 10.0 -20.0 0.0
vertex 4.00000000000001 -20.0 0.0
endloop
endfacet
facet normal -0.0 1.0 -0.0
outer loop
vertex 10.0 -20.0 0.0
vertex 4.00000000000001 -20.0 6.00000000000001
vertex 10.0 -20.0 2.0
endloop
endfacet
facet normal -0.0 1.0 -0.0
outer loop
vertex 10.0 -20.0 2.0
vertex 4.00000000000001 -20.0 6.00000000000001
vertex 14.0 -20.0 2.0
endloop
endfacet
facet normal -0.0 1.0 -0.0
outer loop
vertex 14.0 -20.0 2.0
vertex 20.0 -20.0 0.0
vertex 14.0 -20.0 0.0
endloop
endfacet
facet normal -0.0 1.0 -0.0
outer loop
vertex 20.0 -20.0 0.0
vertex 14.0 -20.0 2.0
vertex 20.0 -20.0 6.00000000000001
endloop
endfacet
facet normal -0.0 1.0 -0.0
outer loop
vertex 20.0 -20.0 6.00000000000001
vertex 14.0 -20.0 2.0
vertex 4.00000000000001 -20.0 6.00000000000001
endloop
endfacet
facet normal -0.0 1.0 -0.0
outer loop
vertex 20.0 -20.0 6.00000000000001
vertex 4.00000000000001 -20.0 6.00000000000001
vertex 4.00000000000001 -20.0 8.00000000000001
endloop
endfacet
facet normal -0.0 1.0 -0.0
outer loop
vertex 20.0 -20.0 6.00000000000001
vertex 4.00000000000001 -20.0 8.00000000000001
vertex 20.0 -20.0 8.00000000000001
endloop
endfacet
facet normal -1.0 1.40998324127395e-16 -2.34997206878991e-16
outer loop
vertex 20.0 -10.0 6.0
vertex 20.0 -20.0 0.0
vertex 20.0 -20.0 6.00000000000001
endloop
endfacet
facet normal -1.0 1.40998324127395e-16 -2.34997206878991e-16
outer loop
vertex 20.0 -20.0 0.0
vertex 20.0 -10.0 6.0
vertex 20.0 -10.0 0.0
endloop
endfacet
facet normal 1.0 -3.65964786735287e-31 -1.40998324127395e-15
outer loop
vertex 20.0 -24.0 6.00000000000001
vertex 20.0 -20.0 8.00000000000001
vertex 20.0 -24.0 8.00000000000001
endloop
endfacet
facet normal 1.0 -3.65964786735287e-31 -1.40998324127395e-15
outer loop
vertex 20.0 -20.0 8.00000000000001
vertex 20.0 -24.0 6.00000000000001
vertex 20.0 -20.0 6.00000000000001
endloop
endfacet
facet normal 1.0 7.04991620636974e-16 2.34997206878991e-16
outer loop
vertex 4.0 -10.0 0.0
vertex 4.00000000000001 -20.0 6.00000000000001
vertex 4.00000000000001 -20.0 0.0
endloop
endfacet
facet normal 1.0 7.04991620636974e-16 2.34997206878991e-16
outer loop
vertex 4.00000000000001 -20.0 6.00000000000001
vertex 4.0 -10.0 0.0
vertex 4.0 -10.0 6.0
endloop
endfacet
facet normal -4.82884382928682e-32 -1.0 2.8199664825479e-16
outer loop
vertex 24.0 -24.0 3.28996089630588e-15
vertex 18.0 -24.0 6.0
vertex 18.0 -24.0 0.0
endloop
endfacet
facet normal -4.82884382928682e-32 -1.0 2.8199664825479e-16
outer loop
vertex 18.0 -24.0 6.0
vertex 24.0 -24.0 3.28996089630588e-15
vertex 24.0 -24.0 6.00000000000001
endloop
endfacet
facet normal -4.82884382928682e-32 -1.0 2.8199664825479e-16
outer loop
vertex 18.0 -24.0 6.0
vertex 24.0 -24.0 6.00000000000001
vertex 14.0 -24.0 6.0
endloop
endfacet
facet normal -4.82884382928682e-32 -1.0 2.8199664825479e-16
outer loop
vertex 14.0 -24.0 6.0
vertex 24.0 -24.0 6.00000000000001
vertex 10.0 -24.0 6.0
endloop
endfacet
facet normal -4.82884382928682e-32 -1.0 2.8199664825479e-16
outer loop
vertex 10.0 -24.0 6.0
vertex 24.0 -24.0 6.00000000000001
vertex 6.00000000000001 -24.0 6.0
endloop
endfacet
facet normal -4.82884382928682e-32 -1.0 2.8199664825479e-16
outer loop
vertex 20.0 -24.0 8.00000000000001
vertex 4.00000000000001 -24.0 6.00000000000001
vertex 20.0 -24.0 6.00000000000001
endloop
endfacet
facet normal -4.82884382928682e-32 -1.0 2.8199664825479e-16
outer loop
vertex 4.00000000000001 -24.0 6.00000000000001
vertex 20.0 -24.0 8.00000000000001
vertex 4.00000000000001 -24.0 8.00000000000001
endloop
endfacet
facet normal -4.82884382928682e-32 -1.0 2.8199664825479e-16
outer loop
vertex 6.00000000000001 -24.0 6.0
vertex 4.40619762898109e-15 -24.0 3.28996089630588e-15
vertex 6.00000000000001 -24.0 0.0
endloop
endfacet
facet normal -4.82884382928682e-32 -1.0 2.8199664825479e-16
outer loop
vertex 4.40619762898109e-15 -24.0 3.28996089630588e-15
vertex 6.00000000000001 -24.0 6.0
vertex 4.40619762898109e-15 -24.0 6.00000000000001
endloop
endfacet
facet normal -4.82884382928682e-32 -1.0 2.8199664825479e-16
outer loop
vertex 4.40619762898109e-15 -24.0 6.00000000000001
vertex 6.00000000000001 -24.0 6.0
vertex 24.0 -24.0 6.00000000000001
endloop
endfacet
facet normal -4.82884382928682e-32 -1.0 2.8199664825479e-16
outer loop
vertex 4.40619762898109e-15 -24.0 6.00000000000001
vertex 24.0 -24.0 6.00000000000001
vertex 20.0 -24.0 6.00000000000001
endloop
endfacet
facet normal -4.82884382928682e-32 -1.0 2.8199664825479e-16
outer loop
vertex 4.40619762898109e-15 -24.0 6.00000000000001
vertex 20.0 -24.0 6.00000000000001
vertex 4.00000000000001 -24.0 6.00000000000001
endloop
endfacet
facet normal -4.82884382928682e-32 -1.0 2.8199664825479e-16
outer loop
vertex 14.0 -24.0 6.0
vertex 10.0 -24.0 0.0
vertex 14.0 -24.0 0.0
endloop
endfacet
facet normal -4.82884382928682e-32 -1.0 2.8199664825479e-16
outer loop
vertex 10.0 -24.0 0.0
vertex 14.0 -24.0 6.0
vertex 10.0 -24.0 6.0
endloop
endfacet
facet normal 0.0 -1.0 0.0
outer loop
vertex 10.0 -44.0 8.00000000000001
vertex 6.00000000000001 -44.0 0.0
vertex 10.0 -44.0 0.0
endloop
endfacet
facet normal 0.0 -1.0 0.0
outer loop
vertex 6.00000000000001 -44.0 0.0
vertex 10.0 -44.0 8.00000000000001
vertex 6.00000000000001 -44.0 8.00000000000001
endloop
endfacet
facet normal 1.0 -0.0 -0.0
outer loop
vertex 10.0 -44.0 0.0
vertex 10.0 -40.0 6.0
vertex 10.0 -44.0 8.00000000000001
endloop
endfacet
facet normal 1.0 -0.0 -0.0
outer loop
vertex 10.0 -40.0 6.0
vertex 10.0 -44.0 0.0
vertex 10.0 -24.0 0.0
endloop
endfacet
facet normal 1.0 -0.0 -0.0
outer loop
vertex 10.0 -40.0 6.0
vertex 10.0 -24.0 0.0
vertex 10.0 -24.0 6.0
endloop
endfacet
facet normal 1.0 -0.0 -0.0
outer loop
vertex 10.0 -40.0 8.00000000000001
vertex 10.0 -44.0 8.00000000000001
vertex 10.0 -40.0 6.0
endloop
endfacet
facet normal -1.0 0.0 0.0
outer loop
vertex 6.00000000000001 -40.0 8.00000000000001
vertex 6.00000000000001 -44.0 0.0
vertex 6.00000000000001 -44.0 8.00000000000001
endloop
endfacet
facet normal -1.0 0.0 0.0
outer loop
vertex 6.00000000000001 -44.0 0.0
vertex 6.00000000000001 -40.0 8.00000000000001
vertex 6.00000000000001 -40.0 6.0
endloop
endfacet
facet normal -1.0 0.0 0.0
outer loop
vertex 6.00000000000001 -44.0 0.0
vertex 6.00000000000001 -40.0 6.0
vertex 6.00000000000001 -24.0 0.0
endloop
endfacet
facet normal -1.0 0.0 0.0
outer loop
vertex 6.00000000000001 -24.0 0.0
vertex 6.00000000000001 -40.0 6.0
vertex 6.00000000000001 -24.0 6.0
endloop
endfacet
facet normal 0.0 -1.0 0.0
outer loop
vertex 18.0 -44.0 8.00000000000001
vertex 14.0 -44.0 0.0
vertex 18.0 -44.0 0.0
endloop
endfacet
facet normal 0.0 -1.0 0.0
outer loop
vertex 14.0 -44.0 0.0
vertex 18.0 -44.0 8.00000000000001
vertex 14.0 -44.0 8.00000000000001
endloop
endfacet
facet normal 1.0 -0.0 -0.0
outer loop
vertex 18.0 -44.0 0.0
vertex 18.0 -40.0 6.0
vertex 18.0 -44.0 8.00000000000001
endloop
endfacet
facet normal 1.0 -0.0 -0.0
outer loop
vertex 18.0 -40.0 6.0
vertex 18.0 -44.0 0.0
vertex 18.0 -24.0 0.0
endloop
endfacet
facet normal 1.0 -0.0 -0.0
outer loop
vertex 18.0 -40.0 6.0
vertex 18.0 -24.0 0.0
vertex 18.0 -24.0 6.0
endloop
endfacet
facet normal 1.0 -0.0 -0.0
outer loop
vertex 18.0 -40.0 8.00000000000001
vertex 18.0 -44.0 8.00000000000001
vertex 18.0 -40.0 6.0
endloop
endfacet
facet normal -1.0 0.0 0.0
outer loop
vertex 14.0 -40.0 8.00000000000001
vertex 14.0 -44.0 0.0
vertex 14.0 -44.0 8.00000000000001
endloop
endfacet
facet normal -1.0 0.0 0.0
outer loop
vertex 14.0 -44.0 0.0
vertex 14.0 -40.0 8.00000000000001
vertex 14.0 -40.0 6.0
endloop
endfacet
facet normal -1.0 0.0 0.0
outer loop
vertex 14.0 -44.0 0.0
vertex 14.0 -40.0 6.0
vertex 14.0 -24.0 0.0
endloop
endfacet
facet normal -1.0 0.0 0.0
outer loop
vertex 14.0 -24.0 0.0
vertex 14.0 -40.0 6.0
vertex 14.0 -24.0 6.0
endloop
endfacet
facet normal -0.0 -0.0 1.0
outer loop
vertex 10.0 -40.0 6.0
vertex 6.00000000000001 -24.0 6.0
vertex 6.00000000000001 -40.0 6.0
endloop
endfacet
facet normal -0.0 -0.0 1.0
outer loop
vertex 6.00000000000001 -24.0 6.0
vertex 10.0 -40.0 6.0
vertex 10.0 -24.0 6.0
endloop
endfacet
facet normal -0.0 -0.0 1.0
outer loop
vertex 18.0 -40.0 6.0
vertex 14.0 -24.0 6.0
vertex 14.0 -40.0 6.0
endloop
endfacet
facet normal -0.0 -0.0 1.0
outer loop
vertex 14.0 -24.0 6.0
vertex 18.0 -40.0 6.0
vertex 18.0 -24.0 6.0
endloop
endfacet
facet normal -0.0 -0.0 1.0
outer loop
vertex 10.0 -44.0 8.00000000000001
vertex 6.00000000000001 -40.0 8.00000000000001
vertex 6.00000000000001 -44.0 8.00000000000001
endloop
endfacet
facet normal -0.0 -0.0 1.0
outer loop
vertex 6.00000000000001 -40.0 8.00000000000001
vertex 10.0 -44.0 8.00000000000001
vertex 10.0 -40.0 8.00000000000001
endloop
endfacet
facet normal -0.0 1.0 -0.0
outer loop
vertex 6.00000000000001 -40.0 8.00000000000001
vertex 10.0 -40.0 6.0
vertex 6.00000000000001 -40.0 6.0
endloop
endfacet
facet normal -0.0 1.0 -0.0
outer loop
vertex 10.0 -40.0 6.0
vertex 6.00000000000001 -40.0 8.00000000000001
vertex 10.0 -40.0 8.00000000000001
endloop
endfacet
facet normal -0.0 -0.0 1.0
outer loop
vertex 18.0 -44.0 8.00000000000001
vertex 14.0 -40.0 8.00000000000001
vertex 14.0 -44.0 8.00000000000001
endloop
endfacet
facet normal -0.0 -0.0 1.0
outer loop
vertex 14.0 -40.0 8.00000000000001
vertex 18.0 -44.0 8.00000000000001
vertex 18.0 -40.0 8.00000000000001
endloop
endfacet
facet normal -0.0 1.0 -0.0
outer loop
vertex 14.0 -40.0 8.00000000000001
vertex 18.0 -40.0 6.0
vertex 14.0 -40.0 6.0
endloop
endfacet
facet normal -0.0 1.0 -0.0
outer loop
vertex 18.0 -40.0 6.0
vertex 14.0 -40.0 8.00000000000001
vertex 18.0 -40.0 8.00000000000001
endloop
endfacet
facet normal -0.0 1.0 -0.0
outer loop
vertex 10.9086361870139 -8.00000000000001 1.20555461178707
vertex 12.4520739072895 -8.00000000000001 1.0342573978263
vertex 11.6690791941279 -8.00000000000001 1.01830728943425
endloop
endfacet
facet normal -0.0 1.0 -0.0
outer loop
vertex 12.4520739072895 -8.00000000000001 1.0342573978263
vertex 10.9086361870139 -8.00000000000001 1.20555461178707
vertex 13.2042605307568 -8.00000000000001 1.25231796343511
endloop
endfacet
facet normal -0.0 1.0 -0.0
outer loop
vertex 13.2042605307568 -8.00000000000001 1.25231796343511
vertex 10.9086361870139 -8.00000000000001 1.20555461178707
vertex 10.222567820191 -8.00000000000001 1.58323876930725
endloop
endfacet
facet normal -0.0 1.0 -0.0
outer loop
vertex 13.2042605307568 -8.00000000000001 1.25231796343511
vertex 10.222567820191 -8.00000000000001 1.58323876930725
vertex 13.8743787891877 -8.00000000000001 1.65762851907656
endloop
endfacet
facet normal -0.0 1.0 -0.0
outer loop
vertex 13.8743787891877 -8.00000000000001 1.65762851907656
vertex 10.222567820191 -8.00000000000001 1.58323876930725
vertex 9.65762851907657 -8.00000000000001 2.12562121081237
endloop
endfacet
facet normal -0.0 1.0 -0.0
outer loop
vertex 13.8743787891877 -8.00000000000001 1.65762851907656
vertex 9.65762851907657 -8.00000000000001 2.12562121081237
vertex 14.4167612306928 -8.00000000000001 2.22256782019104
endloop
endfacet
facet normal -0.0 1.0 -0.0
outer loop
vertex 14.4167612306928 -8.00000000000001 2.22256782019104
vertex 9.65762851907657 -8.00000000000001 2.12562121081237
vertex 9.25231796343512 -8.00000000000001 2.79573946924321
endloop
endfacet
facet normal -0.0 1.0 -0.0
outer loop
vertex 14.4167612306928 -8.00000000000001 2.22256782019104
vertex 9.25231796343512 -8.00000000000001 2.79573946924321
vertex 14.7944453882129 -8.00000000000001 2.90863618701394
endloop
endfacet
facet normal -0.0 1.0 -0.0
outer loop
vertex 14.7944453882129 -8.00000000000001 2.90863618701394
vertex 9.25231796343512 -8.00000000000001 2.79573946924321
vertex 9.03425739782631 -8.00000000000001 3.54792609271051
endloop
endfacet
facet normal -0.0 1.0 -0.0
outer loop
vertex 14.7944453882129 -8.00000000000001 2.90863618701394
vertex 9.03425739782631 -8.00000000000001 3.54792609271051
vertex 14.9816927105658 -8.00000000000001 3.66907919412786
endloop
endfacet
facet normal -0.0 1.0 -0.0
outer loop
vertex 14.9816927105658 -8.00000000000001 3.66907919412786
vertex 9.03425739782631 -8.00000000000001 3.54792609271051
vertex 9.01830728943425 -8.00000000000001 4.33092080587214
endloop
endfacet
facet normal -0.0 1.0 -0.0
outer loop
vertex 14.9816927105658 -8.00000000000001 3.66907919412786
vertex 9.01830728943425 -8.00000000000001 4.33092080587214
vertex 14.9657426021737 -8.00000000000001 4.45207390728949
endloop
endfacet
facet normal -0.0 1.0 -0.0
outer loop
vertex 14.9657426021737 -8.00000000000001 4.45207390728949
vertex 9.01830728943425 -8.00000000000001 4.33092080587214
vertex 9.20555461178707 -8.00000000000001 5.09136381298607
endloop
endfacet
facet normal -0.0 1.0 -0.0
outer loop
vertex 14.9657426021737 -8.00000000000001 4.45207390728949
vertex 9.20555461178707 -8.00000000000001 5.09136381298607
vertex 14.7476820365649 -8.00000000000001 5.20426053075679
endloop
endfacet
facet normal -0.0 1.0 -0.0
outer loop
vertex 14.7476820365649 -8.00000000000001 5.20426053075679
vertex 9.20555461178707 -8.00000000000001 5.09136381298607
vertex 9.58323876930726 -8.00000000000001 5.77743217980897
endloop
endfacet
facet normal -0.0 1.0 -0.0
outer loop
vertex 14.7476820365649 -8.00000000000001 5.20426053075679
vertex 9.58323876930726 -8.00000000000001 5.77743217980897
vertex 14.3423714809235 -8.00000000000001 5.87437878918764
endloop
endfacet
facet normal -0.0 1.0 -0.0
outer loop
vertex 14.3423714809235 -8.00000000000001 5.87437878918764
vertex 9.58323876930726 -8.00000000000001 5.77743217980897
vertex 10.1256212108124 -8.00000000000001 6.34237148092345
endloop
endfacet
facet normal -0.0 1.0 -0.0
outer loop
vertex 14.3423714809235 -8.00000000000001 5.87437878918764
vertex 10.1256212108124 -8.00000000000001 6.34237148092345
vertex 13.777432179809 -8.00000000000001 6.41676123069276
endloop
endfacet
facet normal -0.0 1.0 -0.0
outer loop
vertex 13.777432179809 -8.00000000000001 6.41676123069276
vertex 10.1256212108124 -8.00000000000001 6.34237148092345
vertex 10.7957394692432 -8.00000000000001 6.7476820365649
endloop
endfacet
facet normal -0.0 1.0 -0.0
outer loop
vertex 13.777432179809 -8.00000000000001 6.41676123069276
vertex 10.7957394692432 -8.00000000000001 6.7476820365649
vertex 13.0913638129861 -8.00000000000001 6.79444538821293
endloop
endfacet
facet normal -0.0 1.0 -0.0
outer loop
vertex 13.0913638129861 -8.00000000000001 6.79444538821293
vertex 10.7957394692432 -8.00000000000001 6.7476820365649
vertex 11.5479260927105 -8.00000000000001 6.9657426021737
endloop
endfacet
facet normal -0.0 1.0 -0.0
outer loop
vertex 13.0913638129861 -8.00000000000001 6.79444538821293
vertex 11.5479260927105 -8.00000000000001 6.9657426021737
vertex 12.3309208058721 -8.00000000000001 6.98169271056576
endloop
endfacet
facet normal 0.780790493641147 -2.4260181568389e-33 0.624792929729214
outer loop
vertex 9.65762851907657 2.11497486191092e-15 2.12562121081237
vertex 9.25231796343512 -8.00000000000001 2.79573946924321
vertex 9.65762851907657 -8.00000000000001 2.12562121081237
endloop
endfacet
facet normal 0.915894012188294 -4.6820092012791e-34 0.401420176918936
outer loop
vertex 9.25231796343512 -8.00000000000001 2.79573946924321
vertex 9.65762851907657 2.11497486191092e-15 2.12562121081237
vertex 9.25231796343512 2.11497486191092e-15 2.79573946924321
endloop
endfacet
facet normal 0.915894012188294 -4.6820092012791e-34 0.401420176918936
outer loop
vertex 9.25231796343512 2.11497486191092e-15 2.79573946924321
vertex 9.03425739782631 -8.00000000000001 3.54792609271051
vertex 9.25231796343512 -8.00000000000001 2.79573946924321
endloop
endfacet
facet normal 0.988580867391232 5.45239855253707e-34 0.15069130242983
outer loop
vertex 9.03425739782631 -8.00000000000001 3.54792609271051
vertex 9.25231796343512 2.11497486191092e-15 2.79573946924321
vertex 9.03425739782631 2.11497486191092e-15 3.54792609271051
endloop
endfacet
facet normal 0.988580867391232 5.45239855253707e-34 0.15069130242983
outer loop
vertex 9.03425739782631 2.11497486191092e-15 3.54792609271051
vertex 9.01830728943425 -8.00000000000001 4.33092080587214
vertex 9.03425739782631 -8.00000000000001 3.54792609271051
endloop
endfacet
facet normal 0.993897570188584 9.36388499692779e-34 -0.110306935290713
outer loop
vertex 9.01830728943425 -8.00000000000001 4.33092080587214
vertex 9.03425739782631 2.11497486191092e-15 3.54792609271051
vertex 9.01830728943425 2.11497486191092e-15 4.33092080587214
endloop
endfacet
facet normal 0.993897570188584 9.36388499692779e-34 -0.110306935290713
outer loop
vertex 9.01830728943425 2.11497486191092e-15 4.33092080587214
vertex 9.20555461178707 -8.00000000000001 5.09136381298607
vertex 9.01830728943425 -8.00000000000001 4.33092080587214
endloop
endfacet
facet normal 0.931481796070976 9.36388499692779e-34 -0.363787937662024
outer loop
vertex 9.20555461178707 -8.00000000000001 5.09136381298607
vertex 9.01830728943425 2.11497486191092e-15 4.33092080587214
vertex 9.20555461178707 2.11497486191092e-15 5.09136381298607
endloop
endfacet
facet normal 0.931481796070976 9.36388499692779e-34 -0.363787937662024
outer loop
vertex 9.20555461178707 2.11497486191092e-15 5.09136381298607
vertex 9.58323876930726 -8.00000000000001 5.77743217980897
vertex 9.20555461178707 -8.00000000000001 5.09136381298607
endloop
endfacet
facet normal 0.805587076897583 0.0 -0.592477393269657
outer loop
vertex 9.58323876930726 -8.00000000000001 5.77743217980897
vertex 9.20555461178707 2.11497486191092e-15 5.09136381298607
vertex 9.58323876930726 2.11497486191092e-15 5.77743217980897
endloop
endfacet
facet normal 0.805587076897583 0.0 -0.592477393269657
outer loop
vertex 9.58323876930726 2.11497486191092e-15 5.77743217980897
vertex 10.1256212108124 -8.00000000000001 6.34237148092345
vertex 9.58323876930726 -8.00000000000001 5.77743217980897
endloop
endfacet
facet normal 0.624792929729213 0.0 -0.780790493641147
outer loop
vertex 10.1256212108124 -8.00000000000001 6.34237148092345
vertex 9.58323876930726 2.11497486191092e-15 5.77743217980897
vertex 10.1256212108124 2.11497486191092e-15 6.34237148092345
endloop
endfacet
facet normal 0.401420176918931 -5.2939015111926e-19 -0.915894012188296
outer loop
vertex 10.7957394692432 2.11497486191092e-15 6.7476820365649
vertex 10.1256212108124 -8.00000000000001 6.34237148092345
vertex 10.1256212108124 2.11497486191092e-15 6.34237148092345
endloop
endfacet
facet normal 0.624792929729213 0.0 -0.780790493641147
outer loop
vertex 10.1256212108124 -8.00000000000001 6.34237148092345
vertex 10.7957394692432 2.11497486191092e-15 6.7476820365649
vertex 10.7957394692432 -8.00000000000001 6.7476820365649
endloop
endfacet
facet normal 0.150691302429831 -5.29390151119252e-19 -0.988580867391232
outer loop
vertex 11.5479260927105 2.11497486191092e-15 6.9657426021737
vertex 10.7957394692432 -8.00000000000001 6.7476820365649
vertex 10.7957394692432 2.11497486191092e-15 6.7476820365649
endloop
endfacet
facet normal 0.401420176918931 -5.2939015111926e-19 -0.915894012188296
outer loop
vertex 10.7957394692432 -8.00000000000001 6.7476820365649
vertex 11.5479260927105 2.11497486191092e-15 6.9657426021737
vertex 11.5479260927105 -8.00000000000001 6.9657426021737
endloop
endfacet
facet normal -0.110306935290711 2.09833064604038e-33 -0.993897570188584
outer loop
vertex 12.3309208058721 2.11497486191092e-15 6.98169271056576
vertex 11.5479260927105 -8.00000000000001 6.9657426021737
vertex 11.5479260927105 2.11497486191092e-15 6.9657426021737
endloop
endfacet
facet normal 0.150691302429831 -5.29390151119252e-19 -0.988580867391232
outer loop
vertex 11.5479260927105 -8.00000000000001 6.9657426021737
vertex 12.3309208058721 2.11497486191092e-15 6.98169271056576
vertex 12.3309208058721 -8.00000000000001 6.98169271056576
endloop
endfacet
facet normal -0.36378793766202 1.12890993669853e-33 -0.931481796070978
outer loop
vertex 13.0913638129861 2.11497486191092e-15 6.79444538821293
vertex 12.3309208058721 -8.00000000000001 6.98169271056576
vertex 12.3309208058721 2.11497486191092e-15 6.98169271056576
endloop
endfacet
facet normal -0.110306935290711 2.09833064604038e-33 -0.993897570188584
outer loop
vertex 12.3309208058721 -8.00000000000001 6.98169271056576
vertex 13.0913638129861 2.11497486191092e-15 6.79444538821293
vertex 13.0913638129861 -8.00000000000001 6.79444538821293
endloop
endfacet
facet normal -0.592477393269654 7.63459263205899e-19 -0.805587076897585
outer loop
vertex 13.777432179809 2.11497486191092e-15 6.41676123069276
vertex 13.0913638129861 -8.00000000000001 6.79444538821293
vertex 13.0913638129861 2.11497486191092e-15 6.79444538821293
endloop
endfacet
facet normal -0.36378793766202 1.12890993669853e-33 -0.931481796070978
outer loop
vertex 13.0913638129861 -8.00000000000001 6.79444538821293
vertex 13.777432179809 2.11497486191092e-15 6.41676123069276
vertex 13.777432179809 -8.00000000000001 6.41676123069276
endloop
endfacet
facet normal -0.780790493641148 7.63459263205907e-19 -0.624792929729213
outer loop
vertex 14.3423714809235 2.11497486191092e-15 5.87437878918764
vertex 13.777432179809 -8.00000000000001 6.41676123069276
vertex 13.777432179809 2.11497486191092e-15 6.41676123069276
endloop
endfacet
facet normal -0.592477393269654 7.63459263205899e-19 -0.805587076897585
outer loop
vertex 13.777432179809 -8.00000000000001 6.41676123069276
vertex 14.3423714809235 2.11497486191092e-15 5.87437878918764
vertex 14.3423714809235 -8.00000000000001 5.87437878918764
endloop
endfacet
facet normal -0.780790493641148 7.63459263205907e-19 -0.624792929729213
outer loop
vertex 14.3423714809235 2.11497486191092e-15 5.87437878918764
vertex 14.7476820365649 -8.00000000000001 5.20426053075679
vertex 14.3423714809235 -8.00000000000001 5.87437878918764
endloop
endfacet
facet normal -0.915894012188297 1.54314210174788e-32 -0.401420176918929
outer loop
vertex 14.7476820365649 -8.00000000000001 5.20426053075679
vertex 14.3423714809235 2.11497486191092e-15 5.87437878918764
vertex 14.7476820365649 2.11497486191092e-15 5.20426053075679
endloop
endfacet
facet normal -0.915894012188297 1.54314210174788e-32 -0.401420176918929
outer loop
vertex 14.7476820365649 2.11497486191092e-15 5.20426053075679
vertex 14.9657426021737 -8.00000000000001 4.45207390728949
vertex 14.7476820365649 -8.00000000000001 5.20426053075679
endloop
endfacet
facet normal -0.988580867391233 -1.55826713256498e-32 -0.150691302429827
outer loop
vertex 14.9657426021737 -8.00000000000001 4.45207390728949
vertex 14.7476820365649 2.11497486191092e-15 5.20426053075679
vertex 14.9657426021737 2.11497486191092e-15 4.45207390728949
endloop
endfacet
facet normal -0.988580867391233 -1.55826713256498e-32 -0.150691302429827
outer loop
vertex 14.9657426021737 2.11497486191092e-15 4.45207390728949
vertex 14.9816927105658 -8.00000000000001 3.66907919412786
vertex 14.9657426021737 -8.00000000000001 4.45207390728949
endloop
endfacet
facet normal -0.993897570188584 -3.17303873377661e-32 0.110306935290711
outer loop
vertex 14.9816927105658 -8.00000000000001 3.66907919412786
vertex 14.9657426021737 2.11497486191092e-15 4.45207390728949
vertex 14.9816927105658 2.11497486191092e-15 3.66907919412786
endloop
endfacet
facet normal -0.993897570188584 -3.17303873377661e-32 0.110306935290711
outer loop
vertex 14.9816927105658 2.11497486191092e-15 3.66907919412786
vertex 14.7944453882129 -8.00000000000001 2.90863618701394
vertex 14.9816927105658 -8.00000000000001 3.66907919412786
endloop
endfacet
facet normal -0.931481796070977 1.06325886149531e-18 0.363787937662022
outer loop
vertex 14.7944453882129 -8.00000000000001 2.90863618701394
vertex 14.9816927105658 2.11497486191092e-15 3.66907919412786
vertex 14.7944453882129 2.11497486191092e-15 2.90863618701394
endloop
endfacet
facet normal -0.931481796070977 1.06325886149531e-18 0.363787937662022
outer loop
vertex 14.7944453882129 2.11497486191092e-15 2.90863618701394
vertex 14.4167612306928 -8.00000000000001 2.22256782019104
vertex 14.7944453882129 -8.00000000000001 2.90863618701394
endloop
endfacet
facet normal -0.805587076897585 1.06325886149532e-18 0.592477393269655
outer loop
vertex 14.4167612306928 -8.00000000000001 2.22256782019104
vertex 14.7944453882129 2.11497486191092e-15 2.90863618701394
vertex 14.4167612306928 2.11497486191092e-15 2.22256782019104
endloop
endfacet
facet normal -0.805587076897585 1.06325886149532e-18 0.592477393269655
outer loop
vertex 14.4167612306928 2.11497486191092e-15 2.22256782019104
vertex 13.8743787891877 -8.00000000000001 1.65762851907656
vertex 14.4167612306928 -8.00000000000001 2.22256782019104
endloop
endfacet
facet normal -0.624792929729216 0.0 0.780790493641145
outer loop
vertex 13.8743787891877 -8.00000000000001 1.65762851907656
vertex 14.4167612306928 2.11497486191092e-15 2.22256782019104
vertex 13.8743787891877 2.11497486191092e-15 1.65762851907656
endloop
endfacet
facet normal -0.624792929729216 0.0 0.780790493641145
outer loop
vertex 13.8743787891877 -8.00000000000001 1.65762851907656
vertex 13.2042605307568 2.11497486191092e-15 1.25231796343511
vertex 13.2042605307568 -8.00000000000001 1.25231796343511
endloop
endfacet
facet normal -0.401420176918929 1.24057360536296e-33 0.915894012188297
outer loop
vertex 13.2042605307568 2.11497486191092e-15 1.25231796343511
vertex 13.8743787891877 -8.00000000000001 1.65762851907656
vertex 13.8743787891877 2.11497486191092e-15 1.65762851907656
endloop
endfacet
facet normal -0.401420176918929 1.24057360536296e-33 0.915894012188297
outer loop
vertex 13.2042605307568 -8.00000000000001 1.25231796343511
vertex 12.4520739072895 2.11497486191092e-15 1.0342573978263
vertex 12.4520739072895 -8.00000000000001 1.0342573978263
endloop
endfacet
facet normal -0.150691302429828 2.6167143000463e-34 0.988580867391233
outer loop
vertex 12.4520739072895 2.11497486191092e-15 1.0342573978263
vertex 13.2042605307568 -8.00000000000001 1.25231796343511
vertex 13.2042605307568 2.11497486191092e-15 1.25231796343511
endloop
endfacet
facet normal -0.150691302429828 2.6167143000463e-34 0.988580867391233
outer loop
vertex 12.4520739072895 -8.00000000000001 1.0342573978263
vertex 11.6690791941279 2.11497486191092e-15 1.01830728943425
vertex 11.6690791941279 -8.00000000000001 1.01830728943425
endloop
endfacet
facet normal 0.110306935290712 -5.35201007162197e-19 0.993897570188584
outer loop
vertex 11.6690791941279 2.11497486191092e-15 1.01830728943425
vertex 12.4520739072895 -8.00000000000001 1.0342573978263
vertex 12.4520739072895 2.11497486191092e-15 1.0342573978263
endloop
endfacet
facet normal 0.110306935290712 -5.35201007162197e-19 0.993897570188584
outer loop
vertex 11.6690791941279 -8.00000000000001 1.01830728943425
vertex 10.9086361870139 2.11497486191092e-15 1.20555461178707
vertex 10.9086361870139 -8.00000000000001 1.20555461178707
endloop
endfacet
facet normal 0.363787937662023 -5.35201007162196e-19 0.931481796070976
outer loop
vertex 10.9086361870139 2.11497486191092e-15 1.20555461178707
vertex 11.6690791941279 -8.00000000000001 1.01830728943425
vertex 11.6690791941279 2.11497486191092e-15 1.01830728943425
endloop
endfacet
facet normal 0.363787937662023 -5.35201007162196e-19 0.931481796070976
outer loop
vertex 10.9086361870139 -8.00000000000001 1.20555461178707
vertex 10.222567820191 2.11497486191092e-15 1.58323876930725
vertex 10.222567820191 -8.00000000000001 1.58323876930725
endloop
endfacet
facet normal 0.59247739326966 -1.41257738145729e-33 0.80558707689758
outer loop
vertex 10.222567820191 2.11497486191092e-15 1.58323876930725
vertex 10.9086361870139 -8.00000000000001 1.20555461178707
vertex 10.9086361870139 2.11497486191092e-15 1.20555461178707
endloop
endfacet
facet normal 0.59247739326966 -1.41257738145729e-33 0.80558707689758
outer loop
vertex 10.222567820191 -8.00000000000001 1.58323876930725
vertex 9.65762851907657 2.11497486191092e-15 2.12562121081237
vertex 9.65762851907657 -8.00000000000001 2.12562121081237
endloop
endfacet
facet normal 0.780790493641147 -2.4260181568389e-33 0.624792929729214
outer loop
vertex 9.65762851907657 2.11497486191092e-15 2.12562121081237
vertex 10.222567820191 -8.00000000000001 1.58323876930725
vertex 10.222567820191 2.11497486191092e-15 1.58323876930725
endloop
endfacet
endsolid Skeleton Body
