solid Zombie Head
facet normal -1.76247905159245e-16 -1.0 1.93872695675168e-15
outer loop
vertex 16.0 -16.0 2.81996648254789e-14
vertex 14.0 -15.9999999999999 7.80000000000002
vertex 10.0 -15.9999999999999 7.80000000000001
endloop
endfacet
facet normal -1.76247905159245e-16 -1.0 1.93872695675168e-15
outer loop
vertex 14.0 -15.9999999999999 7.80000000000002
vertex 16.0 -16.0 2.81996648254789e-14
vertex 16.0 -15.9999999999999 16.0
endloop
endfacet
facet normal -1.76247905159245e-16 -1.0 1.93872695675168e-15
outer loop
vertex 14.0 -15.9999999999999 7.80000000000002
vertex 16.0 -15.9999999999999 16.0
vertex 14.0 -15.9999999999999 9.80000000000001
endloop
endfacet
facet normal -1.76247905159245e-16 -1.0 1.93872695675168e-15
outer loop
vertex 14.0 -15.9999999999999 9.80000000000001
vertex 16.0 -15.9999999999999 16.0
vertex 9.99999999999999 -15.9999999999999 10.0
endloop
endfacet
facet normal -1.76247905159245e-16 -1.0 1.93872695675168e-15
outer loop
vertex 14.0 -15.9999999999999 9.80000000000001
vertex 9.99999999999999 -15.9999999999999 10.0
vertex 2.00000000000001 -15.9999999999999 9.80000000000001
endloop
endfacet
facet normal -1.76247905159245e-16 -1.0 1.93872695675168e-15
outer loop
vertex 9.99999999999999 -15.9999999999999 10.0
vertex 16.0 -15.9999999999999 16.0
vertex 10.0 -15.9999999999999 12.0
endloop
endfacet
facet normal -1.76247905159245e-16 -1.0 1.93872695675168e-15
outer loop
vertex 10.0 -15.9999999999999 12.0
vertex 16.0 -15.9999999999999 16.0
vertex 5.99999999999999 -15.9999999999999 12.0
endloop
endfacet
facet normal -1.76247905159245e-16 -1.0 1.93872695675168e-15
outer loop
vertex -1.97397653778353e-14 -16.0 -1.00185334963068e-29
vertex 2.00000000000001 -15.9999999999999 7.80000000000002
vertex 1.12798659301916e-14 -15.9999999999999 16.0
endloop
endfacet
facet normal -1.76247905159245e-16 -1.0 1.93872695675168e-15
outer loop
vertex 2.00000000000001 -15.9999999999999 7.80000000000002
vertex -1.97397653778353e-14 -16.0 -1.00185334963068e-29
vertex 16.0 -16.0 2.81996648254789e-14
endloop
endfacet
facet normal -1.76247905159245e-16 -1.0 1.93872695675168e-15
outer loop
vertex 2.00000000000001 -15.9999999999999 7.80000000000002
vertex 16.0 -16.0 2.81996648254789e-14
vertex 10.0 -15.9999999999999 7.80000000000001
endloop
endfacet
facet normal -1.76247905159245e-16 -1.0 1.93872695675168e-15
outer loop
vertex 2.00000000000001 -15.9999999999999 7.80000000000002
vertex 10.0 -15.9999999999999 7.80000000000001
vertex 5.99999999999999 -15.9999999999999 7.80000000000002
endloop
endfacet
facet normal -1.76247905159245e-16 -1.0 1.93872695675168e-15
outer loop
vertex 1.12798659301916e-14 -15.9999999999999 16.0
vertex 2.00000000000001 -15.9999999999999 7.80000000000002
vertex 2.00000000000001 -15.9999999999999 9.80000000000001
endloop
endfacet
facet normal -1.76247905159245e-16 -1.0 1.93872695675168e-15
outer loop
vertex 1.12798659301916e-14 -15.9999999999999 16.0
vertex 2.00000000000001 -15.9999999999999 9.80000000000001
vertex 5.99999999999999 -15.9999999999999 10.0
endloop
endfacet
facet normal -1.76247905159245e-16 -1.0 1.93872695675168e-15
outer loop
vertex 5.99999999999999 -15.9999999999999 10.0
vertex 2.00000000000001 -15.9999999999999 9.80000000000001
vertex 9.99999999999999 -15.9999999999999 10.0
endloop
endfacet
facet normal -1.76247905159245e-16 -1.0 1.93872695675168e-15
outer loop
vertex 1.12798659301916e-14 -15.9999999999999 16.0
vertex 5.99999999999999 -15.9999999999999 10.0
vertex 5.99999999999999 -15.9999999999999 12.0
endloop
endfacet
facet normal -1.76247905159245e-16 -1.0 1.93872695675168e-15
outer loop
vertex 1.12798659301916e-14 -15.9999999999999 16.0
vertex 5.99999999999999 -15.9999999999999 12.0
vertex 16.0 -15.9999999999999 16.0
endloop
endfacet
facet normal -1.76247905159245e-16 -1.0 1.93872695675168e-15
outer loop
vertex 9.99999999999999 -15.9999999999999 9.8
vertex 5.99999999999999 -15.9999999999999 7.80000000000002
vertex 10.0 -15.9999999999999 7.80000000000001
endloop
endfacet
facet normal -1.76247905159245e-16 -1.0 1.93872695675168e-15
outer loop
vertex 5.99999999999999 -15.9999999999999 7.80000000000002
vertex 9.99999999999999 -15.9999999999999 9.8
vertex 5.99999999999999 -15.9999999999999 9.80000000000001
endloop
endfacet
facet normal -1.76247905159245e-16 -1.0 1.93872695675168e-15
outer loop
vertex 5.99999999999999 -15.9999999999999 9.80000000000001
vertex 9.99999999999999 -15.9999999999999 9.8
vertex 14.0 -15.9999999999999 9.80000000000001
endloop
endfacet
facet normal -1.76247905159245e-16 -1.0 1.93872695675168e-15
outer loop
vertex 5.99999999999999 -15.9999999999999 9.80000000000001
vertex 14.0 -15.9999999999999 9.80000000000001
vertex 2.00000000000001 -15.9999999999999 9.80000000000001
endloop
endfacet
facet normal 6.16867668057354e-16 1.0 -7.93115573216598e-16
outer loop
vertex 0.0 2.53796983429311e-14 16.0
vertex 16.0 2.8199664825479e-15 1.12798659301916e-14
vertex 0.0 0.0 0.0
endloop
endfacet
facet normal 6.16867668057354e-16 1.0 -7.93115573216598e-16
outer loop
vertex 16.0 2.8199664825479e-15 1.12798659301916e-14
vertex 0.0 2.53796983429311e-14 16.0
vertex 16.0 2.8199664825479e-15 16.0
endloop
endfacet
facet normal -2.81996648254792e-15 -1.0 9.86988268891769e-15
outer loop
vertex 14.0 -11.9999999999999 9.80000000000001
vertex 10.0 -12.0 7.80000000000001
vertex 14.0 -12.0 7.80000000000001
endloop
endfacet
facet normal -2.81996648254792e-15 -1.0 9.86988268891769e-15
outer loop
vertex 10.0 -12.0 7.80000000000001
vertex 14.0 -11.9999999999999 9.80000000000001
vertex 10.0 -11.9999999999999 9.8
endloop
endfacet
facet normal -3.52495810318484e-16 -1.0 2.11497486191092e-15
outer loop
vertex 6.00000000000001 -11.9999999999999 9.80000000000001
vertex 2.00000000000001 -11.9999999999999 7.80000000000001
vertex 6.00000000000002 -11.9999999999999 7.80000000000001
endloop
endfacet
facet normal -3.52495810318484e-16 -1.0 2.11497486191092e-15
outer loop
vertex 2.00000000000001 -11.9999999999999 7.80000000000001
vertex 6.00000000000001 -11.9999999999999 9.80000000000001
vertex 2.00000000000001 -11.9999999999999 9.80000000000002
endloop
endfacet
facet normal 1.40998324127394e-15 -1.0 -2.81996648254791e-15
outer loop
vertex 10.0 -15.0 12.0
vertex 5.99999999999999 -15.0 10.0
vertex 9.99999999999999 -15.0 10.0
endloop
endfacet
facet normal 1.40998324127394e-15 -1.0 -2.81996648254791e-15
outer loop
vertex 5.99999999999999 -15.0 10.0
vertex 10.0 -15.0 12.0
vertex 6.0 -15.0 12.0
endloop
endfacet
facet normal 2.81996648254789e-15 1.40998324127404e-15 1.0
outer loop
vertex 9.99999999999999 -15.9999999999999 10.0
vertex 5.99999999999999 -15.0 10.0
vertex 5.99999999999999 -15.9999999999999 10.0
endloop
endfacet
facet normal 2.81996648254789e-15 1.40998324127404e-15 1.0
outer loop
vertex 5.99999999999999 -15.0 10.0
vertex 9.99999999999999 -15.9999999999999 10.0
vertex 9.99999999999999 -15.0 10.0
endloop
endfacet
facet normal 1.0 -3.52495810318488e-16 -7.04991620636975e-16
outer loop
vertex 2.00000000000001 -11.9999999999999 7.80000000000001
vertex 2.00000000000001 -15.9999999999999 9.80000000000001
vertex 2.00000000000001 -15.9999999999999 7.80000000000002
endloop
endfacet
facet normal 1.0 -3.52495810318488e-16 -7.04991620636975e-16
outer loop
vertex 2.00000000000001 -15.9999999999999 9.80000000000001
vertex 2.00000000000001 -11.9999999999999 7.80000000000001
vertex 2.00000000000001 -11.9999999999999 9.80000000000002
endloop
endfacet
facet normal -1.0 4.85034234998237e-15 -3.89155374591608e-15
outer loop
vertex 5.99999999999999 -15.9999999999999 9.80000000000001
vertex 6.00000000000002 -11.9999999999999 7.80000000000001
vertex 5.99999999999999 -15.9999999999999 7.80000000000002
endloop
endfacet
facet normal -1.0 4.85034234998237e-15 -3.89155374591608e-15
outer loop
vertex 6.00000000000002 -11.9999999999999 7.80000000000001
vertex 5.99999999999999 -15.9999999999999 9.80000000000001
vertex 5.99999999999999 -15.0 9.80000000000001
endloop
endfacet
facet normal -1.0 4.85034234998237e-15 -3.89155374591608e-15
outer loop
vertex 6.00000000000002 -11.9999999999999 7.80000000000001
vertex 5.99999999999999 -15.0 9.80000000000001
vertex 6.00000000000001 -11.9999999999999 9.80000000000001
endloop
endfacet
facet normal 1.0 -2.1431745267364e-15 9.98268134821961e-15
outer loop
vertex 10.0 -12.0 7.80000000000001
vertex 9.99999999999999 -15.9999999999999 9.8
vertex 10.0 -15.9999999999999 7.80000000000001
endloop
endfacet
facet normal 1.0 -2.1431745267364e-15 9.98268134821961e-15
outer loop
vertex 9.99999999999999 -15.9999999999999 9.8
vertex 10.0 -12.0 7.80000000000001
vertex 9.99999999999999 -15.0 9.8
endloop
endfacet
facet normal 1.0 -2.1431745267364e-15 9.98268134821961e-15
outer loop
vertex 9.99999999999999 -15.0 9.8
vertex 10.0 -12.0 7.80000000000001
vertex 10.0 -11.9999999999999 9.8
endloop
endfacet
facet normal -1.76247905159243e-16 8.81239525796221e-16 1.0
outer loop
vertex 14.0 -15.9999999999999 7.80000000000002
vertex 10.0 -12.0 7.80000000000001
vertex 10.0 -15.9999999999999 7.80000000000001
endloop
endfacet
facet normal -1.76247905159243e-16 8.81239525796221e-16 1.0
outer loop
vertex 10.0 -12.0 7.80000000000001
vertex 14.0 -15.9999999999999 7.80000000000002
vertex 14.0 -12.0 7.80000000000001
endloop
endfacet
facet normal -7.04991620636977e-16 -4.22994972382213e-15 -1.0
outer loop
vertex 6.0 -15.0 12.0
vertex 10.0 -15.9999999999999 12.0
vertex 5.99999999999999 -15.9999999999999 12.0
endloop
endfacet
facet normal -7.04991620636977e-16 -4.22994972382213e-15 -1.0
outer loop
vertex 10.0 -15.9999999999999 12.0
vertex 6.0 -15.0 12.0
vertex 10.0 -15.0 12.0
endloop
endfacet
facet normal -1.0 2.64371857738867e-16 9.6936347837584e-16
outer loop
vertex 1.12798659301916e-14 -15.9999999999999 16.0
vertex 0.0 0.0 0.0
vertex -1.97397653778353e-14 -16.0 -1.00185334963068e-29
endloop
endfacet
facet normal -1.0 2.64371857738867e-16 9.6936347837584e-16
outer loop
vertex 0.0 0.0 0.0
vertex 1.12798659301916e-14 -15.9999999999999 16.0
vertex 0.0 2.53796983429311e-14 16.0
endloop
endfacet
facet normal -1.0 7.83882982982779e-30 2.81996648254789e-15
outer loop
vertex 10.0 -15.9999999999999 12.0
vertex 9.99999999999999 -15.0 10.0
vertex 9.99999999999999 -15.9999999999999 10.0
endloop
endfacet
facet normal -1.0 7.83882982982779e-30 2.81996648254789e-15
outer loop
vertex 9.99999999999999 -15.0 10.0
vertex 10.0 -15.9999999999999 12.0
vertex 10.0 -15.0 12.0
endloop
endfacet
facet normal -1.0 1.40998324127396e-15 2.81996648254789e-15
outer loop
vertex 14.0 -15.9999999999999 9.80000000000001
vertex 14.0 -12.0 7.80000000000001
vertex 14.0 -15.9999999999999 7.80000000000002
endloop
endfacet
facet normal -1.0 1.40998324127396e-15 2.81996648254789e-15
outer loop
vertex 14.0 -12.0 7.80000000000001
vertex 14.0 -15.9999999999999 9.80000000000001
vertex 14.0 -11.9999999999999 9.80000000000001
endloop
endfacet
facet normal 1.0 -8.45989944764427e-15 -1.40998324127394e-15
outer loop
vertex 5.99999999999999 -15.0 10.0
vertex 5.99999999999999 -15.9999999999999 12.0
vertex 5.99999999999999 -15.9999999999999 10.0
endloop
endfacet
facet normal 1.0 -8.45989944764427e-15 -1.40998324127394e-15
outer loop
vertex 5.99999999999999 -15.9999999999999 12.0
vertex 5.99999999999999 -15.0 10.0
vertex 6.0 -15.0 12.0
endloop
endfacet
facet normal 1.23373533611471e-15 -5.28743715477733e-16 -1.0
outer loop
vertex 0.0 0.0 0.0
vertex 16.0 -16.0 2.81996648254789e-14
vertex -1.97397653778353e-14 -16.0 -1.00185334963068e-29
endloop
endfacet
facet normal 1.23373533611471e-15 -5.28743715477733e-16 -1.0
outer loop
vertex 16.0 -16.0 2.81996648254789e-14
vertex 0.0 0.0 0.0
vertex 16.0 2.8199664825479e-15 1.12798659301916e-14
endloop
endfacet
facet normal 1.76247905159245e-16 1.5862311464332e-15 1.0
outer loop
vertex 5.99999999999999 -15.9999999999999 7.80000000000002
vertex 2.00000000000001 -11.9999999999999 7.80000000000001
vertex 2.00000000000001 -15.9999999999999 7.80000000000002
endloop
endfacet
facet normal 1.76247905159245e-16 1.5862311464332e-15 1.0
outer loop
vertex 2.00000000000001 -11.9999999999999 7.80000000000001
vertex 5.99999999999999 -15.9999999999999 7.80000000000002
vertex 6.00000000000002 -11.9999999999999 7.80000000000001
endloop
endfacet
facet normal 9.69363478375844e-16 9.69363478375844e-16 1.0
outer loop
vertex 1.12798659301916e-14 -15.9999999999999 16.0
vertex 5.08686789827622 -8.71670172171297 16.0
vertex 5.00063441231617 -7.93830663392277 16.0
endloop
endfacet
facet normal 9.69363478375844e-16 9.69363478375844e-16 1.0
outer loop
vertex 5.08686789827622 -8.71670172171297 16.0
vertex 1.12798659301916e-14 -15.9999999999999 16.0
vertex 5.37162652279036 -9.44625477157405 16.0
endloop
endfacet
facet normal 9.69363478375844e-16 9.69363478375844e-16 1.0
outer loop
vertex 5.37162652279036 -9.44625477157405 16.0
vertex 1.12798659301916e-14 -15.9999999999999 16.0
vertex 5.77871522273068 -9.99999999999996 16.0
endloop
endfacet
facet normal 9.69363478375844e-16 9.69363478375844e-16 1.0
outer loop
vertex 5.77871522273068 -9.99999999999996 16.0
vertex 1.12798659301916e-14 -15.9999999999999 16.0
vertex 16.0 -15.9999999999999 16.0
endloop
endfacet
facet normal 9.69363478375844e-16 9.69363478375844e-16 1.0
outer loop
vertex 5.77871522273068 -9.99999999999996 16.0
vertex 16.0 -15.9999999999999 16.0
vertex 10.2089316596553 -9.99999999999996 16.0
endloop
endfacet
facet normal 9.69363478375844e-16 9.69363478375844e-16 1.0
outer loop
vertex 10.2089316596553 -9.99999999999996 16.0
vertex 16.0 -15.9999999999999 16.0
vertex 10.5666801111325 -9.5531108161097 16.0
endloop
endfacet
facet normal 9.69363478375844e-16 9.69363478375844e-16 1.0
outer loop
vertex 10.5666801111325 -9.5531108161097 16.0
vertex 16.0 -15.9999999999999 16.0
vertex 10.8811972655293 -8.83588415292229 16.0
endloop
endfacet
facet normal 9.69363478375844e-16 9.69363478375844e-16 1.0
outer loop
vertex 10.8811972655293 -8.83588415292229 16.0
vertex 16.0 -15.9999999999999 16.0
vertex 10.9993655876839 -8.06169336607714 16.0
endloop
endfacet
facet normal 9.69363478375844e-16 9.69363478375844e-16 1.0
outer loop
vertex 0.0 2.53796983429311e-14 16.0
vertex 6.5537452284259 -5.37162652279031 16.0
vertex 16.0 2.8199664825479e-15 16.0
endloop
endfacet
facet normal 9.69363478375844e-16 9.69363478375844e-16 1.0
outer loop
vertex 6.5537452284259 -5.37162652279031 16.0
vertex 0.0 2.53796983429311e-14 16.0
vertex 5.9227520511986 -5.83550445618372 16.0
endloop
endfacet
facet normal 9.69363478375844e-16 9.69363478375844e-16 1.0
outer loop
vertex 5.9227520511986 -5.83550445618372 16.0
vertex 0.0 2.53796983429311e-14 16.0
vertex 5.43331988886755 -6.44688918389019 16.0
endloop
endfacet
facet normal 9.69363478375844e-16 9.69363478375844e-16 1.0
outer loop
vertex 5.43331988886755 -6.44688918389019 16.0
vertex 0.0 2.53796983429311e-14 16.0
vertex 1.12798659301916e-14 -15.9999999999999 16.0
endloop
endfacet
facet normal 9.69363478375844e-16 9.69363478375844e-16 1.0
outer loop
vertex 5.43331988886755 -6.44688918389019 16.0
vertex 1.12798659301916e-14 -15.9999999999999 16.0
vertex 5.11880273447075 -7.16411584707759 16.0
endloop
endfacet
facet normal 9.69363478375844e-16 9.69363478375844e-16 1.0
outer loop
vertex 5.11880273447075 -7.16411584707759 16.0
vertex 1.12798659301916e-14 -15.9999999999999 16.0
vertex 5.00063441231617 -7.93830663392277 16.0
endloop
endfacet
facet normal 9.69363478375844e-16 9.69363478375844e-16 1.0
outer loop
vertex 16.0 2.8199664825479e-15 16.0
vertex 6.5537452284259 -5.37162652279031 16.0
vertex 7.28329827828698 -5.08686789827618 16.0
endloop
endfacet
facet normal 9.69363478375844e-16 9.69363478375844e-16 1.0
outer loop
vertex 16.0 2.8199664825479e-15 16.0
vertex 7.28329827828698 -5.08686789827618 16.0
vertex 8.0616933660772 -5.00063441231611 16.0
endloop
endfacet
facet normal 9.69363478375844e-16 9.69363478375844e-16 1.0
outer loop
vertex 16.0 2.8199664825479e-15 16.0
vertex 8.0616933660772 -5.00063441231611 16.0
vertex 8.83588415292237 -5.1188027344707 16.0
endloop
endfacet
facet normal 9.69363478375844e-16 9.69363478375844e-16 1.0
outer loop
vertex 16.0 2.8199664825479e-15 16.0
vertex 8.83588415292237 -5.1188027344707 16.0
vertex 9.55311081610975 -5.4333198888675 16.0
endloop
endfacet
facet normal 9.69363478375844e-16 9.69363478375844e-16 1.0
outer loop
vertex 16.0 2.8199664825479e-15 16.0
vertex 9.55311081610975 -5.4333198888675 16.0
vertex 10.1644955438162 -5.92275205119853 16.0
endloop
endfacet
facet normal 9.69363478375844e-16 9.69363478375844e-16 1.0
outer loop
vertex 16.0 2.8199664825479e-15 16.0
vertex 10.1644955438162 -5.92275205119853 16.0
vertex 10.6283734772096 -6.55374522842587 16.0
endloop
endfacet
facet normal 9.69363478375844e-16 9.69363478375844e-16 1.0
outer loop
vertex 16.0 2.8199664825479e-15 16.0
vertex 10.6283734772096 -6.55374522842587 16.0
vertex 10.9131321017238 -7.28329827828692 16.0
endloop
endfacet
facet normal 9.69363478375844e-16 9.69363478375844e-16 1.0
outer loop
vertex 16.0 2.8199664825479e-15 16.0
vertex 10.9131321017238 -7.28329827828692 16.0
vertex 10.9993655876839 -8.06169336607714 16.0
endloop
endfacet
facet normal 9.69363478375844e-16 9.69363478375844e-16 1.0
outer loop
vertex 16.0 2.8199664825479e-15 16.0
vertex 10.9993655876839 -8.06169336607714 16.0
vertex 16.0 -15.9999999999999 16.0
endloop
endfacet
facet normal 1.0 -5.28743715477733e-16 1.76247905159245e-16
outer loop
vertex 16.0 2.8199664825479e-15 1.12798659301916e-14
vertex 16.0 -15.9999999999999 16.0
vertex 16.0 -16.0 2.81996648254789e-14
endloop
endfacet
facet normal 1.0 -5.28743715477733e-16 1.76247905159245e-16
outer loop
vertex 16.0 -15.9999999999999 16.0
vertex 16.0 2.8199664825479e-15 1.12798659301916e-14
vertex 16.0 2.8199664825479e-15 16.0
endloop
endfacet
facet normal -0.238900573904341 0.971044033907926 -1.25936087915384e-15
outer loop
vertex 7.28329827828698 -5.08686789827618 16.0
vertex 8.06169336607721 -5.0006344123161 21.0
vertex 8.0616933660772 -5.00063441231611 16.0
endloop
endfacet
facet normal 0.0205644553590629 0.999788529227949 -2.2341701265353e-15
outer loop
vertex 8.06169336607721 -5.0006344123161 21.0
vertex 7.28329827828698 -5.08686789827618 16.0
vertex 7.28329827828699 -5.08686789827617 21.0
endloop
endfacet
facet normal -0.482084923858031 0.876124492403218 -3.865230777762e-16
outer loop
vertex 6.55374522842593 -5.37162652279029 21.0
vertex 7.28329827828698 -5.08686789827618 16.0
vertex 6.5537452284259 -5.37162652279031 16.0
endloop
endfacet
facet normal -0.238900573904341 0.971044033907926 -1.25936087915384e-15
outer loop
vertex 7.28329827828698 -5.08686789827618 16.0
vertex 6.55374522842593 -5.37162652279029 21.0
vertex 7.28329827828699 -5.08686789827617 21.0
endloop
endfacet
facet normal -0.692415982933802 0.721498514605413 5.56444503296433e-16
outer loop
vertex 5.9227520511986 -5.83550445618372 16.0
vertex 6.55374522842593 -5.37162652279029 21.0
vertex 6.5537452284259 -5.37162652279031 16.0
endloop
endfacet
facet normal -0.482084923858031 0.876124492403218 -3.865230777762e-16
outer loop
vertex 6.55374522842593 -5.37162652279029 21.0
vertex 5.9227520511986 -5.83550445618372 16.0
vertex 5.9227520511986 -5.83550445618371 21.0
endloop
endfacet
facet normal -0.692415982933802 0.721498514605413 5.56444503296433e-16
outer loop
vertex 5.9227520511986 -5.83550445618371 21.0
vertex 5.43331988886755 -6.44688918389019 16.0
vertex 5.43331988886756 -6.4468891838902 21.0
endloop
endfacet
facet normal -0.855560037044153 0.517703605369914 2.19345743816263e-15
outer loop
vertex 5.43331988886755 -6.44688918389019 16.0
vertex 5.9227520511986 -5.83550445618371 21.0
vertex 5.9227520511986 -5.83550445618372 16.0
endloop
endfacet
facet normal -0.855560037044153 0.517703605369914 2.19345743816263e-15
outer loop
vertex 5.43331988886756 -6.4468891838902 21.0
vertex 5.11880273447075 -7.16411584707759 16.0
vertex 5.11880273447076 -7.1641158470776 21.0
endloop
endfacet
facet normal -0.960399088509753 0.278628050974116 2.46901654035418e-15
outer loop
vertex 5.11880273447075 -7.16411584707759 16.0
vertex 5.43331988886756 -6.4468891838902 21.0
vertex 5.43331988886755 -6.44688918389019 16.0
endloop
endfacet
facet normal -0.999788529227949 0.0205644553590686 1.70271069626541e-15
outer loop
vertex 5.00063441231617 -7.93830663392276 21.0
vertex 5.11880273447075 -7.16411584707759 16.0
vertex 5.00063441231617 -7.93830663392277 16.0
endloop
endfacet
facet normal -0.960399088509753 0.278628050974116 2.46901654035418e-15
outer loop
vertex 5.11880273447075 -7.16411584707759 16.0
vertex 5.00063441231617 -7.93830663392276 21.0
vertex 5.11880273447076 -7.1641158470776 21.0
endloop
endfacet
facet normal -0.999788529227949 0.0205644553590686 1.70271069626541e-15
outer loop
vertex 5.00063441231617 -7.93830663392276 21.0
vertex 5.08686789827622 -8.71670172171297 16.0
vertex 5.08686789827624 -8.71670172171298 21.0
endloop
endfacet
facet normal -0.971044033907926 -0.238900573904338 1.45622987927827e-15
outer loop
vertex 5.08686789827622 -8.71670172171297 16.0
vertex 5.00063441231617 -7.93830663392276 21.0
vertex 5.00063441231617 -7.93830663392277 16.0
endloop
endfacet
facet normal -0.876124492403215 -0.482084923858037 9.13575741659087e-16
outer loop
vertex 5.37162652279036 -9.44625477157405 21.0
vertex 5.08686789827622 -8.71670172171297 16.0
vertex 5.37162652279036 -9.44625477157405 16.0
endloop
endfacet
facet normal -0.971044033907926 -0.238900573904338 1.45622987927827e-15
outer loop
vertex 5.08686789827622 -8.71670172171297 16.0
vertex 5.37162652279036 -9.44625477157405 21.0
vertex 5.08686789827624 -8.71670172171298 21.0
endloop
endfacet
facet normal -0.805704416479021 -0.592317814408955 6.06104932250536e-16
outer loop
vertex 5.77871522273068 -9.99999999999995 21.0
vertex 5.37162652279036 -9.44625477157405 16.0
vertex 5.77871522273068 -9.99999999999996 16.0
endloop
endfacet
facet normal -0.876124492403215 -0.482084923858037 9.13575741659086e-16
outer loop
vertex 5.37162652279036 -9.44625477157405 16.0
vertex 5.77871522273068 -9.99999999999995 21.0
vertex 5.37162652279036 -9.44625477157405 21.0
endloop
endfacet
facet normal 0.855560037044152 -0.517703605369916 -3.13464073425415e-15
outer loop
vertex 10.5666801111325 -9.5531108161097 16.0
vertex 10.2089316596553 -9.99999999999994 21.0
vertex 10.2089316596553 -9.99999999999996 16.0
endloop
endfacet
facet normal 0.780666722016678 -0.624947573109725 -2.19968730640478e-15
outer loop
vertex 10.2089316596553 -9.99999999999994 21.0
vertex 10.5666801111325 -9.5531108161097 16.0
vertex 10.5666801111325 -9.55311081610969 21.0
endloop
endfacet
facet normal 0.960399088509753 -0.278628050974117 -3.75518812472235e-15
outer loop
vertex 10.8811972655293 -8.83588415292229 16.0
vertex 10.5666801111325 -9.55311081610969 21.0
vertex 10.5666801111325 -9.5531108161097 16.0
endloop
endfacet
facet normal 0.855560037044152 -0.517703605369915 -3.13464073425416e-15
outer loop
vertex 10.5666801111325 -9.55311081610969 21.0
vertex 10.8811972655293 -8.83588415292229 16.0
vertex 10.8811972655293 -8.83588415292231 21.0
endloop
endfacet
facet normal 0.960399088509753 -0.278628050974117 -3.75518812472235e-15
outer loop
vertex 10.8811972655293 -8.83588415292229 16.0
vertex 10.9993655876839 -8.06169336607713 21.0
vertex 10.8811972655293 -8.83588415292231 21.0
endloop
endfacet
facet normal 0.999788529227949 -0.0205644553590589 -3.41838773575735e-15
outer loop
vertex 10.9993655876839 -8.06169336607713 21.0
vertex 10.8811972655293 -8.83588415292229 16.0
vertex 10.9993655876839 -8.06169336607714 16.0
endloop
endfacet
facet normal 0.971044033907922 0.238900573904357 -2.6970361316311e-15
outer loop
vertex 10.9131321017238 -7.28329827828692 16.0
vertex 10.9993655876839 -8.06169336607713 21.0
vertex 10.9993655876839 -8.06169336607714 16.0
endloop
endfacet
facet normal 0.999788529227949 -0.0205644553590589 -3.41838773575735e-15
outer loop
vertex 10.9993655876839 -8.06169336607713 21.0
vertex 10.9131321017238 -7.28329827828692 16.0
vertex 10.9131321017238 -7.28329827828693 21.0
endloop
endfacet
facet normal 0.971044033907922 0.238900573904357 -2.6970361316311e-15
outer loop
vertex 10.9131321017238 -7.28329827828692 16.0
vertex 10.6283734772097 -6.55374522842586 21.0
vertex 10.9131321017238 -7.28329827828693 21.0
endloop
endfacet
facet normal 0.87612449240322 0.482084923858027 -2.28486416426795e-15
outer loop
vertex 10.6283734772097 -6.55374522842586 21.0
vertex 10.9131321017238 -7.28329827828692 16.0
vertex 10.6283734772096 -6.55374522842587 16.0
endloop
endfacet
facet normal 0.721498514605414 0.6924159829338 -2.34431148641678e-15
outer loop
vertex 10.1644955438162 -5.92275205119853 16.0
vertex 10.6283734772097 -6.55374522842586 21.0
vertex 10.6283734772096 -6.55374522842587 16.0
endloop
endfacet
facet normal 0.87612449240322 0.482084923858027 -2.28486416426795e-15
outer loop
vertex 10.6283734772097 -6.55374522842586 21.0
vertex 10.1644955438162 -5.92275205119853 16.0
vertex 10.1644955438162 -5.92275205119852 21.0
endloop
endfacet
facet normal 0.517703605369911 0.855560037044155 -2.69772120780647e-15
outer loop
vertex 9.55311081610975 -5.43331988886749 21.0
vertex 10.1644955438162 -5.92275205119853 16.0
vertex 9.55311081610975 -5.4333198888675 16.0
endloop
endfacet
facet normal 0.721498514605414 0.6924159829338 -2.34431148641678e-15
outer loop
vertex 10.1644955438162 -5.92275205119853 16.0
vertex 9.55311081610975 -5.43331988886749 21.0
vertex 10.1644955438162 -5.92275205119852 21.0
endloop
endfacet
facet normal 0.278628050974121 0.960399088509752 -2.96869080449408e-15
outer loop
vertex 8.83588415292239 -5.11880273447069 21.0
vertex 9.55311081610975 -5.4333198888675 16.0
vertex 8.83588415292237 -5.1188027344707 16.0
endloop
endfacet
facet normal 0.517703605369911 0.855560037044155 -2.69772120780647e-15
outer loop
vertex 9.55311081610975 -5.4333198888675 16.0
vertex 8.83588415292239 -5.11880273447069 21.0
vertex 9.55311081610975 -5.43331988886749 21.0
endloop
endfacet
facet normal 0.0205644553590629 0.999788529227949 -2.2341701265353e-15
outer loop
vertex 8.06169336607721 -5.0006344123161 21.0
vertex 8.83588415292237 -5.1188027344707 16.0
vertex 8.0616933660772 -5.00063441231611 16.0
endloop
endfacet
facet normal 0.27862805097412 0.960399088509752 -2.96869080449408e-15
outer loop
vertex 8.83588415292237 -5.1188027344707 16.0
vertex 8.06169336607721 -5.0006344123161 21.0
vertex 8.83588415292239 -5.11880273447069 21.0
endloop
endfacet
facet normal 1.06310250217442e-15 1.09575654650019e-15 1.0
outer loop
vertex 5.08686789827624 -8.71670172171298 21.0
vertex 5.11880273447076 -7.1641158470776 21.0
vertex 5.00063441231617 -7.93830663392276 21.0
endloop
endfacet
facet normal 1.06310250217442e-15 1.09575654650019e-15 1.0
outer loop
vertex 5.11880273447076 -7.1641158470776 21.0
vertex 5.08686789827624 -8.71670172171298 21.0
vertex 5.37162652279036 -9.44625477157405 21.0
endloop
endfacet
facet normal 1.06310250217442e-15 1.09575654650019e-15 1.0
outer loop
vertex 5.11880273447076 -7.1641158470776 21.0
vertex 5.37162652279036 -9.44625477157405 21.0
vertex 5.43331988886756 -6.4468891838902 21.0
endloop
endfacet
facet normal 1.06310250217442e-15 1.09575654650019e-15 1.0
outer loop
vertex 5.43331988886756 -6.4468891838902 21.0
vertex 5.37162652279036 -9.44625477157405 21.0
vertex 5.77871522273068 -9.99999999999995 21.0
endloop
endfacet
facet normal 1.06310250217442e-15 1.09575654650019e-15 1.0
outer loop
vertex 5.43331988886756 -6.4468891838902 21.0
vertex 5.77871522273068 -9.99999999999995 21.0
vertex 5.9227520511986 -5.83550445618371 21.0
endloop
endfacet
facet normal 1.06310250217442e-15 1.09575654650019e-15 1.0
outer loop
vertex 5.9227520511986 -5.83550445618371 21.0
vertex 5.77871522273068 -9.99999999999995 21.0
vertex 10.2089316596553 -9.99999999999994 21.0
endloop
endfacet
facet normal 1.06310250217442e-15 1.09575654650019e-15 1.0
outer loop
vertex 5.9227520511986 -5.83550445618371 21.0
vertex 10.2089316596553 -9.99999999999994 21.0
vertex 6.55374522842593 -5.37162652279029 21.0
endloop
endfacet
facet normal 1.06310250217442e-15 1.09575654650019e-15 1.0
outer loop
vertex 6.55374522842593 -5.37162652279029 21.0
vertex 10.2089316596553 -9.99999999999994 21.0
vertex 7.28329827828699 -5.08686789827617 21.0
endloop
endfacet
facet normal 1.06310250217442e-15 1.09575654650019e-15 1.0
outer loop
vertex 7.28329827828699 -5.08686789827617 21.0
vertex 10.2089316596553 -9.99999999999994 21.0
vertex 8.06169336607721 -5.0006344123161 21.0
endloop
endfacet
facet normal 1.06310250217442e-15 1.09575654650019e-15 1.0
outer loop
vertex 8.06169336607721 -5.0006344123161 21.0
vertex 10.2089316596553 -9.99999999999994 21.0
vertex 8.83588415292239 -5.11880273447069 21.0
endloop
endfacet
facet normal 1.06310250217442e-15 1.09575654650019e-15 1.0
outer loop
vertex 8.83588415292239 -5.11880273447069 21.0
vertex 10.2089316596553 -9.99999999999994 21.0
vertex 9.55311081610975 -5.43331988886749 21.0
endloop
endfacet
facet normal 1.06310250217442e-15 1.09575654650019e-15 1.0
outer loop
vertex 9.55311081610975 -5.43331988886749 21.0
vertex 10.2089316596553 -9.99999999999994 21.0
vertex 10.1644955438162 -5.92275205119852 21.0
endloop
endfacet
facet normal 1.06310250217442e-15 1.09575654650019e-15 1.0
outer loop
vertex 10.1644955438162 -5.92275205119852 21.0
vertex 10.2089316596553 -9.99999999999994 21.0
vertex 10.6283734772097 -6.55374522842586 21.0
endloop
endfacet
facet normal 1.06310250217442e-15 1.09575654650019e-15 1.0
outer loop
vertex 10.6283734772097 -6.55374522842586 21.0
vertex 10.2089316596553 -9.99999999999994 21.0
vertex 10.5666801111325 -9.55311081610969 21.0
endloop
endfacet
facet normal 1.06310250217442e-15 1.09575654650019e-15 1.0
outer loop
vertex 10.6283734772097 -6.55374522842586 21.0
vertex 10.5666801111325 -9.55311081610969 21.0
vertex 10.8811972655293 -8.83588415292231 21.0
endloop
endfacet
facet normal 1.06310250217442e-15 1.09575654650019e-15 1.0
outer loop
vertex 10.6283734772097 -6.55374522842586 21.0
vertex 10.8811972655293 -8.83588415292231 21.0
vertex 10.9131321017238 -7.28329827828693 21.0
endloop
endfacet
facet normal 1.06310250217442e-15 1.09575654650019e-15 1.0
outer loop
vertex 10.9131321017238 -7.28329827828693 21.0
vertex 10.8811972655293 -8.83588415292231 21.0
vertex 10.9993655876839 -8.06169336607713 21.0
endloop
endfacet
facet normal 1.11392782152299e-15 -1.0 1.55098156540133e-15
outer loop
vertex 10.2089316596553 -9.99999999999994 21.0
vertex 5.77871522273068 -9.99999999999996 16.0
vertex 10.2089316596553 -9.99999999999996 16.0
endloop
endfacet
facet normal 1.11392782152299e-15 -1.0 1.55098156540133e-15
outer loop
vertex 5.77871522273068 -9.99999999999996 16.0
vertex 10.2089316596553 -9.99999999999994 21.0
vertex 5.77871522273068 -9.99999999999995 21.0
endloop
endfacet
facet normal -2.192523940181e-15 4.79394302033145e-16 -1.0
outer loop
vertex 2.00000000000001 -11.9999999999999 9.80000000000002
vertex 5.99999999999999 -15.9999999999999 9.80000000000001
vertex 2.00000000000001 -15.9999999999999 9.80000000000001
endloop
endfacet
facet normal -2.192523940181e-15 4.79394302033145e-16 -1.0
outer loop
vertex 5.99999999999999 -15.9999999999999 9.80000000000001
vertex 2.00000000000001 -11.9999999999999 9.80000000000002
vertex 6.00000000000001 -11.9999999999999 9.80000000000001
endloop
endfacet
facet normal -2.192523940181e-15 4.79394302033145e-16 -1.0
outer loop
vertex 5.99999999999999 -15.9999999999999 9.80000000000001
vertex 6.00000000000001 -11.9999999999999 9.80000000000001
vertex 5.99999999999999 -15.0 9.80000000000001
endloop
endfacet
facet normal 2.41812125878484e-15 -1.52278190057586e-15 -1.0
outer loop
vertex 10.0 -11.9999999999999 9.8
vertex 9.99999999999999 -15.9999999999999 9.8
vertex 9.99999999999999 -15.0 9.8
endloop
endfacet
facet normal 2.41812125878484e-15 -1.52278190057586e-15 -1.0
outer loop
vertex 9.99999999999999 -15.9999999999999 9.8
vertex 10.0 -11.9999999999999 9.8
vertex 14.0 -15.9999999999999 9.80000000000001
endloop
endfacet
facet normal 2.41812125878484e-15 -1.52278190057586e-15 -1.0
outer loop
vertex 14.0 -15.9999999999999 9.80000000000001
vertex 10.0 -11.9999999999999 9.8
vertex 14.0 -11.9999999999999 9.80000000000001
endloop
endfacet
endsolid Zombie Head
